ZillaSlab-BoldItalic.ufo
<glyph name="dollar" format="1">
  <advance width="483"/>
  <unicode hex="0024"/>
  <outline>
    <contour>
      <point x="443" y="172" type="curve" smooth="yes"/>
      <point x="443" y="67"/>
      <point x="362" y="2"/>
      <point x="244" y="-7" type="curve"/>
      <point x="238" y="-65" type="line"/>
      <point x="175" y="-65" type="line"/>
      <point x="181" y="-7" type="line"/>
      <point x="112" y="-1"/>
      <point x="48" y="20"/>
      <point x="13" y="47" type="curve"/>
      <point x="46" y="178" type="line"/>
      <point x="151" y="170" type="line"/>
      <point x="141" y="111" type="line"/>
      <point x="156" y="102"/>
      <point x="174" y="97"/>
      <point x="192" y="95" type="curve"/>
      <point x="205" y="225" type="line"/>
      <point x="118" y="242"/>
      <point x="51" y="269"/>
      <point x="51" y="358" type="curve" smooth="yes"/>
      <point x="51" y="476"/>
      <point x="148" y="519"/>
      <point x="237" y="527" type="curve"/>
      <point x="244" y="593" type="line"/>
      <point x="307" y="593" type="line"/>
      <point x="300" y="528" type="line"/>
      <point x="362" y="523"/>
      <point x="416" y="503"/>
      <point x="447" y="479" type="curve"/>
      <point x="447" y="351" type="line"/>
      <point x="340" y="343" type="line"/>
      <point x="335" y="412" type="line"/>
      <point x="320" y="420"/>
      <point x="304" y="424"/>
      <point x="289" y="426" type="curve"/>
      <point x="278" y="323" type="line"/>
      <point x="343" y="310"/>
      <point x="443" y="289"/>
    </contour>
    <contour>
      <point x="305" y="152" type="curve" smooth="yes"/>
      <point x="305" y="180"/>
      <point x="289" y="197"/>
      <point x="266" y="208" type="curve"/>
      <point x="255" y="97" type="line"/>
      <point x="293" y="105"/>
      <point x="305" y="127"/>
    </contour>
    <contour>
      <point x="189" y="381" type="curve" smooth="yes"/>
      <point x="189" y="361"/>
      <point x="200" y="349"/>
      <point x="217" y="340" type="curve"/>
      <point x="226" y="423" type="line"/>
      <point x="205" y="416"/>
      <point x="189" y="404"/>
    </contour>
  </outline>
</glyph>
<glyph name="percent" format="1">
  <advance width="724"/>
  <unicode hex="0025"/>
  <outline>
    <contour>
      <point x="648" y="521" type="line"/>
      <point x="417" y="259" type="line"/>
      <point x="198" y="0" type="line"/>
      <point x="67" y="0" type="line"/>
      <point x="327" y="285" type="line"/>
      <point x="517" y="521" type="line"/>
    </contour>
    <contour>
      <point x="178" y="240" type="curve" smooth="yes"/>
      <point x="285" y="240"/>
      <point x="348" y="313"/>
      <point x="348" y="401" type="curve" smooth="yes"/>
      <point x="348" y="474"/>
      <point x="304" y="531"/>
      <point x="210" y="531" type="curve" smooth="yes"/>
      <point x="104" y="531"/>
      <point x="38" y="458"/>
      <point x="38" y="370" type="curve" smooth="yes"/>
      <point x="38" y="296"/>
      <point x="84" y="240"/>
    </contour>
    <contour>
      <point x="185" y="322" type="curve" smooth="yes"/>
      <point x="160" y="322"/>
      <point x="139" y="334"/>
      <point x="139" y="377" type="curve" smooth="yes"/>
      <point x="139" y="429"/>
      <point x="169" y="449"/>
      <point x="201" y="449" type="curve" smooth="yes"/>
      <point x="228" y="449"/>
      <point x="246" y="435"/>
      <point x="246" y="394" type="curve" smooth="yes"/>
      <point x="246" y="343"/>
      <point x="219" y="322"/>
    </contour>
    <contour>
      <point x="513" y="-10" type="curve" smooth="yes"/>
      <point x="621" y="-10"/>
      <point x="684" y="63"/>
      <point x="684" y="150" type="curve" smooth="yes"/>
      <point x="684" y="224"/>
      <point x="639" y="281"/>
      <point x="545" y="281" type="curve" smooth="yes"/>
      <point x="440" y="281"/>
      <point x="373" y="209"/>
      <point x="373" y="120" type="curve" smooth="yes"/>
      <point x="373" y="45"/>
      <point x="420" y="-10"/>
    </contour>
    <contour>
      <point x="521" y="72" type="curve" smooth="yes"/>
      <point x="496" y="72"/>
      <point x="475" y="85"/>
      <point x="475" y="128" type="curve" smooth="yes"/>
      <point x="475" y="179"/>
      <point x="505" y="199"/>
      <point x="537" y="199" type="curve" smooth="yes"/>
      <point x="564" y="199"/>
      <point x="582" y="185"/>
      <point x="582" y="144" type="curve" smooth="yes"/>
      <point x="582" y="93"/>
      <point x="554" y="72"/>
    </contour>
  </outline>
</glyph>
<glyph name="ampersand" format="1">
  <advance width="689"/>
  <unicode hex="0026"/>
  <outline>
    <contour>
      <point x="440" y="385" type="line"/>
      <point x="686" y="385" type="line"/>
      <point x="674" y="271" type="line"/>
      <point x="612" y="271" type="line"/>
      <point x="586" y="224"/>
      <point x="545" y="173"/>
      <point x="495" y="127" type="curve"/>
      <point x="518" y="118"/>
      <point x="541" y="113"/>
      <point x="564" y="113" type="curve" smooth="yes"/>
      <point x="583" y="113"/>
      <point x="606" y="117"/>
      <point x="627" y="126" type="curve"/>
      <point x="643" y="16" type="line"/>
      <point x="607" y="-2"/>
      <point x="566" y="-10"/>
      <point x="530" y="-10" type="curve" smooth="yes"/>
      <point x="476" y="-10"/>
      <point x="422" y="9"/>
      <point x="373" y="40" type="curve"/>
      <point x="316" y="9"/>
      <point x="257" y="-10"/>
      <point x="200" y="-10" type="curve" smooth="yes"/>
      <point x="105" y="-10"/>
      <point x="10" y="43"/>
      <point x="10" y="151" type="curve" smooth="yes"/>
      <point x="10" y="248"/>
      <point x="88" y="287"/>
      <point x="155" y="317" type="curve"/>
      <point x="139" y="362"/>
      <point x="130" y="406"/>
      <point x="130" y="447" type="curve" smooth="yes"/>
      <point x="130" y="553"/>
      <point x="191" y="660"/>
      <point x="339" y="660" type="curve" smooth="yes"/>
      <point x="444" y="660"/>
      <point x="508" y="606"/>
      <point x="508" y="516" type="curve" smooth="yes"/>
      <point x="508" y="423"/>
      <point x="439" y="383"/>
      <point x="301" y="316" type="curve"/>
      <point x="331" y="260"/>
      <point x="374" y="209"/>
      <point x="421" y="171" type="curve"/>
      <point x="444" y="196"/>
      <point x="463" y="228"/>
      <point x="476" y="271" type="curve"/>
      <point x="428" y="271" type="line"/>
    </contour>
    <contour>
      <point x="377" y="511" type="curve" smooth="yes"/>
      <point x="377" y="533"/>
      <point x="371" y="562"/>
      <point x="329" y="562" type="curve" smooth="yes"/>
      <point x="272" y="562"/>
      <point x="260" y="507"/>
      <point x="260" y="465" type="curve" smooth="yes"/>
      <point x="260" y="437"/>
      <point x="265" y="407"/>
      <point x="275" y="378" type="curve"/>
      <point x="352" y="425"/>
      <point x="377" y="467"/>
    </contour>
    <contour>
      <point x="182" y="254" type="curve"/>
      <point x="153" y="231"/>
      <point x="138" y="204"/>
      <point x="138" y="171" type="curve" smooth="yes"/>
      <point x="138" y="115"/>
      <point x="182" y="99"/>
      <point x="242" y="99" type="curve" smooth="yes"/>
      <point x="258" y="99"/>
      <point x="276" y="100"/>
      <point x="293" y="103" type="curve"/>
      <point x="249" y="146"/>
      <point x="211" y="199"/>
    </contour>
  </outline>
</glyph>
<glyph name="parenleft" format="1">
  <advance width="286"/>
  <unicode hex="0028"/>
  <outline>
    <contour>
      <point x="228" y="718" type="curve"/>
      <point x="340" y="718" type="line"/>
      <point x="199" y="557"/>
      <point x="126" y="392"/>
      <point x="126" y="212" type="curve" smooth="yes"/>
      <point x="126" y="79"/>
      <point x="165" y="-66"/>
      <point x="245" y="-183" type="curve"/>
      <point x="131" y="-183" type="line"/>
      <point x="54" y="-60"/>
      <point x="20" y="79"/>
      <point x="20" y="208" type="curve" smooth="yes"/>
      <point x="20" y="385"/>
      <point x="84" y="552"/>
    </contour>
  </outline>
</glyph>
<glyph name="parenright" format="1">
  <advance width="287"/>
  <unicode hex="0029"/>
  <outline>
    <contour>
      <point x="57" y="-183" type="curve"/>
      <point x="-55" y="-183" type="line"/>
      <point x="86" y="-22"/>
      <point x="159" y="143"/>
      <point x="159" y="323" type="curve" smooth="yes"/>
      <point x="159" y="456"/>
      <point x="120" y="601"/>
      <point x="40" y="718" type="curve"/>
      <point x="154" y="718" type="line"/>
      <point x="231" y="595"/>
      <point x="265" y="456"/>
      <point x="265" y="327" type="curve" smooth="yes"/>
      <point x="265" y="150"/>
      <point x="201" y="-17"/>
    </contour>
  </outline>
</glyph>
<glyph name="comma" format="1">
  <advance width="221"/>
  <unicode hex="002C"/>
  <outline>
    <contour>
      <point x="-34" y="-85" type="line"/>
      <point x="90" y="-85" type="line"/>
      <point x="174" y="149" type="line"/>
      <point x="50" y="149" type="line"/>
    </contour>
  </outline>
</glyph>
<glyph name="nine" format="1">
  <advance width="527"/>
  <unicode hex="0039"/>
  <outline>
    <contour>
      <point x="32" y="282" type="curve" smooth="yes"/>
      <point x="32" y="188"/>
      <point x="74" y="100"/>
      <point x="192" y="100" type="curve" smooth="yes"/>
      <point x="270" y="100"/>
      <point x="321" y="139"/>
      <point x="349" y="181" type="curve"/>
      <point x="334" y="40"/>
      <point x="293" y="-26"/>
      <point x="207" y="-26" type="curve" smooth="yes"/>
      <point x="158" y="-26"/>
      <point x="115" y="-4"/>
      <point x="95" y="27" type="curve"/>
      <point x="12" y="-50" type="line"/>
      <point x="50" y="-117"/>
      <point x="126" y="-140"/>
      <point x="199" y="-140" type="curve" smooth="yes"/>
      <point x="423" y="-140"/>
      <point x="492" y="75"/>
      <point x="492" y="252" type="curve" smooth="yes"/>
      <point x="492" y="428"/>
      <point x="424" y="530"/>
      <point x="277" y="530" type="curve" smooth="yes"/>
      <point x="126" y="530"/>
      <point x="32" y="422"/>
    </contour>
    <contour>
      <point x="168" y="296" type="curve" smooth="yes"/>
      <point x="168" y="362"/>
      <point x="197" y="412"/>
      <point x="271" y="412" type="curve" smooth="yes"/>
      <point x="335" y="412"/>
      <point x="355" y="376"/>
      <point x="354" y="299" type="curve"/>
      <point x="345" y="247"/>
      <point x="310" y="209"/>
      <point x="247" y="209" type="curve" smooth="yes"/>
      <point x="188" y="209"/>
      <point x="168" y="241"/>
    </contour>
  </outline>
</glyph>
<glyph name="colon" format="1">
  <advance width="243"/>
  <unicode hex="003A"/>
  <outline>
    <contour>
      <point x="90" y="451" type="line"/>
      <point x="224" y="451" type="line"/>
      <point x="204" y="289" type="line"/>
      <point x="70" y="289" type="line"/>
    </contour>
    <contour>
      <point x="55" y="162" type="line"/>
      <point x="189" y="162" type="line"/>
      <point x="169" y="0" type="line"/>
      <point x="35" y="0" type="line"/>
    </contour>
  </outline>
</glyph>
<glyph name="semicolon" format="1">
  <advance width="245"/>
  <unicode hex="003B"/>
  <outline>
    <contour>
      <point x="62" y="285" type="line"/>
      <point x="212" y="285" type="line"/>
      <point x="229" y="448" type="line"/>
      <point x="79" y="448" type="line"/>
    </contour>
    <contour>
      <point x="-32" y="-85" type="line"/>
      <point x="92" y="-85" type="line"/>
      <point x="176" y="149" type="line"/>
      <point x="52" y="149" type="line"/>
    </contour>
  </outline>
</glyph>
<glyph name="less" format="1">
  <advance width="386"/>
  <unicode hex="003C"/>
  <outline>
    <contour>
      <point x="308" y="14" type="line"/>
      <point x="321" y="136" type="line"/>
      <point x="153" y="282" type="line"/>
      <point x="351" y="427" type="line"/>
      <point x="364" y="549" type="line"/>
      <point x="27" y="301" type="line"/>
      <point x="22" y="257" type="line"/>
    </contour>
  </outline>
</glyph>
<glyph name="E" format="1">
  <advance width="569"/>
  <unicode hex="0045"/>
  <outline>
    <contour>
      <point x="497" y="0" type="line"/>
      <point x="8" y="0" type="line"/>
      <point x="20" y="114" type="line"/>
      <point x="89" y="114" type="line"/>
      <point x="133" y="536" type="line"/>
      <point x="64" y="536" type="line"/>
      <point x="76" y="650" type="line"/>
      <point x="559" y="650" type="line"/>
      <point x="559" y="460" type="line"/>
      <point x="449" y="450" type="line"/>
      <point x="439" y="536" type="line"/>
      <point x="261" y="536" type="line"/>
      <point x="245" y="383" type="line"/>
      <point x="517" y="383" type="line"/>
      <point x="505" y="270" type="line"/>
      <point x="233" y="270" type="line"/>
      <point x="217" y="114" type="line"/>
      <point x="400" y="114" type="line"/>
      <point x="429" y="200" type="line"/>
      <point x="537" y="190" type="line"/>
    </contour>
  </outline>
</glyph>
<glyph name="F" format="1">
  <advance width="544"/>
  <unicode hex="0046"/>
  <outline>
    <contour>
      <point x="550" y="449" type="line"/>
      <point x="550" y="650" type="line"/>
      <point x="76" y="650" type="line"/>
      <point x="64" y="536" type="line"/>
      <point x="132" y="536" type="line"/>
      <point x="88" y="114" type="line"/>
      <point x="21" y="114" type="line"/>
      <point x="9" y="0" type="line"/>
      <point x="306" y="0" type="line"/>
      <point x="318" y="114" type="line"/>
      <point x="216" y="114" type="line"/>
      <point x="229" y="241" type="line"/>
      <point x="491" y="241" type="line"/>
      <point x="503" y="354" type="line"/>
      <point x="241" y="354" type="line"/>
      <point x="260" y="536" type="line"/>
      <point x="430" y="536" type="line"/>
      <point x="440" y="439" type="line"/>
    </contour>
  </outline>
</glyph>
<glyph name="G" format="1">
  <advance width="656"/>
  <unicode hex="0047"/>
  <outline>
    <contour>
      <point x="631" y="246" type="line"/>
      <point x="643" y="359" type="line"/>
      <point x="355" y="359" type="line"/>
      <point x="343" y="246" type="line"/>
      <point x="468" y="246" type="line"/>
      <point x="467" y="240" type="line"/>
      <point x="453" y="155"/>
      <point x="407" y="108"/>
      <point x="322" y="108" type="curve" smooth="yes"/>
      <point x="229" y="108"/>
      <point x="166" y="164"/>
      <point x="166" y="298" type="curve" smooth="yes"/>
      <point x="166" y="453"/>
      <point x="251" y="542"/>
      <point x="368" y="542" type="curve" smooth="yes"/>
      <point x="411" y="542"/>
      <point x="470" y="530"/>
      <point x="500" y="507" type="curve"/>
      <point x="510" y="431" type="line"/>
      <point x="617" y="441" type="line"/>
      <point x="614" y="582" type="line"/>
      <point x="577" y="625"/>
      <point x="485" y="660"/>
      <point x="382" y="660" type="curve" smooth="yes"/>
      <point x="147" y="660"/>
      <point x="26" y="481"/>
      <point x="26" y="287" type="curve" smooth="yes"/>
      <point x="26" y="113"/>
      <point x="123" y="-10"/>
      <point x="287" y="-10" type="curve" smooth="yes"/>
      <point x="367" y="-10"/>
      <point x="426" y="19"/>
      <point x="467" y="64" type="curve"/>
      <point x="472" y="0" type="line"/>
      <point x="573" y="0" type="line"/>
      <point x="599" y="246" type="line"/>
    </contour>
  </outline>
</glyph>
<glyph name="V" format="1">
  <advance width="658"/>
  <unicode hex="0056"/>
  <outline>
    <contour>
      <point x="679" y="536" type="line"/>
      <point x="622" y="536" type="line"/>
      <point x="345" y="0" type="line"/>
      <point x="256" y="0" type="line"/>
      <point x="91" y="536" type="line"/>
      <point x="32" y="536" type="line"/>
      <point x="44" y="650" type="line"/>
      <point x="302" y="650" type="line"/>
      <point x="290" y="536" type="line"/>
      <point x="234" y="536" type="line"/>
      <point x="327" y="207" type="line"/>
      <point x="332" y="207" type="line"/>
      <point x="491" y="536" type="line"/>
      <point x="434" y="536" type="line"/>
      <point x="446" y="650" type="line"/>
      <point x="691" y="650" type="line"/>
    </contour>
  </outline>
</glyph>
<glyph name="Z" format="1">
  <advance width="566"/>
  <unicode hex="005A"/>
  <outline>
    <contour>
      <point x="505" y="0" type="line"/>
      <point x="549" y="224" type="line"/>
      <point x="438" y="234" type="line"/>
      <point x="405" y="114" type="line"/>
      <point x="192" y="114" type="line"/>
      <point x="192" y="116" type="line"/>
      <point x="560" y="589" type="line"/>
      <point x="559" y="650" type="line"/>
      <point x="95" y="650" type="line"/>
      <point x="54" y="445" type="line"/>
      <point x="165" y="435" type="line"/>
      <point x="194" y="536" type="line"/>
      <point x="364" y="536" type="line"/>
      <point x="364" y="535" type="line"/>
      <point x="-2" y="69" type="line"/>
      <point x="1" y="0" type="line"/>
    </contour>
  </outline>
</glyph>
<glyph name="bracketleft" format="1">
  <advance width="293"/>
  <unicode hex="005B"/>
  <outline>
    <contour>
      <point x="10" y="-248" type="line"/>
      <point x="229" y="-248" type="line"/>
      <point x="238" y="-161" type="line"/>
      <point x="126" y="-161" type="line"/>
      <point x="216" y="698" type="line"/>
      <point x="328" y="698" type="line"/>
      <point x="338" y="785" type="line"/>
      <point x="119" y="785" type="line"/>
    </contour>
  </outline>
</glyph>
<glyph name="backslash" format="1">
  <advance width="448"/>
  <unicode hex="005C"/>
  <outline>
    <contour>
      <point x="22" y="688" type="line"/>
      <point x="301" y="0" type="line"/>
      <point x="418" y="0" type="line"/>
      <point x="140" y="688" type="line"/>
    </contour>
  </outline>
</glyph>
<glyph name="asciicircum" format="1">
  <advance width="462"/>
  <unicode hex="005E"/>
  <outline>
    <contour>
      <point x="227" y="650" type="line"/>
      <point x="39" y="367" type="line"/>
      <point x="155" y="367" type="line"/>
      <point x="254" y="525" type="line"/>
      <point x="328" y="367" type="line"/>
      <point x="444" y="367" type="line"/>
      <point x="306" y="650" type="line"/>
    </contour>
  </outline>
</glyph>
<glyph name="underscore" format="1">
  <advance width="492"/>
  <unicode hex="005F"/>
  <outline>
    <contour>
      <point x="-1" y="-68" type="line"/>
      <point x="423" y="-68" type="line"/>
      <point x="414" y="-153" type="line"/>
      <point x="-10" y="-153" type="line"/>
    </contour>
  </outline>
</glyph>
<glyph name="grave" format="1">
  <advance width="431"/>
  <unicode hex="0060"/>
  <outline>
    <contour>
      <point x="404" y="508" type="line"/>
      <point x="433" y="557" type="line"/>
      <point x="259" y="700" type="line"/>
      <point x="200" y="600" type="line"/>
    </contour>
  </outline>
</glyph>
<glyph name="b" format="1">
  <advance width="514"/>
  <unicode hex="0062"/>
  <outline>
    <contour>
      <point x="46" y="661" type="line"/>
      <point x="77" y="688" type="line"/>
      <point x="230" y="688" type="line"/>
      <point x="191" y="369" type="line"/>
      <point x="219" y="419"/>
      <point x="262" y="460"/>
      <point x="329" y="460" type="curve" smooth="yes"/>
      <point x="438" y="460"/>
      <point x="489" y="370"/>
      <point x="489" y="269" type="curve" smooth="yes"/>
      <point x="489" y="139"/>
      <point x="421" y="-10"/>
      <point x="271" y="-10" type="curve" smooth="yes"/>
      <point x="206" y="-10"/>
      <point x="166" y="20"/>
      <point x="148" y="68" type="curve"/>
      <point x="130" y="0" type="line"/>
      <point x="6" y="0" type="line"/>
      <point x="21" y="47"/>
      <point x="34" y="94"/>
      <point x="39" y="139" type="curve" smooth="yes"/>
      <point x="94" y="590" type="line"/>
      <point x="37" y="590" type="line"/>
    </contour>
    <contour>
      <point x="255" y="88" type="curve" smooth="yes"/>
      <point x="317" y="88"/>
      <point x="354" y="177"/>
      <point x="354" y="254" type="curve" smooth="yes"/>
      <point x="354" y="312"/>
      <point x="334" y="362"/>
      <point x="283" y="362" type="curve" smooth="yes"/>
      <point x="220" y="362"/>
      <point x="185" y="295"/>
      <point x="174" y="232" type="curve"/>
      <point x="169" y="192" type="line"/>
      <point x="167" y="128"/>
      <point x="200" y="88"/>
    </contour>
    <contour>
      <point x="228" y="566" type="move" name="top"/>
    </contour>
  </outline>
</glyph>
<glyph name="d" format="1">
  <advance width="522"/>
  <unicode hex="0064"/>
  <outline>
    <contour>
      <point x="297" y="661" type="line"/>
      <point x="328" y="688" type="line"/>
      <point x="506" y="688" type="line"/>
      <point x="434" y="98" type="line"/>
      <point x="492" y="98" type="line"/>
      <point x="483" y="25" type="line"/>
      <point x="453" y="0" type="line"/>
      <point x="318" y="0" type="line"/>
      <point x="316" y="99" type="line"/>
      <point x="286" y="40"/>
      <point x="234" y="-10"/>
      <point x="158" y="-10" type="curve" smooth="yes"/>
      <point x="59" y="-10"/>
      <point x="14" y="76"/>
      <point x="14" y="180" type="curve" smooth="yes"/>
      <point x="14" y="306"/>
      <point x="81" y="460"/>
      <point x="226" y="460" type="curve" smooth="yes"/>
      <point x="285" y="460"/>
      <point x="325" y="435"/>
      <point x="346" y="394" type="curve"/>
      <point x="370" y="590" type="line"/>
      <point x="288" y="590" type="line"/>
    </contour>
    <contour>
      <point x="246" y="362" type="curve" smooth="yes"/>
      <point x="182" y="362"/>
      <point x="148" y="284"/>
      <point x="148" y="194" type="curve" smooth="yes"/>
      <point x="148" y="131"/>
      <point x="165" y="88"/>
      <point x="209" y="88" type="curve" smooth="yes"/>
      <point x="262" y="88"/>
      <point x="308" y="149"/>
      <point x="323" y="206" type="curve"/>
      <point x="329" y="259" type="line"/>
      <point x="330" y="325"/>
      <point x="289" y="362"/>
    </contour>
  </outline>
</glyph>
<glyph name="f" format="1">
  <advance width="315"/>
  <unicode hex="0066"/>
  <outline>
    <contour>
      <point x="295" y="698" type="curve" smooth="yes"/>
      <point x="213" y="698"/>
      <point x="122" y="640"/>
      <point x="109" y="533" type="curve"/>
      <point x="98" y="451" type="line"/>
      <point x="48" y="451" type="line"/>
      <point x="14" y="420" type="line"/>
      <point x="8" y="353" type="line"/>
      <point x="86" y="353" type="line"/>
      <point x="40" y="-22" type="line" smooth="yes"/>
      <point x="35" y="-63"/>
      <point x="22" y="-124"/>
      <point x="-20" y="-124" type="curve" smooth="yes"/>
      <point x="-40" y="-124"/>
      <point x="-66" y="-110"/>
      <point x="-66" y="-43" type="curve"/>
      <point x="-163" y="-72" type="line"/>
      <point x="-163" y="-176"/>
      <point x="-102" y="-222"/>
      <point x="-15" y="-222" type="curve" smooth="yes"/>
      <point x="118" y="-222"/>
      <point x="153" y="-115"/>
      <point x="164" y="-24" type="curve" smooth="yes"/>
      <point x="210" y="353" type="line"/>
      <point x="286" y="353" type="line"/>
      <point x="320" y="385" type="line"/>
      <point x="329" y="451" type="line"/>
      <point x="222" y="451" type="line"/>
      <point x="234" y="541" type="line" smooth="yes"/>
      <point x="239" y="579"/>
      <point x="253" y="602"/>
      <point x="288" y="602" type="curve" smooth="yes"/>
      <point x="297" y="602"/>
      <point x="309" y="600"/>
      <point x="323" y="596" type="curve"/>
      <point x="336" y="525" type="line"/>
      <point x="429" y="536" type="line"/>
      <point x="423" y="658" type="line"/>
      <point x="383" y="691"/>
      <point x="323" y="698"/>
    </contour>
  </outline>
</glyph>
<glyph name="h" format="1">
  <advance width="522"/>
  <unicode hex="0068"/>
  <outline>
    <contour>
      <point x="43" y="661" type="line"/>
      <point x="74" y="688" type="line"/>
      <point x="228" y="688" type="line"/>
      <point x="190" y="375" type="line"/>
      <point x="220" y="426"/>
      <point x="266" y="460"/>
      <point x="329" y="460" type="curve" smooth="yes"/>
      <point x="410" y="460"/>
      <point x="474" y="411"/>
      <point x="461" y="304" type="curve" smooth="yes"/>
      <point x="436" y="98" type="line"/>
      <point x="494" y="98" type="line"/>
      <point x="485" y="25" type="line"/>
      <point x="455" y="0" type="line"/>
      <point x="301" y="0" type="line"/>
      <point x="332" y="254" type="line" smooth="yes"/>
      <point x="342" y="332"/>
      <point x="320" y="362"/>
      <point x="271" y="362" type="curve" smooth="yes"/>
      <point x="214" y="362"/>
      <point x="186" y="322"/>
      <point x="176" y="264" type="curve"/>
      <point x="144" y="0" type="line"/>
      <point x="20" y="0" type="line"/>
      <point x="92" y="590" type="line"/>
      <point x="34" y="590" type="line"/>
    </contour>
    <contour>
      <point x="232" y="566" type="move" name="top"/>
    </contour>
  </outline>
</glyph>
<glyph name="p" format="1">
  <advance width="532"/>
  <unicode hex="0070"/>
  <outline>
    <contour>
      <point x="200" y="451" type="line"/>
      <point x="204" y="359" type="line"/>
      <point x="231" y="414"/>
      <point x="276" y="460"/>
      <point x="347" y="460" type="curve" smooth="yes"/>
      <point x="456" y="460"/>
      <point x="507" y="370"/>
      <point x="507" y="269" type="curve" smooth="yes"/>
      <point x="507" y="139"/>
      <point x="439" y="-10"/>
      <point x="289" y="-10" type="curve" smooth="yes"/>
      <point x="229" y="-10"/>
      <point x="191" y="15"/>
      <point x="171" y="55" type="curve"/>
      <point x="150" y="-115" type="line"/>
      <point x="237" y="-115" type="line"/>
      <point x="228" y="-186" type="line"/>
      <point x="197" y="-213" type="line"/>
      <point x="-44" y="-213" type="line"/>
      <point x="-35" y="-142" type="line"/>
      <point x="-4" y="-115" type="line"/>
      <point x="26" y="-115" type="line"/>
      <point x="84" y="353" type="line"/>
      <point x="21" y="353" type="line"/>
      <point x="30" y="424" type="line"/>
      <point x="61" y="451" type="line"/>
    </contour>
    <contour>
      <point x="273" y="88" type="curve" smooth="yes"/>
      <point x="335" y="88"/>
      <point x="372" y="177"/>
      <point x="372" y="254" type="curve" smooth="yes"/>
      <point x="372" y="312"/>
      <point x="352" y="362"/>
      <point x="301" y="362" type="curve" smooth="yes"/>
      <point x="240" y="362"/>
      <point x="205" y="300"/>
      <point x="193" y="239" type="curve"/>
      <point x="187" y="188" type="line"/>
      <point x="187" y="126"/>
      <point x="219" y="88"/>
    </contour>
    <contour>
      <point x="291" y="566" type="move" name="top"/>
    </contour>
  </outline>
</glyph>
<glyph name="r" format="1">
  <advance width="357"/>
  <unicode hex="0072"/>
  <outline>
    <contour>
      <point x="72" y="451" type="line"/>
      <point x="201" y="451" type="line"/>
      <point x="208" y="327" type="line"/>
      <point x="228" y="390"/>
      <point x="263" y="460"/>
      <point x="317" y="460" type="curve" smooth="yes"/>
      <point x="339" y="460"/>
      <point x="352" y="454"/>
      <point x="366" y="442" type="curve"/>
      <point x="346" y="309" type="line"/>
      <point x="324" y="321"/>
      <point x="310" y="324"/>
      <point x="294" y="324" type="curve" smooth="yes"/>
      <point x="253" y="324"/>
      <point x="221" y="302"/>
      <point x="210" y="254" type="curve"/>
      <point x="188" y="98" type="line"/>
      <point x="274" y="98" type="line"/>
      <point x="265" y="27" type="line"/>
      <point x="234" y="0" type="line"/>
      <point x="-7" y="0" type="line"/>
      <point x="2" y="71" type="line"/>
      <point x="33" y="98" type="line"/>
      <point x="63" y="98" type="line"/>
      <point x="94" y="353" type="line"/>
      <point x="32" y="353" type="line"/>
      <point x="41" y="424" type="line"/>
    </contour>
    <contour>
      <point x="302" y="566" type="move" name="top"/>
    </contour>
  </outline>
</glyph>
<glyph name="t" format="1">
  <advance width="360"/>
  <unicode hex="0074"/>
  <outline>
    <contour>
      <point x="24" y="420" type="line"/>
      <point x="58" y="451" type="line"/>
      <point x="87" y="451" type="line"/>
      <point x="99" y="548" type="line"/>
      <point x="138" y="588" type="line"/>
      <point x="228" y="588" type="line"/>
      <point x="211" y="451" type="line"/>
      <point x="346" y="451" type="line"/>
      <point x="337" y="385" type="line"/>
      <point x="303" y="353" type="line"/>
      <point x="199" y="353" type="line"/>
      <point x="174" y="147" type="line" smooth="yes"/>
      <point x="169" y="104"/>
      <point x="180" y="88"/>
      <point x="204" y="88" type="curve" smooth="yes"/>
      <point x="225" y="88"/>
      <point x="247" y="100"/>
      <point x="264" y="169" type="curve"/>
      <point x="351" y="140" type="line"/>
      <point x="326" y="36"/>
      <point x="281" y="-10"/>
      <point x="191" y="-10" type="curve" smooth="yes"/>
      <point x="95" y="-10"/>
      <point x="37" y="42"/>
      <point x="48" y="135" type="curve" smooth="yes"/>
      <point x="75" y="353" type="line"/>
      <point x="15" y="353" type="line"/>
    </contour>
  </outline>
</glyph>
<glyph name="v" format="1">
  <advance width="482"/>
  <unicode hex="0076"/>
  <outline>
    <contour>
      <point x="245" y="380" type="line"/>
      <point x="214" y="353" type="line"/>
      <point x="187" y="353" type="line"/>
      <point x="254" y="148" type="line"/>
      <point x="260" y="148" type="line"/>
      <point x="322" y="233"/>
      <point x="348" y="288"/>
      <point x="348" y="358" type="curve" smooth="yes"/>
      <point x="348" y="386"/>
      <point x="342" y="417"/>
      <point x="328" y="451" type="curve"/>
      <point x="467" y="451" type="line"/>
      <point x="481" y="376"/>
      <point x="472" y="288"/>
      <point x="397" y="189" type="curve" smooth="yes"/>
      <point x="363" y="144"/>
      <point x="286" y="57"/>
      <point x="228" y="0" type="curve"/>
      <point x="173" y="0" type="line"/>
      <point x="54" y="353" type="line"/>
      <point x="7" y="353" type="line"/>
      <point x="16" y="424" type="line"/>
      <point x="47" y="451" type="line"/>
      <point x="254" y="451" type="line"/>
    </contour>
  </outline>
</glyph>
<glyph name="w" format="1">
  <advance width="734"/>
  <unicode hex="0077"/>
  <outline>
    <contour>
      <point x="511" y="148" type="line"/>
      <point x="516" y="148" type="line"/>
      <point x="578" y="233"/>
      <point x="601" y="289"/>
      <point x="601" y="354" type="curve" smooth="yes"/>
      <point x="601" y="387"/>
      <point x="595" y="417"/>
      <point x="581" y="451" type="curve"/>
      <point x="720" y="451" type="line"/>
      <point x="735" y="370"/>
      <point x="721" y="283"/>
      <point x="650" y="189" type="curve" smooth="yes"/>
      <point x="616" y="144"/>
      <point x="542" y="57"/>
      <point x="484" y="0" type="curve"/>
      <point x="432" y="0" type="line"/>
      <point x="366" y="260" type="line"/>
      <point x="360" y="260" type="line"/>
      <point x="214" y="0" type="line"/>
      <point x="148" y="0" type="line"/>
      <point x="52" y="353" type="line"/>
      <point x="8" y="353" type="line"/>
      <point x="17" y="424" type="line"/>
      <point x="48" y="451" type="line"/>
      <point x="251" y="451" type="line"/>
      <point x="242" y="380" type="line"/>
      <point x="211" y="353" type="line"/>
      <point x="180" y="353" type="line"/>
      <point x="215" y="175" type="line"/>
      <point x="221" y="175" type="line"/>
      <point x="365" y="451" type="line"/>
      <point x="439" y="451" type="line"/>
    </contour>
  </outline>
</glyph>
<glyph name="x" format="1">
  <advance width="510"/>
  <unicode hex="0078"/>
  <outline>
    <contour>
      <point x="485" y="27" type="line"/>
      <point x="454" y="0" type="line"/>
      <point x="221" y="0" type="line"/>
      <point x="230" y="71" type="line"/>
      <point x="261" y="98" type="line"/>
      <point x="287" y="98" type="line"/>
      <point x="224" y="179" type="line"/>
      <point x="145" y="125"/>
      <point x="136" y="63"/>
      <point x="154" y="0" type="curve"/>
      <point x="15" y="0" type="line"/>
      <point x="-20" y="95"/>
      <point x="73" y="149"/>
      <point x="181" y="222" type="curve"/>
      <point x="67" y="353" type="line"/>
      <point x="15" y="353" type="line"/>
      <point x="24" y="424" type="line"/>
      <point x="55" y="451" type="line"/>
      <point x="280" y="451" type="line"/>
      <point x="271" y="380" type="line"/>
      <point x="240" y="353" type="line"/>
      <point x="212" y="353" type="line"/>
      <point x="267" y="282" type="line"/>
      <point x="335" y="341"/>
      <point x="350" y="392"/>
      <point x="335" y="451" type="curve"/>
      <point x="474" y="451" type="line"/>
      <point x="507" y="358"/>
      <point x="383" y="290"/>
      <point x="314" y="239" type="curve"/>
      <point x="432" y="98" type="line"/>
      <point x="494" y="98" type="line"/>
    </contour>
  </outline>
</glyph>
<glyph name="bar" format="1">
  <advance width="238"/>
  <unicode hex="007C"/>
  <outline>
    <contour>
      <point x="220" y="730" type="line"/>
      <point x="135" y="-80" type="line"/>
      <point x="28" y="-80" type="line"/>
      <point x="113" y="730" type="line"/>
    </contour>
  </outline>
</glyph>
<glyph name="braceright" format="1">
  <advance width="294"/>
  <unicode hex="007D"/>
  <outline>
    <contour>
      <point x="177" y="271" type="curve"/>
      <point x="82" y="260"/>
      <point x="48" y="212"/>
      <point x="48" y="171" type="curve" smooth="yes"/>
      <point x="48" y="110"/>
      <point x="106" y="-1"/>
      <point x="106" y="-83" type="curve" smooth="yes"/>
      <point x="106" y="-136"/>
      <point x="82" y="-160"/>
      <point x="36" y="-160" type="curve" smooth="yes"/>
      <point x="-27" y="-160" type="line"/>
      <point x="-36" y="-247" type="line"/>
      <point x="27" y="-247" type="line" smooth="yes"/>
      <point x="161" y="-247"/>
      <point x="209" y="-169"/>
      <point x="209" y="-81" type="curve" smooth="yes"/>
      <point x="209" y="17"/>
      <point x="155" y="129"/>
      <point x="155" y="181" type="curve" smooth="yes"/>
      <point x="155" y="234"/>
      <point x="227" y="242"/>
      <point x="257" y="242" type="curve" smooth="yes"/>
      <point x="276" y="242" type="line"/>
      <point x="282" y="299" type="line"/>
      <point x="263" y="299" type="line" smooth="yes"/>
      <point x="234" y="299"/>
      <point x="173" y="307"/>
      <point x="173" y="352" type="curve" smooth="yes"/>
      <point x="173" y="409"/>
      <point x="287" y="541"/>
      <point x="287" y="655" type="curve" smooth="yes"/>
      <point x="287" y="721"/>
      <point x="250" y="786"/>
      <point x="135" y="786" type="curve" smooth="yes"/>
      <point x="72" y="786" type="line"/>
      <point x="63" y="699" type="line"/>
      <point x="126" y="699" type="line" smooth="yes"/>
      <point x="163" y="699"/>
      <point x="182" y="682"/>
      <point x="182" y="645" type="curve" smooth="yes"/>
      <point x="182" y="553"/>
      <point x="68" y="426"/>
      <point x="68" y="359" type="curve" smooth="yes"/>
      <point x="68" y="322"/>
      <point x="96" y="281"/>
    </contour>
  </outline>
</glyph>
<glyph name="exclamdown" format="1">
  <advance width="242"/>
  <unicode hex="00A1"/>
  <outline>
    <contour>
      <point x="-3" y="-196" type="line"/>
      <point x="70" y="222" type="line"/>
      <point x="162" y="222" type="line"/>
      <point x="148" y="-196" type="line"/>
    </contour>
    <contour>
      <point x="209" y="454" type="line"/>
      <point x="61" y="454" type="line"/>
      <point x="46" y="309" type="line"/>
      <point x="194" y="309" type="line"/>
    </contour>
  </outline>
</glyph>
<glyph name="sterling" format="1">
  <advance width="483"/>
  <unicode hex="00A3"/>
  <outline>
    <contour>
      <point x="33" y="287" type="line"/>
      <point x="90" y="287" type="line"/>
      <point x="95" y="334" type="line" smooth="yes"/>
      <point x="108" y="463"/>
      <point x="196" y="528"/>
      <point x="299" y="528" type="curve" smooth="yes"/>
      <point x="344" y="528"/>
      <point x="407" y="516"/>
      <point x="439" y="478" type="curve"/>
      <point x="440" y="361" type="line"/>
      <point x="342" y="353" type="line"/>
      <point x="336" y="418" type="line"/>
      <point x="319" y="427"/>
      <point x="304" y="428"/>
      <point x="295" y="428" type="curve" smooth="yes"/>
      <point x="252" y="428"/>
      <point x="229" y="404"/>
      <point x="222" y="335" type="curve" smooth="yes"/>
      <point x="217" y="287" type="line"/>
      <point x="355" y="287" type="line"/>
      <point x="347" y="212" type="line"/>
      <point x="209" y="212" type="line"/>
      <point x="204" y="169"/>
      <point x="195" y="129"/>
      <point x="142" y="98" type="curve"/>
      <point x="262" y="98" type="line" smooth="yes"/>
      <point x="321" y="98"/>
      <point x="355" y="113"/>
      <point x="388" y="143" type="curve"/>
      <point x="436" y="83" type="line"/>
      <point x="422" y="54"/>
      <point x="362" y="0"/>
      <point x="278" y="0" type="curve" smooth="yes"/>
      <point x="11" y="0" type="line"/>
      <point x="21" y="96" type="line"/>
      <point x="69" y="123"/>
      <point x="77" y="159"/>
      <point x="82" y="212" type="curve"/>
      <point x="25" y="212" type="line"/>
    </contour>
  </outline>
</glyph>
<glyph name="brokenbar" format="1">
  <advance width="234"/>
  <unicode hex="00A6"/>
  <outline>
    <contour>
      <point x="218" y="730" type="line"/>
      <point x="186" y="426" type="line"/>
      <point x="79" y="426" type="line"/>
      <point x="111" y="730" type="line"/>
    </contour>
    <contour>
      <point x="165" y="224" type="line"/>
      <point x="133" y="-80" type="line"/>
      <point x="26" y="-80" type="line"/>
      <point x="58" y="224" type="line"/>
    </contour>
  </outline>
</glyph>
<glyph name="dieresis" format="1">
  <advance width="404"/>
  <unicode hex="00A8"/>
  <outline>
    <contour>
      <point x="112" y="531" type="line"/>
      <point x="238" y="531" type="line"/>
      <point x="252" y="665" type="line"/>
      <point x="126" y="665" type="line"/>
    </contour>
    <contour>
      <point x="293" y="531" type="line"/>
      <point x="420" y="531" type="line"/>
      <point x="434" y="665" type="line"/>
      <point x="307" y="665" type="line"/>
    </contour>
  </outline>
</glyph>
<glyph name="guillemotleft" format="1">
  <advance width="460"/>
  <unicode hex="00AB"/>
  <outline>
    <contour>
      <point x="238" y="25" type="line"/>
      <point x="149" y="271" type="line"/>
      <point x="289" y="511" type="line"/>
      <point x="184" y="511" type="line"/>
      <point x="24" y="271" type="line"/>
      <point x="133" y="25" type="line"/>
    </contour>
    <contour>
      <point x="405" y="25" type="line"/>
      <point x="316" y="271" type="line"/>
      <point x="456" y="511" type="line"/>
      <point x="351" y="511" type="line"/>
      <point x="191" y="271" type="line"/>
      <point x="300" y="25" type="line"/>
    </contour>
  </outline>
</glyph>
<glyph name="logicalnot" format="1">
  <advance width="556"/>
  <unicode hex="00AC"/>
  <outline>
    <contour>
      <point x="403" y="75" type="line"/>
      <point x="489" y="75" type="line"/>
      <point x="515" y="325" type="line"/>
      <point x="44" y="325" type="line"/>
      <point x="35" y="237" type="line"/>
      <point x="420" y="237" type="line"/>
    </contour>
  </outline>
</glyph>
<glyph name="twosuperior" format="1">
  <advance width="361"/>
  <unicode hex="00B2"/>
  <outline>
    <contour>
      <point x="148" y="654" type="line"/>
      <point x="162" y="699" type="line"/>
      <point x="177" y="707"/>
      <point x="195" y="710"/>
      <point x="208" y="710" type="curve" smooth="yes"/>
      <point x="236" y="710"/>
      <point x="253" y="696"/>
      <point x="253" y="677" type="curve" smooth="yes"/>
      <point x="253" y="626"/>
      <point x="135" y="548"/>
      <point x="46" y="485" type="curve"/>
      <point x="48" y="415" type="line"/>
      <point x="348" y="415" type="line"/>
      <point x="363" y="529" type="line"/>
      <point x="279" y="539" type="line"/>
      <point x="273" y="490" type="line"/>
      <point x="169" y="490" type="line"/>
      <point x="229" y="530"/>
      <point x="363" y="609"/>
      <point x="363" y="695" type="curve" smooth="yes"/>
      <point x="363" y="738"/>
      <point x="329" y="785"/>
      <point x="232" y="785" type="curve" smooth="yes"/>
      <point x="185" y="785"/>
      <point x="133" y="774"/>
      <point x="97" y="759" type="curve"/>
      <point x="72" y="660" type="line"/>
    </contour>
  </outline>
</glyph>
<glyph name="mu" format="1">
  <advance width="578"/>
  <unicode hex="00B5"/>
  <outline>
    <contour>
      <point x="534" y="0" type="line"/>
      <point x="343" y="0" type="line"/>
      <point x="350" y="68" type="line"/>
      <point x="316" y="19"/>
      <point x="265" y="-9"/>
      <point x="200" y="-9" type="curve" smooth="yes"/>
      <point x="190" y="-9"/>
      <point x="181" y="-8"/>
      <point x="172" y="-7" type="curve"/>
      <point x="151" y="-213" type="line"/>
      <point x="24" y="-213" type="line"/>
      <point x="83" y="353" type="line"/>
      <point x="25" y="353" type="line"/>
      <point x="36" y="451" type="line"/>
      <point x="221" y="451" type="line"/>
      <point x="194" y="197" type="line" smooth="yes"/>
      <point x="186" y="118"/>
      <point x="208" y="89"/>
      <point x="258" y="89" type="curve" smooth="yes"/>
      <point x="315" y="89"/>
      <point x="352" y="128"/>
      <point x="362" y="186" type="curve"/>
      <point x="380" y="353" type="line"/>
      <point x="309" y="353" type="line"/>
      <point x="320" y="451" type="line"/>
      <point x="518" y="451" type="line"/>
      <point x="480" y="98" type="line"/>
      <point x="545" y="98" type="line"/>
    </contour>
  </outline>
</glyph>
<glyph name="paragraph" format="1">
  <advance width="645"/>
  <unicode hex="00B6"/>
  <outline>
    <contour>
      <point x="647" y="650" type="line"/>
      <point x="635" y="541" type="line"/>
      <point x="572" y="541" type="line"/>
      <point x="516" y="0" type="line"/>
      <point x="399" y="0" type="line"/>
      <point x="455" y="541" type="line"/>
      <point x="416" y="541" type="line"/>
      <point x="360" y="0" type="line"/>
      <point x="242" y="0" type="line"/>
      <point x="274" y="310" type="line"/>
      <point x="229" y="310" type="line" smooth="yes"/>
      <point x="125" y="310"/>
      <point x="45" y="352"/>
      <point x="45" y="463" type="curve" smooth="yes"/>
      <point x="45" y="567"/>
      <point x="128" y="650"/>
      <point x="271" y="650" type="curve" smooth="yes"/>
    </contour>
  </outline>
</glyph>
<glyph name="periodcentered" format="1">
  <advance width="227"/>
  <unicode hex="00B7"/>
  <outline>
    <contour>
      <point x="37" y="251" type="line"/>
      <point x="187" y="251" type="line"/>
      <point x="204" y="414" type="line"/>
      <point x="54" y="414" type="line"/>
    </contour>
  </outline>
</glyph>
<glyph name="cedilla" format="1">
  <advance width="251"/>
  <unicode hex="00B8"/>
  <outline>
    <contour>
      <point x="203" y="6" type="line"/>
      <point x="196" y="-41" type="line"/>
      <point x="204" y="-41" type="line" smooth="yes"/>
      <point x="263" y="-41"/>
      <point x="283" y="-76"/>
      <point x="283" y="-114" type="curve" smooth="yes"/>
      <point x="283" y="-185"/>
      <point x="211" y="-209"/>
      <point x="145" y="-209" type="curve" smooth="yes"/>
      <point x="98" y="-209"/>
      <point x="54" y="-197"/>
      <point x="35" y="-179" type="curve"/>
      <point x="64" y="-109" type="line"/>
      <point x="78" y="-119"/>
      <point x="103" y="-132"/>
      <point x="139" y="-132" type="curve" smooth="yes"/>
      <point x="168" y="-132"/>
      <point x="176" y="-124"/>
      <point x="176" y="-109" type="curve" smooth="yes"/>
      <point x="176" y="-96"/>
      <point x="170" y="-86"/>
      <point x="141" y="-86" type="curve" smooth="yes"/>
      <point x="105" y="-86" type="line"/>
      <point x="119" y="6" type="line"/>
    </contour>
  </outline>
</glyph>
<glyph name="ordmasculine" format="1">
  <advance width="342"/>
  <unicode hex="00BA"/>
  <outline>
    <contour>
      <point x="49" y="532" type="curve" smooth="yes"/>
      <point x="49" y="621"/>
      <point x="101" y="705"/>
      <point x="215" y="705" type="curve" smooth="yes"/>
      <point x="308" y="705"/>
      <point x="351" y="650"/>
      <point x="351" y="568" type="curve" smooth="yes"/>
      <point x="351" y="465"/>
      <point x="283" y="398"/>
      <point x="182" y="398" type="curve" smooth="yes"/>
      <point x="100" y="398"/>
      <point x="49" y="443"/>
    </contour>
    <contour>
      <point x="147" y="541" type="curve" smooth="yes"/>
      <point x="147" y="497"/>
      <point x="155" y="471"/>
      <point x="191" y="471" type="curve" smooth="yes"/>
      <point x="239" y="471"/>
      <point x="255" y="514"/>
      <point x="255" y="565" type="curve" smooth="yes"/>
      <point x="255" y="616"/>
      <point x="239" y="633"/>
      <point x="206" y="633" type="curve" smooth="yes"/>
      <point x="165" y="633"/>
      <point x="147" y="608"/>
    </contour>
    <contour>
      <point x="178" y="338" type="move" name="top"/>
    </contour>
  </outline>
</glyph>
<glyph name="guillemotright" format="1">
  <advance width="461"/>
  <unicode hex="00BB"/>
  <outline>
    <contour>
      <point x="274" y="25" type="line"/>
      <point x="436" y="271" type="line"/>
      <point x="325" y="511" type="line"/>
      <point x="221" y="511" type="line"/>
      <point x="310" y="271" type="line"/>
      <point x="170" y="25" type="line"/>
    </contour>
    <contour>
      <point x="108" y="25" type="line"/>
      <point x="269" y="271" type="line"/>
      <point x="159" y="511" type="line"/>
      <point x="54" y="511" type="line"/>
      <point x="144" y="271" type="line"/>
      <point x="3" y="25" type="line"/>
    </contour>
  </outline>
</glyph>
<glyph name="onequarter" format="1">
  <advance width="727"/>
  <unicode hex="00BC"/>
  <outline>
    <contour>
      <point x="519" y="0" type="line"/>
      <point x="617" y="0" type="line"/>
      <point x="626" y="90" type="line"/>
      <point x="677" y="90" type="line"/>
      <point x="692" y="159" type="line"/>
      <point x="633" y="159" type="line"/>
      <point x="655" y="364" type="line"/>
      <point x="489" y="364" type="line"/>
      <point x="365" y="163" type="line"/>
      <point x="367" y="90" type="line"/>
      <point x="528" y="90" type="line"/>
    </contour>
    <contour>
      <point x="618" y="650" type="line"/>
      <point x="397" y="325" type="line"/>
      <point x="185" y="0" type="line"/>
      <point x="99" y="0" type="line"/>
      <point x="328" y="337" type="line"/>
      <point x="532" y="650" type="line"/>
    </contour>
    <contour>
      <point x="44" y="361" type="line"/>
      <point x="115" y="361" type="line"/>
      <point x="137" y="575" type="line"/>
      <point x="66" y="575" type="line"/>
      <point x="74" y="650" type="line"/>
      <point x="244" y="650" type="line"/>
      <point x="214" y="361" type="line"/>
      <point x="278" y="361" type="line"/>
      <point x="270" y="286" type="line"/>
      <point x="36" y="286" type="line"/>
    </contour>
    <contour>
      <point x="525" y="289" type="line"/>
      <point x="549" y="289" type="line"/>
      <point x="535" y="159" type="line"/>
      <point x="447" y="159" type="line"/>
    </contour>
  </outline>
</glyph>
<glyph name="threequarters" format="1">
  <advance width="760"/>
  <unicode hex="00BE"/>
  <outline>
    <contour>
      <point x="552" y="0" type="line"/>
      <point x="650" y="0" type="line"/>
      <point x="659" y="90" type="line"/>
      <point x="710" y="90" type="line"/>
      <point x="725" y="159" type="line"/>
      <point x="666" y="159" type="line"/>
      <point x="688" y="364" type="line"/>
      <point x="522" y="364" type="line"/>
      <point x="398" y="163" type="line"/>
      <point x="400" y="90" type="line"/>
      <point x="561" y="90" type="line"/>
    </contour>
    <contour>
      <point x="141" y="534" type="line"/>
      <point x="154" y="575" type="line"/>
      <point x="169" y="583"/>
      <point x="182" y="585"/>
      <point x="194" y="585" type="curve" smooth="yes"/>
      <point x="222" y="585"/>
      <point x="232" y="575"/>
      <point x="232" y="554" type="curve" smooth="yes"/>
      <point x="232" y="514"/>
      <point x="198" y="510"/>
      <point x="161" y="508" type="curve"/>
      <point x="155" y="452" type="line"/>
      <point x="198" y="449"/>
      <point x="229" y="444"/>
      <point x="229" y="407" type="curve" smooth="yes"/>
      <point x="229" y="379"/>
      <point x="211" y="359"/>
      <point x="176" y="359" type="curve" smooth="yes"/>
      <point x="140" y="359"/>
      <point x="125" y="379"/>
      <point x="118" y="408" type="curve"/>
      <point x="43" y="383" type="line"/>
      <point x="49" y="311"/>
      <point x="108" y="284"/>
      <point x="180" y="284" type="curve" smooth="yes"/>
      <point x="274" y="284"/>
      <point x="335" y="330"/>
      <point x="335" y="401" type="curve" smooth="yes"/>
      <point x="335" y="440"/>
      <point x="316" y="472"/>
      <point x="272" y="484" type="curve"/>
      <point x="272" y="486" type="line"/>
      <point x="318" y="507"/>
      <point x="341" y="537"/>
      <point x="341" y="574" type="curve" smooth="yes"/>
      <point x="341" y="623"/>
      <point x="300" y="660"/>
      <point x="220" y="660" type="curve" smooth="yes"/>
      <point x="180" y="660"/>
      <point x="125" y="651"/>
      <point x="88" y="635" type="curve"/>
      <point x="66" y="540" type="line"/>
    </contour>
    <contour>
      <point x="646" y="650" type="line"/>
      <point x="425" y="325" type="line"/>
      <point x="213" y="0" type="line"/>
      <point x="127" y="0" type="line"/>
      <point x="356" y="337" type="line"/>
      <point x="560" y="650" type="line"/>
    </contour>
    <contour>
      <point x="558" y="289" type="line"/>
      <point x="582" y="289" type="line"/>
      <point x="568" y="159" type="line"/>
      <point x="480" y="159" type="line"/>
    </contour>
  </outline>
</glyph>
<glyph name="questiondown" format="1">
  <advance width="463"/>
  <unicode hex="00BF"/>
  <outline>
    <contour>
      <point x="305" y="-2" type="line"/>
      <point x="283" y="-73" type="line"/>
      <point x="261" y="-84"/>
      <point x="224" y="-88"/>
      <point x="201" y="-88" type="curve" smooth="yes"/>
      <point x="159" y="-88"/>
      <point x="131" y="-75"/>
      <point x="131" y="-40" type="curve" smooth="yes"/>
      <point x="131" y="54"/>
      <point x="335" y="29"/>
      <point x="335" y="165" type="curve" smooth="yes"/>
      <point x="335" y="235"/>
      <point x="282" y="263"/>
      <point x="167" y="249" type="curve"/>
      <point x="158" y="170" type="line"/>
      <point x="183" y="170"/>
      <point x="195" y="160"/>
      <point x="195" y="145" type="curve" smooth="yes"/>
      <point x="195" y="80"/>
      <point x="-16" y="77"/>
      <point x="-16" y="-69" type="curve" smooth="yes"/>
      <point x="-16" y="-156"/>
      <point x="60" y="-205"/>
      <point x="174" y="-205" type="curve" smooth="yes"/>
      <point x="217" y="-205"/>
      <point x="290" y="-198"/>
      <point x="368" y="-166" type="curve"/>
      <point x="405" y="-13" type="line"/>
    </contour>
    <contour>
      <point x="338" y="454" type="line"/>
      <point x="190" y="454" type="line"/>
      <point x="175" y="309" type="line"/>
      <point x="323" y="309" type="line"/>
    </contour>
  </outline>
</glyph>
<glyph name="Aacute" format="1">
  <advance width="660"/>
  <unicode hex="00C1"/>
  <outline>
    <contour>
      <point x="-5" y="114" type="line"/>
      <point x="52" y="114" type="line"/>
      <point x="274" y="536" type="line"/>
      <point x="188" y="536" type="line"/>
      <point x="200" y="650" type="line"/>
      <point x="414" y="650" type="line"/>
      <point x="583" y="114" type="line"/>
      <point x="642" y="114" type="line"/>
      <point x="630" y="0" type="line"/>
      <point x="382" y="0" type="line"/>
      <point x="394" y="114" type="line"/>
      <point x="444" y="114" type="line"/>
      <point x="427" y="180" type="line"/>
      <point x="215" y="180" type="line"/>
      <point x="183" y="114" type="line"/>
      <point x="241" y="114" type="line"/>
      <point x="229" y="0" type="line"/>
      <point x="-17" y="0" type="line"/>
    </contour>
    <contour>
      <point x="551" y="716" type="line"/>
      <point x="525" y="833" type="line"/>
      <point x="315" y="745" type="line"/>
      <point x="328" y="688" type="line"/>
    </contour>
    <contour>
      <point x="351" y="459" type="line"/>
      <point x="262" y="276" type="line"/>
      <point x="403" y="276" type="line"/>
      <point x="357" y="459" type="line"/>
    </contour>
  </outline>
</glyph>
<glyph name="Atilde" format="1">
  <advance width="660"/>
  <unicode hex="00C3"/>
  <outline>
    <contour>
      <point x="-5" y="114" type="line"/>
      <point x="52" y="114" type="line"/>
      <point x="274" y="536" type="line"/>
      <point x="188" y="536" type="line"/>
      <point x="200" y="650" type="line"/>
      <point x="414" y="650" type="line"/>
      <point x="583" y="114" type="line"/>
      <point x="642" y="114" type="line"/>
      <point x="630" y="0" type="line"/>
      <point x="382" y="0" type="line"/>
      <point x="394" y="114" type="line"/>
      <point x="444" y="114" type="line"/>
      <point x="427" y="180" type="line"/>
      <point x="215" y="180" type="line"/>
      <point x="183" y="114" type="line"/>
      <point x="241" y="114" type="line"/>
      <point x="229" y="0" type="line"/>
      <point x="-17" y="0" type="line"/>
    </contour>
    <contour>
      <point x="257" y="698" type="line"/>
      <point x="267" y="724"/>
      <point x="281" y="731"/>
      <point x="302" y="731" type="curve" smooth="yes"/>
      <point x="347" y="731"/>
      <point x="375" y="700"/>
      <point x="423" y="700" type="curve" smooth="yes"/>
      <point x="490" y="700"/>
      <point x="512" y="762"/>
      <point x="518" y="820" type="curve"/>
      <point x="466" y="831" type="line"/>
      <point x="454" y="802"/>
      <point x="434" y="793"/>
      <point x="415" y="793" type="curve" smooth="yes"/>
      <point x="382" y="793"/>
      <point x="350" y="824"/>
      <point x="306" y="824" type="curve" smooth="yes"/>
      <point x="240" y="824"/>
      <point x="211" y="751"/>
      <point x="210" y="714" type="curve"/>
    </contour>
    <contour>
      <point x="351" y="459" type="line"/>
      <point x="262" y="276" type="line"/>
      <point x="403" y="276" type="line"/>
      <point x="357" y="459" type="line"/>
    </contour>
  </outline>
</glyph>
<glyph name="Aring" format="1">
  <advance width="660"/>
  <unicode hex="00C5"/>
  <outline>
    <contour>
      <point x="-5" y="114" type="line"/>
      <point x="52" y="114" type="line"/>
      <point x="274" y="536" type="line"/>
      <point x="188" y="536" type="line"/>
      <point x="200" y="650" type="line"/>
      <point x="414" y="650" type="line"/>
      <point x="583" y="114" type="line"/>
      <point x="642" y="114" type="line"/>
      <point x="630" y="0" type="line"/>
      <point x="382" y="0" type="line"/>
      <point x="394" y="114" type="line"/>
      <point x="444" y="114" type="line"/>
      <point x="427" y="180" type="line"/>
      <point x="215" y="180" type="line"/>
      <point x="183" y="114" type="line"/>
      <point x="241" y="114" type="line"/>
      <point x="229" y="0" type="line"/>
      <point x="-17" y="0" type="line"/>
    </contour>
    <contour>
      <point x="372" y="689" type="curve" smooth="yes"/>
      <point x="450" y="689"/>
      <point x="486" y="736"/>
      <point x="486" y="792" type="curve" smooth="yes"/>
      <point x="486" y="841"/>
      <point x="459" y="873"/>
      <point x="393" y="873" type="curve" smooth="yes"/>
      <point x="317" y="873"/>
      <point x="279" y="830"/>
      <point x="279" y="771" type="curve" smooth="yes"/>
      <point x="279" y="719"/>
      <point x="309" y="689"/>
    </contour>
    <contour>
      <point x="351" y="459" type="line"/>
      <point x="262" y="276" type="line"/>
      <point x="403" y="276" type="line"/>
      <point x="357" y="459" type="line"/>
    </contour>
    <contour>
      <point x="378" y="749" type="curve" smooth="yes"/>
      <point x="360" y="749"/>
      <point x="358" y="759"/>
      <point x="358" y="773" type="curve" smooth="yes"/>
      <point x="358" y="801"/>
      <point x="366" y="813"/>
      <point x="386" y="813" type="curve" smooth="yes"/>
      <point x="405" y="813"/>
      <point x="408" y="802"/>
      <point x="408" y="788" type="curve" smooth="yes"/>
      <point x="408" y="763"/>
      <point x="399" y="749"/>
    </contour>
  </outline>
</glyph>
<glyph name="Eacute" format="1">
  <advance width="569"/>
  <unicode hex="00C9"/>
  <outline>
    <contour>
      <point x="515" y="716" type="line"/>
      <point x="489" y="833" type="line"/>
      <point x="279" y="745" type="line"/>
      <point x="292" y="688" type="line"/>
    </contour>
    <contour>
      <point x="497" y="0" type="line"/>
      <point x="8" y="0" type="line"/>
      <point x="20" y="114" type="line"/>
      <point x="89" y="114" type="line"/>
      <point x="133" y="536" type="line"/>
      <point x="64" y="536" type="line"/>
      <point x="76" y="650" type="line"/>
      <point x="559" y="650" type="line"/>
      <point x="559" y="460" type="line"/>
      <point x="449" y="450" type="line"/>
      <point x="439" y="536" type="line"/>
      <point x="261" y="536" type="line"/>
      <point x="245" y="383" type="line"/>
      <point x="517" y="383" type="line"/>
      <point x="505" y="270" type="line"/>
      <point x="233" y="270" type="line"/>
      <point x="217" y="114" type="line"/>
      <point x="400" y="114" type="line"/>
      <point x="429" y="200" type="line"/>
      <point x="537" y="190" type="line"/>
    </contour>
  </outline>
</glyph>
<glyph name="Idieresis" format="1">
  <advance width="339"/>
  <unicode hex="00CF"/>
  <outline>
    <contour>
      <point x="21" y="114" type="line"/>
      <point x="88" y="114" type="line"/>
      <point x="132" y="536" type="line"/>
      <point x="65" y="536" type="line"/>
      <point x="77" y="650" type="line"/>
      <point x="340" y="650" type="line"/>
      <point x="328" y="536" type="line"/>
      <point x="260" y="536" type="line"/>
      <point x="216" y="114" type="line"/>
      <point x="284" y="114" type="line"/>
      <point x="272" y="0" type="line"/>
      <point x="9" y="0" type="line"/>
    </contour>
    <contour>
      <point x="240" y="705" type="line"/>
      <point x="367" y="705" type="line"/>
      <point x="381" y="839" type="line"/>
      <point x="254" y="839" type="line"/>
    </contour>
    <contour>
      <point x="59" y="705" type="line"/>
      <point x="186" y="705" type="line"/>
      <point x="200" y="839" type="line"/>
      <point x="73" y="839" type="line"/>
    </contour>
  </outline>
</glyph>
<glyph name="Ntilde" format="1">
  <advance width="732"/>
  <unicode hex="00D1"/>
  <outline>
    <contour>
      <point x="23" y="114" type="line"/>
      <point x="91" y="114" type="line"/>
      <point x="135" y="536" type="line"/>
      <point x="57" y="536" type="line"/>
      <point x="69" y="650" type="line"/>
      <point x="239" y="650" type="line"/>
      <point x="514" y="264" type="line"/>
      <point x="517" y="264" type="line"/>
      <point x="545" y="536" type="line"/>
      <point x="455" y="536" type="line"/>
      <point x="467" y="650" type="line"/>
      <point x="745" y="650" type="line"/>
      <point x="733" y="536" type="line"/>
      <point x="665" y="536" type="line"/>
      <point x="609" y="0" type="line"/>
      <point x="537" y="-1" type="line"/>
      <point x="245" y="412" type="line"/>
      <point x="242" y="412" type="line"/>
      <point x="211" y="114" type="line"/>
      <point x="297" y="114" type="line"/>
      <point x="285" y="0" type="line"/>
      <point x="11" y="0" type="line"/>
    </contour>
    <contour>
      <point x="294" y="698" type="line"/>
      <point x="304" y="724"/>
      <point x="318" y="731"/>
      <point x="339" y="731" type="curve" smooth="yes"/>
      <point x="384" y="731"/>
      <point x="412" y="700"/>
      <point x="460" y="700" type="curve" smooth="yes"/>
      <point x="527" y="700"/>
      <point x="549" y="762"/>
      <point x="555" y="820" type="curve"/>
      <point x="503" y="831" type="line"/>
      <point x="491" y="802"/>
      <point x="471" y="793"/>
      <point x="452" y="793" type="curve" smooth="yes"/>
      <point x="419" y="793"/>
      <point x="387" y="824"/>
      <point x="343" y="824" type="curve" smooth="yes"/>
      <point x="277" y="824"/>
      <point x="248" y="751"/>
      <point x="247" y="714" type="curve"/>
    </contour>
  </outline>
</glyph>
<glyph name="Ocircumflex" format="1">
  <advance width="686"/>
  <unicode hex="00D4"/>
  <outline>
    <contour>
      <point x="382" y="660" type="curve" smooth="yes"/>
      <point x="181" y="660"/>
      <point x="27" y="496"/>
      <point x="27" y="290" type="curve" smooth="yes"/>
      <point x="27" y="126"/>
      <point x="125" y="-10"/>
      <point x="311" y="-10" type="curve" smooth="yes"/>
      <point x="520" y="-10"/>
      <point x="670" y="161"/>
      <point x="670" y="360" type="curve" smooth="yes"/>
      <point x="670" y="526"/>
      <point x="564" y="660"/>
    </contour>
    <contour>
      <point x="331" y="108" type="curve" smooth="yes"/>
      <point x="210" y="108"/>
      <point x="167" y="203"/>
      <point x="167" y="302" type="curve" smooth="yes"/>
      <point x="167" y="433"/>
      <point x="243" y="542"/>
      <point x="368" y="542" type="curve" smooth="yes"/>
      <point x="467" y="542"/>
      <point x="530" y="473"/>
      <point x="530" y="350" type="curve" smooth="yes"/>
      <point x="530" y="227"/>
      <point x="466" y="108"/>
    </contour>
    <contour>
      <point x="436" y="844" type="line"/>
      <point x="392" y="844" type="line"/>
      <point x="247" y="737" type="line"/>
      <point x="271" y="685" type="line"/>
      <point x="400" y="745" type="line"/>
      <point x="525" y="685" type="line"/>
      <point x="558" y="737" type="line"/>
    </contour>
  </outline>
</glyph>
<glyph name="Uacute" format="1">
  <advance width="690"/>
  <unicode hex="00DA"/>
  <outline>
    <contour>
      <point x="454" y="650" type="line"/>
      <point x="703" y="650" type="line"/>
      <point x="691" y="536" type="line"/>
      <point x="635" y="536" type="line"/>
      <point x="607" y="269" type="line" smooth="yes"/>
      <point x="592" y="131"/>
      <point x="520" y="-10"/>
      <point x="320" y="-10" type="curve" smooth="yes"/>
      <point x="130" y="-10"/>
      <point x="65" y="118"/>
      <point x="80" y="258" type="curve" smooth="yes"/>
      <point x="109" y="536" type="line"/>
      <point x="54" y="536" type="line"/>
      <point x="66" y="650" type="line"/>
      <point x="323" y="650" type="line"/>
      <point x="311" y="536" type="line"/>
      <point x="238" y="536" type="line"/>
      <point x="209" y="262" type="line" smooth="yes"/>
      <point x="200" y="173"/>
      <point x="230" y="108"/>
      <point x="330" y="108" type="curve" smooth="yes"/>
      <point x="428" y="108"/>
      <point x="477" y="172"/>
      <point x="487" y="269" type="curve" smooth="yes"/>
      <point x="515" y="536" type="line"/>
      <point x="442" y="536" type="line"/>
    </contour>
    <contour>
      <point x="566" y="716" type="line"/>
      <point x="540" y="833" type="line"/>
      <point x="330" y="745" type="line"/>
      <point x="343" y="688" type="line"/>
    </contour>
  </outline>
</glyph>
<glyph name="Ucircumflex" format="1">
  <advance width="690"/>
  <unicode hex="00DB"/>
  <outline>
    <contour>
      <point x="454" y="650" type="line"/>
      <point x="703" y="650" type="line"/>
      <point x="691" y="536" type="line"/>
      <point x="635" y="536" type="line"/>
      <point x="607" y="269" type="line" smooth="yes"/>
      <point x="592" y="131"/>
      <point x="520" y="-10"/>
      <point x="320" y="-10" type="curve" smooth="yes"/>
      <point x="130" y="-10"/>
      <point x="65" y="118"/>
      <point x="80" y="258" type="curve" smooth="yes"/>
      <point x="109" y="536" type="line"/>
      <point x="54" y="536" type="line"/>
      <point x="66" y="650" type="line"/>
      <point x="323" y="650" type="line"/>
      <point x="311" y="536" type="line"/>
      <point x="238" y="536" type="line"/>
      <point x="209" y="262" type="line" smooth="yes"/>
      <point x="200" y="173"/>
      <point x="230" y="108"/>
      <point x="330" y="108" type="curve" smooth="yes"/>
      <point x="428" y="108"/>
      <point x="477" y="172"/>
      <point x="487" y="269" type="curve" smooth="yes"/>
      <point x="515" y="536" type="line"/>
      <point x="442" y="536" type="line"/>
    </contour>
    <contour>
      <point x="427" y="844" type="line"/>
      <point x="383" y="844" type="line"/>
      <point x="238" y="737" type="line"/>
      <point x="262" y="685" type="line"/>
      <point x="391" y="745" type="line"/>
      <point x="516" y="685" type="line"/>
      <point x="549" y="737" type="line"/>
    </contour>
  </outline>
</glyph>
<glyph name="Thorn" format="1">
  <advance width="571"/>
  <unicode hex="00DE"/>
  <outline>
    <contour>
      <point x="21" y="114" type="line"/>
      <point x="88" y="114" type="line"/>
      <point x="132" y="536" type="line"/>
      <point x="65" y="536" type="line"/>
      <point x="77" y="650" type="line"/>
      <point x="340" y="650" type="line"/>
      <point x="328" y="536" type="line"/>
      <point x="260" y="536" type="line"/>
      <point x="258" y="515" type="line"/>
      <point x="344" y="515" type="line" smooth="yes"/>
      <point x="489" y="515"/>
      <point x="568" y="462"/>
      <point x="568" y="354" type="curve" smooth="yes"/>
      <point x="568" y="201"/>
      <point x="446" y="143"/>
      <point x="310" y="143" type="curve" smooth="yes"/>
      <point x="219" y="143" type="line"/>
      <point x="216" y="114" type="line"/>
      <point x="284" y="114" type="line"/>
      <point x="272" y="0" type="line"/>
      <point x="9" y="0" type="line"/>
    </contour>
    <contour>
      <point x="294" y="226" type="line" smooth="yes"/>
      <point x="395" y="226"/>
      <point x="426" y="277"/>
      <point x="426" y="345" type="curve" smooth="yes"/>
      <point x="426" y="400"/>
      <point x="397" y="431"/>
      <point x="318" y="431" type="curve" smooth="yes"/>
      <point x="249" y="431" type="line"/>
      <point x="227" y="226" type="line"/>
    </contour>
  </outline>
</glyph>
<glyph name="agrave" format="1">
  <advance width="521"/>
  <unicode hex="00E0"/>
  <outline>
    <contour>
      <point x="491" y="451" type="line"/>
      <point x="474" y="397"/>
      <point x="461" y="345"/>
      <point x="454" y="291" type="curve" smooth="yes"/>
      <point x="430" y="98" type="line"/>
      <point x="488" y="98" type="line"/>
      <point x="479" y="25" type="line"/>
      <point x="449" y="0" type="line"/>
      <point x="314" y="0" type="line"/>
      <point x="310" y="92" type="line"/>
      <point x="282" y="36"/>
      <point x="235" y="-10"/>
      <point x="162" y="-10" type="curve" smooth="yes"/>
      <point x="63" y="-10"/>
      <point x="14" y="75"/>
      <point x="14" y="183" type="curve" smooth="yes"/>
      <point x="14" y="305"/>
      <point x="77" y="460"/>
      <point x="222" y="460" type="curve" smooth="yes"/>
      <point x="289" y="460"/>
      <point x="332" y="427"/>
      <point x="350" y="376" type="curve"/>
      <point x="356" y="401"/>
      <point x="362" y="426"/>
      <point x="371" y="451" type="curve"/>
    </contour>
    <contour>
      <point x="242" y="362" type="curve" smooth="yes"/>
      <point x="178" y="362"/>
      <point x="148" y="282"/>
      <point x="148" y="198" type="curve" smooth="yes"/>
      <point x="148" y="129"/>
      <point x="168" y="88"/>
      <point x="212" y="88" type="curve" smooth="yes"/>
      <point x="266" y="88"/>
      <point x="308" y="152"/>
      <point x="320" y="210" type="curve"/>
      <point x="324" y="244" type="line" smooth="yes"/>
      <point x="332" y="319"/>
      <point x="289" y="362"/>
    </contour>
    <contour>
      <point x="324" y="508" type="line"/>
      <point x="353" y="557" type="line"/>
      <point x="179" y="700" type="line"/>
      <point x="120" y="600" type="line"/>
    </contour>
  </outline>
</glyph>
<glyph name="aring" format="1">
  <advance width="521"/>
  <unicode hex="00E5"/>
  <outline>
    <contour>
      <point x="491" y="451" type="line"/>
      <point x="474" y="397"/>
      <point x="461" y="345"/>
      <point x="454" y="291" type="curve" smooth="yes"/>
      <point x="430" y="98" type="line"/>
      <point x="488" y="98" type="line"/>
      <point x="479" y="25" type="line"/>
      <point x="449" y="0" type="line"/>
      <point x="314" y="0" type="line"/>
      <point x="310" y="92" type="line"/>
      <point x="282" y="36"/>
      <point x="235" y="-10"/>
      <point x="162" y="-10" type="curve" smooth="yes"/>
      <point x="63" y="-10"/>
      <point x="14" y="75"/>
      <point x="14" y="183" type="curve" smooth="yes"/>
      <point x="14" y="305"/>
      <point x="77" y="460"/>
      <point x="222" y="460" type="curve" smooth="yes"/>
      <point x="289" y="460"/>
      <point x="332" y="427"/>
      <point x="350" y="376" type="curve"/>
      <point x="356" y="401"/>
      <point x="362" y="426"/>
      <point x="371" y="451" type="curve"/>
    </contour>
    <contour>
      <point x="242" y="362" type="curve" smooth="yes"/>
      <point x="178" y="362"/>
      <point x="148" y="282"/>
      <point x="148" y="198" type="curve" smooth="yes"/>
      <point x="148" y="129"/>
      <point x="168" y="88"/>
      <point x="212" y="88" type="curve" smooth="yes"/>
      <point x="266" y="88"/>
      <point x="308" y="152"/>
      <point x="320" y="210" type="curve"/>
      <point x="324" y="244" type="line" smooth="yes"/>
      <point x="332" y="319"/>
      <point x="289" y="362"/>
    </contour>
    <contour>
      <point x="302" y="514" type="curve" smooth="yes"/>
      <point x="380" y="514"/>
      <point x="416" y="561"/>
      <point x="416" y="617" type="curve" smooth="yes"/>
      <point x="416" y="666"/>
      <point x="389" y="698"/>
      <point x="323" y="698" type="curve" smooth="yes"/>
      <point x="247" y="698"/>
      <point x="209" y="655"/>
      <point x="209" y="596" type="curve" smooth="yes"/>
      <point x="209" y="544"/>
      <point x="239" y="514"/>
    </contour>
    <contour>
      <point x="308" y="574" type="curve" smooth="yes"/>
      <point x="291" y="574"/>
      <point x="288" y="582"/>
      <point x="288" y="599" type="curve" smooth="yes"/>
      <point x="288" y="626"/>
      <point x="296" y="638"/>
      <point x="316" y="638" type="curve" smooth="yes"/>
      <point x="335" y="638"/>
      <point x="338" y="627"/>
      <point x="338" y="613" type="curve" smooth="yes"/>
      <point x="338" y="584"/>
      <point x="326" y="574"/>
    </contour>
  </outline>
</glyph>
<glyph name="edieresis" format="1">
  <advance width="444"/>
  <unicode hex="00EB"/>
  <outline>
    <contour>
      <point x="227" y="88" type="curve" smooth="yes"/>
      <point x="295" y="88"/>
      <point x="306" y="139"/>
      <point x="313" y="162" type="curve"/>
      <point x="414" y="142" type="line"/>
      <point x="400" y="63"/>
      <point x="327" y="-10"/>
      <point x="208" y="-10" type="curve" smooth="yes"/>
      <point x="101" y="-10"/>
      <point x="14" y="50"/>
      <point x="14" y="192" type="curve" smooth="yes"/>
      <point x="14" y="336"/>
      <point x="104" y="460"/>
      <point x="258" y="460" type="curve" smooth="yes"/>
      <point x="354" y="460"/>
      <point x="422" y="410"/>
      <point x="422" y="336" type="curve" smooth="yes"/>
      <point x="422" y="269"/>
      <point x="382" y="221"/>
      <point x="261" y="196" type="curve" smooth="yes"/>
      <point x="229" y="189"/>
      <point x="192" y="183"/>
      <point x="149" y="179" type="curve"/>
      <point x="153" y="121"/>
      <point x="173" y="88"/>
    </contour>
    <contour>
      <point x="308" y="531" type="line"/>
      <point x="435" y="531" type="line"/>
      <point x="449" y="665" type="line"/>
      <point x="322" y="665" type="line"/>
    </contour>
    <contour>
      <point x="127" y="531" type="line"/>
      <point x="253" y="531" type="line"/>
      <point x="267" y="665" type="line"/>
      <point x="141" y="665" type="line"/>
    </contour>
    <contour>
      <point x="196" y="261" type="curve" smooth="yes"/>
      <point x="276" y="276"/>
      <point x="292" y="301"/>
      <point x="292" y="328" type="curve" smooth="yes"/>
      <point x="292" y="361"/>
      <point x="267" y="373"/>
      <point x="241" y="373" type="curve" smooth="yes"/>
      <point x="185" y="373"/>
      <point x="160" y="315"/>
      <point x="152" y="254" type="curve"/>
      <point x="168" y="256"/>
      <point x="183" y="258"/>
    </contour>
  </outline>
</glyph>
<glyph name="igrave" format="1">
  <advance width="274"/>
  <unicode hex="00EC"/>
  <outline>
    <contour>
      <point x="32" y="424" type="line"/>
      <point x="63" y="451" type="line"/>
      <point x="222" y="451" type="line"/>
      <point x="179" y="98" type="line"/>
      <point x="236" y="98" type="line"/>
      <point x="227" y="25" type="line"/>
      <point x="197" y="0" type="line"/>
      <point x="43" y="0" type="line"/>
      <point x="86" y="353" type="line"/>
      <point x="23" y="353" type="line"/>
    </contour>
    <contour>
      <point x="214" y="508" type="line"/>
      <point x="243" y="557" type="line"/>
      <point x="69" y="700" type="line"/>
      <point x="10" y="600" type="line"/>
    </contour>
  </outline>
</glyph>
<glyph name="iacute" format="1">
  <advance width="274"/>
  <unicode hex="00ED"/>
  <outline>
    <contour>
      <point x="32" y="424" type="line"/>
      <point x="63" y="451" type="line"/>
      <point x="222" y="451" type="line"/>
      <point x="179" y="98" type="line"/>
      <point x="236" y="98" type="line"/>
      <point x="227" y="25" type="line"/>
      <point x="197" y="0" type="line"/>
      <point x="43" y="0" type="line"/>
      <point x="86" y="353" type="line"/>
      <point x="23" y="353" type="line"/>
    </contour>
    <contour>
      <point x="317" y="600" type="line"/>
      <point x="258" y="700" type="line"/>
      <point x="84" y="557" type="line"/>
      <point x="113" y="508" type="line"/>
    </contour>
  </outline>
</glyph>
<glyph name="icircumflex" format="1">
  <advance width="274"/>
  <unicode hex="00EE"/>
  <outline>
    <contour>
      <point x="32" y="424" type="line"/>
      <point x="63" y="451" type="line"/>
      <point x="222" y="451" type="line"/>
      <point x="179" y="98" type="line"/>
      <point x="236" y="98" type="line"/>
      <point x="227" y="25" type="line"/>
      <point x="197" y="0" type="line"/>
      <point x="43" y="0" type="line"/>
      <point x="86" y="353" type="line"/>
      <point x="23" y="353" type="line"/>
    </contour>
    <contour>
      <point x="203" y="684" type="line"/>
      <point x="159" y="684" type="line"/>
      <point x="11" y="555" type="line"/>
      <point x="43" y="507" type="line"/>
      <point x="166" y="577" type="line"/>
      <point x="285" y="508" type="line"/>
      <point x="325" y="555" type="line"/>
    </contour>
  </outline>
</glyph>
<glyph name="idieresis" format="1">
  <advance width="274"/>
  <unicode hex="00EF"/>
  <outline>
    <contour>
      <point x="32" y="424" type="line"/>
      <point x="63" y="451" type="line"/>
      <point x="222" y="451" type="line"/>
      <point x="179" y="98" type="line"/>
      <point x="236" y="98" type="line"/>
      <point x="227" y="25" type="line"/>
      <point x="197" y="0" type="line"/>
      <point x="43" y="0" type="line"/>
      <point x="86" y="353" type="line"/>
      <point x="23" y="353" type="line"/>
    </contour>
    <contour>
      <point x="188" y="531" type="line"/>
      <point x="315" y="531" type="line"/>
      <point x="329" y="665" type="line"/>
      <point x="202" y="665" type="line"/>
    </contour>
    <contour>
      <point x="7" y="531" type="line"/>
      <point x="133" y="531" type="line"/>
      <point x="147" y="665" type="line"/>
      <point x="21" y="665" type="line"/>
    </contour>
  </outline>
</glyph>
<glyph name="eth" format="1">
  <advance width="492"/>
  <unicode hex="00F0"/>
  <outline>
    <contour>
      <point x="111" y="510" type="line"/>
      <point x="160" y="574" type="line"/>
      <point x="144" y="584"/>
      <point x="126" y="594"/>
      <point x="107" y="604" type="curve"/>
      <point x="171" y="698" type="line"/>
      <point x="191" y="688"/>
      <point x="211" y="677"/>
      <point x="231" y="665" type="curve"/>
      <point x="272" y="718" type="line"/>
      <point x="336" y="678" type="line"/>
      <point x="294" y="623" type="line"/>
      <point x="392" y="549"/>
      <point x="466" y="444"/>
      <point x="466" y="293" type="curve" smooth="yes"/>
      <point x="466" y="139"/>
      <point x="390" y="-10"/>
      <point x="212" y="-10" type="curve" smooth="yes"/>
      <point x="88" y="-10"/>
      <point x="15" y="63"/>
      <point x="15" y="197" type="curve" smooth="yes"/>
      <point x="15" y="351"/>
      <point x="112" y="460"/>
      <point x="239" y="460" type="curve" smooth="yes"/>
      <point x="262" y="460"/>
      <point x="282" y="456"/>
      <point x="300" y="448" type="curve"/>
      <point x="282" y="481"/>
      <point x="256" y="508"/>
      <point x="223" y="533" type="curve"/>
      <point x="173" y="468" type="line"/>
    </contour>
    <contour>
      <point x="245" y="362" type="curve" smooth="yes"/>
      <point x="175" y="362"/>
      <point x="152" y="299"/>
      <point x="152" y="204" type="curve" smooth="yes"/>
      <point x="152" y="141"/>
      <point x="162" y="88"/>
      <point x="223" y="88" type="curve" smooth="yes"/>
      <point x="294" y="88"/>
      <point x="316" y="158"/>
      <point x="324" y="220" type="curve" smooth="yes"/>
      <point x="326" y="234"/>
      <point x="327" y="247"/>
      <point x="328" y="260" type="curve" smooth="yes"/>
      <point x="330" y="315"/>
      <point x="305" y="362"/>
    </contour>
  </outline>
</glyph>
<glyph name="ograve" format="1">
  <advance width="484"/>
  <unicode hex="00F2"/>
  <outline>
    <contour>
      <point x="15" y="194" type="curve" smooth="yes"/>
      <point x="15" y="331"/>
      <point x="93" y="460"/>
      <point x="260" y="460" type="curve" smooth="yes"/>
      <point x="398" y="460"/>
      <point x="459" y="373"/>
      <point x="459" y="251" type="curve" smooth="yes"/>
      <point x="459" y="95"/>
      <point x="359" y="-10"/>
      <point x="211" y="-10" type="curve" smooth="yes"/>
      <point x="88" y="-10"/>
      <point x="15" y="62"/>
    </contour>
    <contour>
      <point x="150" y="205" type="curve" smooth="yes"/>
      <point x="150" y="133"/>
      <point x="164" y="88"/>
      <point x="223" y="88" type="curve" smooth="yes"/>
      <point x="299" y="88"/>
      <point x="326" y="161"/>
      <point x="326" y="247" type="curve" smooth="yes"/>
      <point x="326" y="328"/>
      <point x="302" y="362"/>
      <point x="247" y="362" type="curve" smooth="yes"/>
      <point x="181" y="362"/>
      <point x="150" y="312"/>
    </contour>
    <contour>
      <point x="310" y="508" type="line"/>
      <point x="339" y="557" type="line"/>
      <point x="165" y="700" type="line"/>
      <point x="106" y="600" type="line"/>
    </contour>
  </outline>
</glyph>
<glyph name="ocircumflex" format="1">
  <advance width="484"/>
  <unicode hex="00F4"/>
  <outline>
    <contour>
      <point x="299" y="684" type="line"/>
      <point x="255" y="684" type="line"/>
      <point x="107" y="555" type="line"/>
      <point x="139" y="507" type="line"/>
      <point x="262" y="577" type="line"/>
      <point x="381" y="508" type="line"/>
      <point x="421" y="555" type="line"/>
    </contour>
    <contour>
      <point x="15" y="194" type="curve" smooth="yes"/>
      <point x="15" y="331"/>
      <point x="93" y="460"/>
      <point x="260" y="460" type="curve" smooth="yes"/>
      <point x="398" y="460"/>
      <point x="459" y="373"/>
      <point x="459" y="251" type="curve" smooth="yes"/>
      <point x="459" y="95"/>
      <point x="359" y="-10"/>
      <point x="211" y="-10" type="curve" smooth="yes"/>
      <point x="88" y="-10"/>
      <point x="15" y="62"/>
    </contour>
    <contour>
      <point x="150" y="205" type="curve" smooth="yes"/>
      <point x="150" y="133"/>
      <point x="164" y="88"/>
      <point x="223" y="88" type="curve" smooth="yes"/>
      <point x="299" y="88"/>
      <point x="326" y="161"/>
      <point x="326" y="247" type="curve" smooth="yes"/>
      <point x="326" y="328"/>
      <point x="302" y="362"/>
      <point x="247" y="362" type="curve" smooth="yes"/>
      <point x="181" y="362"/>
      <point x="150" y="312"/>
    </contour>
  </outline>
</glyph>
<glyph name="otilde" format="1">
  <advance width="484"/>
  <unicode hex="00F5"/>
  <outline>
    <contour>
      <point x="15" y="194" type="curve" smooth="yes"/>
      <point x="15" y="331"/>
      <point x="93" y="460"/>
      <point x="260" y="460" type="curve" smooth="yes"/>
      <point x="398" y="460"/>
      <point x="459" y="373"/>
      <point x="459" y="251" type="curve" smooth="yes"/>
      <point x="459" y="95"/>
      <point x="359" y="-10"/>
      <point x="211" y="-10" type="curve" smooth="yes"/>
      <point x="88" y="-10"/>
      <point x="15" y="62"/>
    </contour>
    <contour>
      <point x="150" y="205" type="curve" smooth="yes"/>
      <point x="150" y="133"/>
      <point x="164" y="88"/>
      <point x="223" y="88" type="curve" smooth="yes"/>
      <point x="299" y="88"/>
      <point x="326" y="161"/>
      <point x="326" y="247" type="curve" smooth="yes"/>
      <point x="326" y="328"/>
      <point x="302" y="362"/>
      <point x="247" y="362" type="curve" smooth="yes"/>
      <point x="181" y="362"/>
      <point x="150" y="312"/>
    </contour>
    <contour>
      <point x="161" y="515" type="line"/>
      <point x="172" y="544"/>
      <point x="188" y="558"/>
      <point x="210" y="558" type="curve" smooth="yes"/>
      <point x="249" y="558"/>
      <point x="279" y="517"/>
      <point x="329" y="517" type="curve" smooth="yes"/>
      <point x="394" y="517"/>
      <point x="417" y="589"/>
      <point x="423" y="647" type="curve"/>
      <point x="371" y="658" type="line"/>
      <point x="359" y="629"/>
      <point x="340" y="617"/>
      <point x="321" y="617" type="curve" smooth="yes"/>
      <point x="288" y="617"/>
      <point x="255" y="655"/>
      <point x="211" y="655" type="curve" smooth="yes"/>
      <point x="146" y="655"/>
      <point x="115" y="569"/>
      <point x="114" y="531" type="curve"/>
    </contour>
  </outline>
</glyph>
<glyph name="odieresis" format="1">
  <advance width="484"/>
  <unicode hex="00F6"/>
  <outline>
    <contour>
      <point x="120" y="531" type="line"/>
      <point x="246" y="531" type="line"/>
      <point x="260" y="665" type="line"/>
      <point x="134" y="665" type="line"/>
    </contour>
    <contour>
      <point x="301" y="531" type="line"/>
      <point x="428" y="531" type="line"/>
      <point x="442" y="665" type="line"/>
      <point x="315" y="665" type="line"/>
    </contour>
    <contour>
      <point x="15" y="194" type="curve" smooth="yes"/>
      <point x="15" y="331"/>
      <point x="93" y="460"/>
      <point x="260" y="460" type="curve" smooth="yes"/>
      <point x="398" y="460"/>
      <point x="459" y="373"/>
      <point x="459" y="251" type="curve" smooth="yes"/>
      <point x="459" y="95"/>
      <point x="359" y="-10"/>
      <point x="211" y="-10" type="curve" smooth="yes"/>
      <point x="88" y="-10"/>
      <point x="15" y="62"/>
    </contour>
    <contour>
      <point x="150" y="205" type="curve" smooth="yes"/>
      <point x="150" y="133"/>
      <point x="164" y="88"/>
      <point x="223" y="88" type="curve" smooth="yes"/>
      <point x="299" y="88"/>
      <point x="326" y="161"/>
      <point x="326" y="247" type="curve" smooth="yes"/>
      <point x="326" y="328"/>
      <point x="302" y="362"/>
      <point x="247" y="362" type="curve" smooth="yes"/>
      <point x="181" y="362"/>
      <point x="150" y="312"/>
    </contour>
  </outline>
</glyph>
<glyph name="divide" format="1">
  <advance width="396"/>
  <unicode hex="00F7"/>
  <outline>
    <contour>
      <point x="24" y="237" type="line"/>
      <point x="364" y="237" type="line"/>
      <point x="373" y="325" type="line"/>
      <point x="33" y="325" type="line"/>
    </contour>
    <contour>
      <point x="100" y="39" type="line"/>
      <point x="250" y="39" type="line"/>
      <point x="267" y="202" type="line"/>
      <point x="117" y="202" type="line"/>
    </contour>
    <contour>
      <point x="134" y="361" type="line"/>
      <point x="284" y="361" type="line"/>
      <point x="301" y="524" type="line"/>
      <point x="151" y="524" type="line"/>
    </contour>
  </outline>
</glyph>
<glyph name="oslash" format="1">
  <advance width="482"/>
  <unicode hex="00F8"/>
  <outline>
    <contour>
      <point x="13" y="194" type="curve" smooth="yes"/>
      <point x="13" y="331"/>
      <point x="91" y="460"/>
      <point x="258" y="460" type="curve" smooth="yes"/>
      <point x="299" y="460"/>
      <point x="334" y="452"/>
      <point x="362" y="438" type="curve"/>
      <point x="373" y="451" type="line"/>
      <point x="457" y="451" type="line"/>
      <point x="413" y="396" type="line"/>
      <point x="443" y="360"/>
      <point x="457" y="309"/>
      <point x="457" y="251" type="curve" smooth="yes"/>
      <point x="457" y="95"/>
      <point x="357" y="-10"/>
      <point x="209" y="-10" type="curve" smooth="yes"/>
      <point x="168" y="-10"/>
      <point x="133" y="-2"/>
      <point x="104" y="13" type="curve"/>
      <point x="94" y="0" type="line"/>
      <point x="11" y="0" type="line"/>
      <point x="54" y="54" type="line"/>
      <point x="27" y="88"/>
      <point x="13" y="135"/>
    </contour>
    <contour>
      <point x="221" y="88" type="curve" smooth="yes"/>
      <point x="297" y="88"/>
      <point x="324" y="161"/>
      <point x="324" y="247" type="curve" smooth="yes"/>
      <point x="324" y="260"/>
      <point x="323" y="272"/>
      <point x="322" y="283" type="curve"/>
      <point x="176" y="102" type="line"/>
      <point x="187" y="93"/>
      <point x="201" y="88"/>
    </contour>
    <contour>
      <point x="148" y="205" type="curve" smooth="yes"/>
      <point x="148" y="193"/>
      <point x="148" y="182"/>
      <point x="149" y="172" type="curve"/>
      <point x="291" y="349" type="line"/>
      <point x="279" y="358"/>
      <point x="264" y="362"/>
      <point x="245" y="362" type="curve" smooth="yes"/>
      <point x="179" y="362"/>
      <point x="148" y="312"/>
    </contour>
  </outline>
</glyph>
<glyph name="ucircumflex" format="1">
  <advance width="542"/>
  <unicode hex="00FB"/>
  <outline>
    <contour>
      <point x="511" y="98" type="line"/>
      <point x="502" y="27" type="line"/>
      <point x="471" y="0" type="line"/>
      <point x="332" y="0" type="line"/>
      <point x="327" y="87" type="line"/>
      <point x="297" y="29"/>
      <point x="249" y="-9"/>
      <point x="182" y="-9" type="curve" smooth="yes"/>
      <point x="101" y="-9"/>
      <point x="37" y="40"/>
      <point x="50" y="147" type="curve" smooth="yes"/>
      <point x="75" y="353" type="line"/>
      <point x="17" y="353" type="line"/>
      <point x="26" y="426" type="line"/>
      <point x="56" y="451" type="line"/>
      <point x="210" y="451" type="line"/>
      <point x="179" y="197" type="line" smooth="yes"/>
      <point x="169" y="119"/>
      <point x="191" y="89"/>
      <point x="240" y="89" type="curve" smooth="yes"/>
      <point x="300" y="89"/>
      <point x="328" y="133"/>
      <point x="336" y="196" type="curve"/>
      <point x="336" y="195" type="line"/>
      <point x="367" y="451" type="line"/>
      <point x="491" y="451" type="line"/>
      <point x="448" y="98" type="line"/>
    </contour>
    <contour>
      <point x="335" y="684" type="line"/>
      <point x="291" y="684" type="line"/>
      <point x="143" y="555" type="line"/>
      <point x="175" y="507" type="line"/>
      <point x="298" y="577" type="line"/>
      <point x="417" y="508" type="line"/>
      <point x="457" y="555" type="line"/>
    </contour>
  </outline>
</glyph>
<glyph name="Abreve" format="1">
  <advance width="660"/>
  <unicode hex="0102"/>
  <outline>
    <contour>
      <point x="-5" y="114" type="line"/>
      <point x="52" y="114" type="line"/>
      <point x="274" y="536" type="line"/>
      <point x="188" y="536" type="line"/>
      <point x="200" y="650" type="line"/>
      <point x="414" y="650" type="line"/>
      <point x="583" y="114" type="line"/>
      <point x="642" y="114" type="line"/>
      <point x="630" y="0" type="line"/>
      <point x="382" y="0" type="line"/>
      <point x="394" y="114" type="line"/>
      <point x="444" y="114" type="line"/>
      <point x="427" y="180" type="line"/>
      <point x="215" y="180" type="line"/>
      <point x="183" y="114" type="line"/>
      <point x="241" y="114" type="line"/>
      <point x="229" y="0" type="line"/>
      <point x="-17" y="0" type="line"/>
    </contour>
    <contour>
      <point x="433" y="833" type="curve"/>
      <point x="533" y="833" type="line"/>
      <point x="523" y="738"/>
      <point x="464" y="695"/>
      <point x="381" y="695" type="curve" smooth="yes"/>
      <point x="294" y="695"/>
      <point x="249" y="741"/>
      <point x="259" y="833" type="curve"/>
      <point x="359" y="833" type="line"/>
      <point x="355" y="797"/>
      <point x="363" y="772"/>
      <point x="389" y="772" type="curve" smooth="yes"/>
      <point x="416" y="772"/>
      <point x="429" y="801"/>
    </contour>
    <contour>
      <point x="351" y="459" type="line"/>
      <point x="262" y="276" type="line"/>
      <point x="403" y="276" type="line"/>
      <point x="357" y="459" type="line"/>
    </contour>
  </outline>
</glyph>
<glyph name="Aogonek" format="1">
  <advance width="660"/>
  <unicode hex="0104"/>
  <outline>
    <contour>
      <point x="-5" y="114" type="line"/>
      <point x="52" y="114" type="line"/>
      <point x="274" y="536" type="line"/>
      <point x="188" y="536" type="line"/>
      <point x="200" y="650" type="line"/>
      <point x="414" y="650" type="line"/>
      <point x="583" y="114" type="line"/>
      <point x="642" y="114" type="line"/>
      <point x="630" y="0" type="line"/>
      <point x="589" y="0" type="line"/>
      <point x="543" y="-29"/>
      <point x="538" y="-60"/>
      <point x="538" y="-78" type="curve" smooth="yes"/>
      <point x="538" y="-110"/>
      <point x="554" y="-118"/>
      <point x="576" y="-118" type="curve" smooth="yes"/>
      <point x="591" y="-118"/>
      <point x="609" y="-114"/>
      <point x="622" y="-106" type="curve"/>
      <point x="622" y="-188" type="line"/>
      <point x="599" y="-199"/>
      <point x="569" y="-208"/>
      <point x="532" y="-208" type="curve" smooth="yes"/>
      <point x="472" y="-208"/>
      <point x="425" y="-184"/>
      <point x="425" y="-125" type="curve" smooth="yes"/>
      <point x="425" y="-72"/>
      <point x="463" y="-27"/>
      <point x="510" y="0" type="curve"/>
      <point x="382" y="0" type="line"/>
      <point x="394" y="114" type="line"/>
      <point x="444" y="114" type="line"/>
      <point x="427" y="180" type="line"/>
      <point x="215" y="180" type="line"/>
      <point x="183" y="114" type="line"/>
      <point x="241" y="114" type="line"/>
      <point x="229" y="0" type="line"/>
      <point x="-17" y="0" type="line"/>
    </contour>
    <contour>
      <point x="351" y="459" type="line"/>
      <point x="262" y="276" type="line"/>
      <point x="403" y="276" type="line"/>
      <point x="357" y="459" type="line"/>
    </contour>
  </outline>
</glyph>
<glyph name="ccircumflex" format="1">
  <advance width="439"/>
  <unicode hex="0109"/>
  <outline>
    <contour>
      <point x="299" y="684" type="line"/>
      <point x="255" y="684" type="line"/>
      <point x="107" y="555" type="line"/>
      <point x="139" y="507" type="line"/>
      <point x="262" y="577" type="line"/>
      <point x="381" y="508" type="line"/>
      <point x="421" y="555" type="line"/>
    </contour>
    <contour>
      <point x="243" y="362" type="curve" smooth="yes"/>
      <point x="189" y="362"/>
      <point x="149" y="305"/>
      <point x="149" y="200" type="curve" smooth="yes"/>
      <point x="149" y="132"/>
      <point x="166" y="88"/>
      <point x="223" y="88" type="curve" smooth="yes"/>
      <point x="273" y="88"/>
      <point x="293" y="123"/>
      <point x="310" y="188" type="curve"/>
      <point x="411" y="168" type="line"/>
      <point x="393" y="83"/>
      <point x="333" y="-10"/>
      <point x="202" y="-10" type="curve" smooth="yes"/>
      <point x="84" y="-10"/>
      <point x="15" y="65"/>
      <point x="15" y="195" type="curve" smooth="yes"/>
      <point x="15" y="323"/>
      <point x="82" y="460"/>
      <point x="248" y="460" type="curve" smooth="yes"/>
      <point x="293" y="460"/>
      <point x="358" y="450"/>
      <point x="406" y="422" type="curve"/>
      <point x="411" y="285" type="line"/>
      <point x="308" y="274" type="line"/>
      <point x="302" y="354" type="line"/>
      <point x="279" y="362"/>
      <point x="263" y="362"/>
    </contour>
  </outline>
</glyph>
<glyph name="ccaron" format="1">
  <advance width="439"/>
  <unicode hex="010D"/>
  <outline>
    <contour>
      <point x="243" y="362" type="curve" smooth="yes"/>
      <point x="189" y="362"/>
      <point x="149" y="305"/>
      <point x="149" y="200" type="curve" smooth="yes"/>
      <point x="149" y="132"/>
      <point x="166" y="88"/>
      <point x="223" y="88" type="curve" smooth="yes"/>
      <point x="273" y="88"/>
      <point x="293" y="123"/>
      <point x="310" y="188" type="curve"/>
      <point x="411" y="168" type="line"/>
      <point x="393" y="83"/>
      <point x="333" y="-10"/>
      <point x="202" y="-10" type="curve" smooth="yes"/>
      <point x="84" y="-10"/>
      <point x="15" y="65"/>
      <point x="15" y="195" type="curve" smooth="yes"/>
      <point x="15" y="323"/>
      <point x="82" y="460"/>
      <point x="248" y="460" type="curve" smooth="yes"/>
      <point x="293" y="460"/>
      <point x="358" y="450"/>
      <point x="406" y="422" type="curve"/>
      <point x="411" y="285" type="line"/>
      <point x="308" y="274" type="line"/>
      <point x="302" y="354" type="line"/>
      <point x="279" y="362"/>
      <point x="263" y="362"/>
    </contour>
    <contour>
      <point x="231" y="507" type="line"/>
      <point x="275" y="507" type="line"/>
      <point x="421" y="633" type="line"/>
      <point x="391" y="684" type="line"/>
      <point x="268" y="613" type="line"/>
      <point x="149" y="683" type="line"/>
      <point x="111" y="634" type="line"/>
    </contour>
  </outline>
</glyph>
<glyph name="ebreve" format="1">
  <advance width="444"/>
  <unicode hex="0115"/>
  <outline>
    <contour>
      <point x="227" y="88" type="curve" smooth="yes"/>
      <point x="295" y="88"/>
      <point x="306" y="139"/>
      <point x="313" y="162" type="curve"/>
      <point x="414" y="142" type="line"/>
      <point x="400" y="63"/>
      <point x="327" y="-10"/>
      <point x="208" y="-10" type="curve" smooth="yes"/>
      <point x="101" y="-10"/>
      <point x="14" y="50"/>
      <point x="14" y="192" type="curve" smooth="yes"/>
      <point x="14" y="336"/>
      <point x="104" y="460"/>
      <point x="258" y="460" type="curve" smooth="yes"/>
      <point x="354" y="460"/>
      <point x="422" y="410"/>
      <point x="422" y="336" type="curve" smooth="yes"/>
      <point x="422" y="269"/>
      <point x="382" y="221"/>
      <point x="261" y="196" type="curve" smooth="yes"/>
      <point x="229" y="189"/>
      <point x="192" y="183"/>
      <point x="149" y="179" type="curve"/>
      <point x="153" y="121"/>
      <point x="173" y="88"/>
    </contour>
    <contour>
      <point x="326" y="653" type="curve"/>
      <point x="426" y="653" type="line"/>
      <point x="416" y="558"/>
      <point x="354" y="515"/>
      <point x="272" y="515" type="curve" smooth="yes"/>
      <point x="187" y="515"/>
      <point x="143" y="561"/>
      <point x="153" y="653" type="curve"/>
      <point x="253" y="653" type="line"/>
      <point x="249" y="617"/>
      <point x="257" y="592"/>
      <point x="282" y="592" type="curve" smooth="yes"/>
      <point x="309" y="592"/>
      <point x="322" y="621"/>
    </contour>
    <contour>
      <point x="196" y="261" type="curve" smooth="yes"/>
      <point x="276" y="276"/>
      <point x="292" y="301"/>
      <point x="292" y="328" type="curve" smooth="yes"/>
      <point x="292" y="361"/>
      <point x="267" y="373"/>
      <point x="241" y="373" type="curve" smooth="yes"/>
      <point x="185" y="373"/>
      <point x="160" y="315"/>
      <point x="152" y="254" type="curve"/>
      <point x="168" y="256"/>
      <point x="183" y="258"/>
    </contour>
  </outline>
</glyph>
<glyph name="Eogonek" format="1">
  <advance width="569"/>
  <unicode hex="0118"/>
  <outline>
    <contour>
      <point x="497" y="0" type="line"/>
      <point x="452" y="0" type="line"/>
      <point x="406" y="-29"/>
      <point x="401" y="-60"/>
      <point x="401" y="-78" type="curve" smooth="yes"/>
      <point x="401" y="-110"/>
      <point x="417" y="-118"/>
      <point x="439" y="-118" type="curve" smooth="yes"/>
      <point x="454" y="-118"/>
      <point x="472" y="-114"/>
      <point x="485" y="-106" type="curve"/>
      <point x="485" y="-188" type="line"/>
      <point x="462" y="-199"/>
      <point x="432" y="-208"/>
      <point x="395" y="-208" type="curve" smooth="yes"/>
      <point x="335" y="-208"/>
      <point x="288" y="-184"/>
      <point x="288" y="-125" type="curve" smooth="yes"/>
      <point x="288" y="-72"/>
      <point x="326" y="-27"/>
      <point x="373" y="0" type="curve"/>
      <point x="8" y="0" type="line"/>
      <point x="20" y="114" type="line"/>
      <point x="89" y="114" type="line"/>
      <point x="133" y="536" type="line"/>
      <point x="64" y="536" type="line"/>
      <point x="76" y="650" type="line"/>
      <point x="559" y="650" type="line"/>
      <point x="559" y="460" type="line"/>
      <point x="449" y="450" type="line"/>
      <point x="439" y="536" type="line"/>
      <point x="261" y="536" type="line"/>
      <point x="245" y="383" type="line"/>
      <point x="517" y="383" type="line"/>
      <point x="505" y="270" type="line"/>
      <point x="233" y="270" type="line"/>
      <point x="217" y="114" type="line"/>
      <point x="400" y="114" type="line"/>
      <point x="429" y="200" type="line"/>
      <point x="537" y="190" type="line"/>
    </contour>
  </outline>
</glyph>
<glyph name="gbreve" format="1">
  <advance width="526"/>
  <unicode hex="011F"/>
  <outline>
    <contour>
      <point x="374" y="451" type="line"/>
      <point x="537" y="451" type="line"/>
      <point x="528" y="378" type="line"/>
      <point x="498" y="353" type="line"/>
      <point x="466" y="353" type="line"/>
      <point x="425" y="23" type="line" smooth="yes"/>
      <point x="409" y="-105"/>
      <point x="346" y="-222"/>
      <point x="180" y="-222" type="curve" smooth="yes"/>
      <point x="95" y="-222"/>
      <point x="9" y="-185"/>
      <point x="-14" y="-81" type="curve"/>
      <point x="74" y="-31" type="line"/>
      <point x="97" y="-89"/>
      <point x="137" y="-115"/>
      <point x="188" y="-115" type="curve" smooth="yes"/>
      <point x="257" y="-115"/>
      <point x="290" y="-68"/>
      <point x="301" y="23" type="curve" smooth="yes"/>
      <point x="308" y="85" type="line"/>
      <point x="277" y="33"/>
      <point x="228" y="-10"/>
      <point x="158" y="-10" type="curve" smooth="yes"/>
      <point x="59" y="-10"/>
      <point x="14" y="76"/>
      <point x="14" y="180" type="curve" smooth="yes"/>
      <point x="14" y="306"/>
      <point x="81" y="460"/>
      <point x="226" y="460" type="curve" smooth="yes"/>
      <point x="291" y="460"/>
      <point x="334" y="429"/>
      <point x="352" y="380" type="curve"/>
    </contour>
    <contour>
      <point x="246" y="362" type="curve" smooth="yes"/>
      <point x="182" y="362"/>
      <point x="148" y="284"/>
      <point x="148" y="194" type="curve" smooth="yes"/>
      <point x="148" y="131"/>
      <point x="165" y="88"/>
      <point x="209" y="88" type="curve" smooth="yes"/>
      <point x="262" y="88"/>
      <point x="309" y="150"/>
      <point x="323" y="207" type="curve"/>
      <point x="329" y="255" type="line"/>
      <point x="332" y="324"/>
      <point x="290" y="362"/>
    </contour>
    <contour>
      <point x="348" y="653" type="curve"/>
      <point x="448" y="653" type="line"/>
      <point x="438" y="558"/>
      <point x="376" y="515"/>
      <point x="294" y="515" type="curve" smooth="yes"/>
      <point x="209" y="515"/>
      <point x="165" y="561"/>
      <point x="175" y="653" type="curve"/>
      <point x="275" y="653" type="line"/>
      <point x="271" y="617"/>
      <point x="279" y="592"/>
      <point x="304" y="592" type="curve" smooth="yes"/>
      <point x="331" y="592"/>
      <point x="344" y="621"/>
    </contour>
  </outline>
</glyph>
<glyph name="hbar" format="1">
  <advance width="522"/>
  <unicode hex="0127"/>
  <outline>
    <contour>
      <point x="43" y="661" type="line"/>
      <point x="74" y="688" type="line"/>
      <point x="228" y="688" type="line"/>
      <point x="212" y="559" type="line"/>
      <point x="372" y="559" type="line"/>
      <point x="364" y="519" type="line"/>
      <point x="330" y="487" type="line"/>
      <point x="203" y="487" type="line"/>
      <point x="190" y="375" type="line"/>
      <point x="220" y="426"/>
      <point x="266" y="460"/>
      <point x="329" y="460" type="curve" smooth="yes"/>
      <point x="410" y="460"/>
      <point x="474" y="411"/>
      <point x="461" y="304" type="curve" smooth="yes"/>
      <point x="436" y="98" type="line"/>
      <point x="494" y="98" type="line"/>
      <point x="485" y="25" type="line"/>
      <point x="455" y="0" type="line"/>
      <point x="301" y="0" type="line"/>
      <point x="332" y="254" type="line" smooth="yes"/>
      <point x="342" y="332"/>
      <point x="320" y="362"/>
      <point x="271" y="362" type="curve" smooth="yes"/>
      <point x="215" y="362"/>
      <point x="187" y="324"/>
      <point x="177" y="269" type="curve" smooth="yes"/>
      <point x="176" y="265" type="line"/>
      <point x="144" y="0" type="line"/>
      <point x="20" y="0" type="line"/>
      <point x="79" y="487" type="line"/>
      <point x="12" y="487" type="line"/>
      <point x="17" y="528" type="line"/>
      <point x="51" y="559" type="line"/>
      <point x="88" y="559" type="line"/>
      <point x="92" y="590" type="line"/>
      <point x="34" y="590" type="line"/>
    </contour>
  </outline>
</glyph>
<glyph name="itilde" format="1">
  <advance width="274"/>
  <unicode hex="0129"/>
  <outline>
    <contour>
      <point x="32" y="424" type="line"/>
      <point x="63" y="451" type="line"/>
      <point x="222" y="451" type="line"/>
      <point x="179" y="98" type="line"/>
      <point x="236" y="98" type="line"/>
      <point x="227" y="25" type="line"/>
      <point x="197" y="0" type="line"/>
      <point x="43" y="0" type="line"/>
      <point x="86" y="353" type="line"/>
      <point x="23" y="353" type="line"/>
    </contour>
    <contour>
      <point x="64" y="515" type="line"/>
      <point x="75" y="544"/>
      <point x="91" y="558"/>
      <point x="113" y="558" type="curve" smooth="yes"/>
      <point x="152" y="558"/>
      <point x="182" y="517"/>
      <point x="232" y="517" type="curve" smooth="yes"/>
      <point x="297" y="517"/>
      <point x="320" y="589"/>
      <point x="326" y="647" type="curve"/>
      <point x="274" y="658" type="line"/>
      <point x="262" y="629"/>
      <point x="243" y="617"/>
      <point x="224" y="617" type="curve" smooth="yes"/>
      <point x="191" y="617"/>
      <point x="158" y="655"/>
      <point x="114" y="655" type="curve" smooth="yes"/>
      <point x="49" y="655"/>
      <point x="18" y="569"/>
      <point x="17" y="531" type="curve"/>
    </contour>
  </outline>
</glyph>
<glyph name="imacron" format="1">
  <advance width="274"/>
  <unicode hex="012B"/>
  <outline>
    <contour>
      <point x="32" y="424" type="line"/>
      <point x="63" y="451" type="line"/>
      <point x="222" y="451" type="line"/>
      <point x="179" y="98" type="line"/>
      <point x="236" y="98" type="line"/>
      <point x="227" y="25" type="line"/>
      <point x="197" y="0" type="line"/>
      <point x="43" y="0" type="line"/>
      <point x="86" y="353" type="line"/>
      <point x="23" y="353" type="line"/>
    </contour>
    <contour>
      <point x="31" y="634" type="line"/>
      <point x="294" y="634" type="line"/>
      <point x="284" y="536" type="line"/>
      <point x="21" y="536" type="line"/>
    </contour>
  </outline>
</glyph>
<glyph name="Ibreve" format="1">
  <advance width="339"/>
  <unicode hex="012C"/>
  <outline>
    <contour>
      <point x="21" y="114" type="line"/>
      <point x="88" y="114" type="line"/>
      <point x="132" y="536" type="line"/>
      <point x="65" y="536" type="line"/>
      <point x="77" y="650" type="line"/>
      <point x="340" y="650" type="line"/>
      <point x="328" y="536" type="line"/>
      <point x="260" y="536" type="line"/>
      <point x="216" y="114" type="line"/>
      <point x="284" y="114" type="line"/>
      <point x="272" y="0" type="line"/>
      <point x="9" y="0" type="line"/>
    </contour>
    <contour>
      <point x="260" y="833" type="curve"/>
      <point x="360" y="833" type="line"/>
      <point x="350" y="738"/>
      <point x="291" y="695"/>
      <point x="208" y="695" type="curve" smooth="yes"/>
      <point x="121" y="695"/>
      <point x="76" y="741"/>
      <point x="86" y="833" type="curve"/>
      <point x="186" y="833" type="line"/>
      <point x="182" y="797"/>
      <point x="190" y="772"/>
      <point x="216" y="772" type="curve" smooth="yes"/>
      <point x="243" y="772"/>
      <point x="256" y="801"/>
    </contour>
  </outline>
</glyph>
<glyph name="ibreve" format="1">
  <advance width="274"/>
  <unicode hex="012D"/>
  <outline>
    <contour>
      <point x="32" y="424" type="line"/>
      <point x="63" y="451" type="line"/>
      <point x="222" y="451" type="line"/>
      <point x="179" y="98" type="line"/>
      <point x="236" y="98" type="line"/>
      <point x="227" y="25" type="line"/>
      <point x="197" y="0" type="line"/>
      <point x="43" y="0" type="line"/>
      <point x="86" y="353" type="line"/>
      <point x="23" y="353" type="line"/>
    </contour>
    <contour>
      <point x="213" y="653" type="curve"/>
      <point x="313" y="653" type="line"/>
      <point x="303" y="558"/>
      <point x="241" y="515"/>
      <point x="159" y="515" type="curve" smooth="yes"/>
      <point x="74" y="515"/>
      <point x="30" y="561"/>
      <point x="40" y="653" type="curve"/>
      <point x="140" y="653" type="line"/>
      <point x="136" y="617"/>
      <point x="144" y="592"/>
      <point x="169" y="592" type="curve" smooth="yes"/>
      <point x="196" y="592"/>
      <point x="209" y="621"/>
    </contour>
  </outline>
</glyph>
<glyph name="lacute" format="1">
  <advance width="257"/>
  <unicode hex="013A"/>
  <outline>
    <contour>
      <point x="47" y="661" type="line"/>
      <point x="78" y="688" type="line"/>
      <point x="236" y="688" type="line"/>
      <point x="164" y="98" type="line"/>
      <point x="222" y="98" type="line"/>
      <point x="213" y="25" type="line"/>
      <point x="183" y="0" type="line"/>
      <point x="28" y="0" type="line"/>
      <point x="100" y="590" type="line"/>
      <point x="38" y="590" type="line"/>
    </contour>
    <contour>
      <point x="309" y="744" type="line"/>
      <point x="283" y="861" type="line"/>
      <point x="73" y="773" type="line"/>
      <point x="86" y="716" type="line"/>
    </contour>
  </outline>
</glyph>
<glyph name="Lcommaaccent" format="1">
  <advance width="535"/>
  <unicode hex="013B"/>
  <outline>
    <contour>
      <point x="308" y="-58" type="line"/>
      <point x="189" y="-58" type="line"/>
      <point x="170" y="-213" type="line"/>
      <point x="266" y="-213" type="line"/>
    </contour>
    <contour>
      <point x="482" y="0" type="line"/>
      <point x="526" y="230" type="line"/>
      <point x="418" y="240" type="line"/>
      <point x="386" y="114" type="line"/>
      <point x="217" y="114" type="line"/>
      <point x="261" y="536" type="line"/>
      <point x="352" y="536" type="line"/>
      <point x="364" y="650" type="line"/>
      <point x="75" y="650" type="line"/>
      <point x="63" y="536" type="line"/>
      <point x="132" y="536" type="line"/>
      <point x="88" y="114" type="line"/>
      <point x="19" y="114" type="line"/>
      <point x="7" y="0" type="line"/>
    </contour>
  </outline>
</glyph>
<glyph name="Lcaron" format="1">
  <advance width="536"/>
  <unicode hex="013D"/>
  <outline>
    <contour>
      <point x="537" y="681" type="line"/>
      <point x="418" y="681" type="line"/>
      <point x="382" y="457" type="line"/>
      <point x="478" y="457" type="line"/>
    </contour>
    <contour>
      <point x="482" y="0" type="line"/>
      <point x="526" y="230" type="line"/>
      <point x="418" y="240" type="line"/>
      <point x="386" y="114" type="line"/>
      <point x="217" y="114" type="line"/>
      <point x="261" y="536" type="line"/>
      <point x="352" y="536" type="line"/>
      <point x="364" y="650" type="line"/>
      <point x="75" y="650" type="line"/>
      <point x="63" y="536" type="line"/>
      <point x="132" y="536" type="line"/>
      <point x="88" y="114" type="line"/>
      <point x="19" y="114" type="line"/>
      <point x="7" y="0" type="line"/>
    </contour>
  </outline>
</glyph>
<glyph name="lcaron" format="1">
  <advance width="269"/>
  <unicode hex="013E"/>
  <outline>
    <contour>
      <point x="47" y="661" type="line"/>
      <point x="78" y="688" type="line"/>
      <point x="236" y="688" type="line"/>
      <point x="164" y="98" type="line"/>
      <point x="222" y="98" type="line"/>
      <point x="213" y="25" type="line"/>
      <point x="183" y="0" type="line"/>
      <point x="28" y="0" type="line"/>
      <point x="100" y="590" type="line"/>
      <point x="38" y="590" type="line"/>
    </contour>
    <contour>
      <point x="414" y="681" type="line"/>
      <point x="295" y="681" type="line"/>
      <point x="259" y="457" type="line"/>
      <point x="355" y="457" type="line"/>
    </contour>
  </outline>
</glyph>
<glyph name="Lslash" format="1">
  <advance width="538"/>
  <unicode hex="0141"/>
  <outline>
    <contour>
      <point x="485" y="0" type="line"/>
      <point x="529" y="230" type="line"/>
      <point x="421" y="240" type="line"/>
      <point x="389" y="114" type="line"/>
      <point x="220" y="114" type="line"/>
      <point x="239" y="303" type="line"/>
      <point x="376" y="345" type="line"/>
      <point x="386" y="445" type="line"/>
      <point x="250" y="403" type="line"/>
      <point x="264" y="536" type="line"/>
      <point x="355" y="536" type="line"/>
      <point x="367" y="650" type="line"/>
      <point x="78" y="650" type="line"/>
      <point x="66" y="536" type="line"/>
      <point x="135" y="536" type="line"/>
      <point x="117" y="361" type="line"/>
      <point x="32" y="335" type="line"/>
      <point x="21" y="235" type="line"/>
      <point x="106" y="261" type="line"/>
      <point x="91" y="114" type="line"/>
      <point x="22" y="114" type="line"/>
      <point x="10" y="0" type="line"/>
    </contour>
  </outline>
</glyph>
<glyph name="lslash" format="1">
  <advance width="284"/>
  <unicode hex="0142"/>
  <outline>
    <contour>
      <point x="19" y="325" type="line"/>
      <point x="92" y="358" type="line"/>
      <point x="121" y="590" type="line"/>
      <point x="59" y="590" type="line"/>
      <point x="68" y="661" type="line"/>
      <point x="99" y="688" type="line"/>
      <point x="257" y="688" type="line"/>
      <point x="224" y="416" type="line"/>
      <point x="299" y="450" type="line"/>
      <point x="288" y="350" type="line"/>
      <point x="211" y="316" type="line"/>
      <point x="185" y="98" type="line"/>
      <point x="243" y="98" type="line"/>
      <point x="234" y="25" type="line"/>
      <point x="204" y="0" type="line"/>
      <point x="49" y="0" type="line"/>
      <point x="80" y="257" type="line"/>
      <point x="8" y="225" type="line"/>
    </contour>
  </outline>
</glyph>
<glyph name="Nacute" format="1">
  <advance width="732"/>
  <unicode hex="0143"/>
  <outline>
    <contour>
      <point x="23" y="114" type="line"/>
      <point x="91" y="114" type="line"/>
      <point x="135" y="536" type="line"/>
      <point x="57" y="536" type="line"/>
      <point x="69" y="650" type="line"/>
      <point x="239" y="650" type="line"/>
      <point x="514" y="264" type="line"/>
      <point x="517" y="264" type="line"/>
      <point x="545" y="536" type="line"/>
      <point x="455" y="536" type="line"/>
      <point x="467" y="650" type="line"/>
      <point x="745" y="650" type="line"/>
      <point x="733" y="536" type="line"/>
      <point x="665" y="536" type="line"/>
      <point x="609" y="0" type="line"/>
      <point x="537" y="-1" type="line"/>
      <point x="245" y="412" type="line"/>
      <point x="242" y="412" type="line"/>
      <point x="211" y="114" type="line"/>
      <point x="297" y="114" type="line"/>
      <point x="285" y="0" type="line"/>
      <point x="11" y="0" type="line"/>
    </contour>
    <contour>
      <point x="572" y="716" type="line"/>
      <point x="546" y="833" type="line"/>
      <point x="336" y="745" type="line"/>
      <point x="349" y="688" type="line"/>
    </contour>
  </outline>
</glyph>
<glyph name="Ncommaaccent" format="1">
  <advance width="732"/>
  <unicode hex="0145"/>
  <outline>
    <contour>
      <point x="23" y="114" type="line"/>
      <point x="91" y="114" type="line"/>
      <point x="135" y="536" type="line"/>
      <point x="57" y="536" type="line"/>
      <point x="69" y="650" type="line"/>
      <point x="239" y="650" type="line"/>
      <point x="514" y="264" type="line"/>
      <point x="517" y="264" type="line"/>
      <point x="545" y="536" type="line"/>
      <point x="455" y="536" type="line"/>
      <point x="467" y="650" type="line"/>
      <point x="745" y="650" type="line"/>
      <point x="733" y="536" type="line"/>
      <point x="665" y="536" type="line"/>
      <point x="609" y="0" type="line"/>
      <point x="537" y="-1" type="line"/>
      <point x="245" y="412" type="line"/>
      <point x="242" y="412" type="line"/>
      <point x="211" y="114" type="line"/>
      <point x="297" y="114" type="line"/>
      <point x="285" y="0" type="line"/>
      <point x="11" y="0" type="line"/>
    </contour>
    <contour>
      <point x="405" y="-58" type="line"/>
      <point x="286" y="-58" type="line"/>
      <point x="267" y="-213" type="line"/>
      <point x="363" y="-213" type="line"/>
    </contour>
  </outline>
</glyph>
<glyph name="Ncaron" format="1">
  <advance width="732"/>
  <unicode hex="0147"/>
  <outline>
    <contour>
      <point x="467" y="650" type="line"/>
      <point x="745" y="650" type="line"/>
      <point x="733" y="536" type="line"/>
      <point x="665" y="536" type="line"/>
      <point x="609" y="0" type="line"/>
      <point x="537" y="-1" type="line"/>
      <point x="245" y="412" type="line"/>
      <point x="242" y="412" type="line"/>
      <point x="211" y="114" type="line"/>
      <point x="297" y="114" type="line"/>
      <point x="285" y="0" type="line"/>
      <point x="11" y="0" type="line"/>
      <point x="23" y="114" type="line"/>
      <point x="91" y="114" type="line"/>
      <point x="135" y="536" type="line"/>
      <point x="57" y="536" type="line"/>
      <point x="69" y="650" type="line"/>
      <point x="239" y="650" type="line"/>
      <point x="514" y="264" type="line"/>
      <point x="517" y="264" type="line"/>
      <point x="545" y="536" type="line"/>
      <point x="455" y="536" type="line"/>
    </contour>
    <contour>
      <point x="383" y="685" type="line"/>
      <point x="427" y="685" type="line"/>
      <point x="571" y="791" type="line"/>
      <point x="547" y="844" type="line"/>
      <point x="419" y="782" type="line"/>
      <point x="293" y="844" type="line"/>
      <point x="261" y="792" type="line"/>
    </contour>
  </outline>
</glyph>
<glyph name="Obreve" format="1">
  <advance width="686"/>
  <unicode hex="014E"/>
  <outline>
    <contour>
      <point x="453" y="833" type="curve"/>
      <point x="553" y="833" type="line"/>
      <point x="543" y="738"/>
      <point x="484" y="695"/>
      <point x="401" y="695" type="curve" smooth="yes"/>
      <point x="314" y="695"/>
      <point x="269" y="741"/>
      <point x="279" y="833" type="curve"/>
      <point x="379" y="833" type="line"/>
      <point x="375" y="797"/>
      <point x="383" y="772"/>
      <point x="409" y="772" type="curve" smooth="yes"/>
      <point x="436" y="772"/>
      <point x="449" y="801"/>
    </contour>
    <contour>
      <point x="382" y="660" type="curve" smooth="yes"/>
      <point x="181" y="660"/>
      <point x="27" y="496"/>
      <point x="27" y="290" type="curve" smooth="yes"/>
      <point x="27" y="126"/>
      <point x="125" y="-10"/>
      <point x="311" y="-10" type="curve" smooth="yes"/>
      <point x="520" y="-10"/>
      <point x="670" y="161"/>
      <point x="670" y="360" type="curve" smooth="yes"/>
      <point x="670" y="526"/>
      <point x="564" y="660"/>
    </contour>
    <contour>
      <point x="331" y="108" type="curve" smooth="yes"/>
      <point x="210" y="108"/>
      <point x="167" y="203"/>
      <point x="167" y="302" type="curve" smooth="yes"/>
      <point x="167" y="433"/>
      <point x="243" y="542"/>
      <point x="368" y="542" type="curve" smooth="yes"/>
      <point x="467" y="542"/>
      <point x="530" y="473"/>
      <point x="530" y="350" type="curve" smooth="yes"/>
      <point x="530" y="227"/>
      <point x="466" y="108"/>
    </contour>
  </outline>
</glyph>
<glyph name="Ohungarumlaut" format="1">
  <advance width="686"/>
  <unicode hex="0150"/>
  <outline>
    <contour>
      <point x="382" y="660" type="curve" smooth="yes"/>
      <point x="181" y="660"/>
      <point x="27" y="496"/>
      <point x="27" y="290" type="curve" smooth="yes"/>
      <point x="27" y="126"/>
      <point x="125" y="-10"/>
      <point x="311" y="-10" type="curve" smooth="yes"/>
      <point x="520" y="-10"/>
      <point x="670" y="161"/>
      <point x="670" y="360" type="curve" smooth="yes"/>
      <point x="670" y="526"/>
      <point x="564" y="660"/>
    </contour>
    <contour>
      <point x="331" y="108" type="curve" smooth="yes"/>
      <point x="210" y="108"/>
      <point x="167" y="203"/>
      <point x="167" y="302" type="curve" smooth="yes"/>
      <point x="167" y="433"/>
      <point x="243" y="542"/>
      <point x="368" y="542" type="curve" smooth="yes"/>
      <point x="467" y="542"/>
      <point x="530" y="473"/>
      <point x="530" y="350" type="curve" smooth="yes"/>
      <point x="530" y="227"/>
      <point x="466" y="108"/>
    </contour>
    <contour>
      <point x="645" y="716" type="line"/>
      <point x="619" y="830" type="line"/>
      <point x="422" y="745" type="line"/>
      <point x="437" y="688" type="line"/>
    </contour>
    <contour>
      <point x="505" y="821" type="line"/>
      <point x="432" y="906" type="line"/>
      <point x="287" y="727" type="line"/>
      <point x="325" y="687" type="line"/>
    </contour>
  </outline>
</glyph>
<glyph name="Rcaron" format="1">
  <advance width="614"/>
  <unicode hex="0158"/>
  <outline>
    <contour>
      <point x="21" y="114" type="line"/>
      <point x="88" y="114" type="line"/>
      <point x="132" y="536" type="line"/>
      <point x="65" y="536" type="line"/>
      <point x="77" y="650" type="line"/>
      <point x="359" y="650" type="line" smooth="yes"/>
      <point x="502" y="650"/>
      <point x="581" y="588"/>
      <point x="581" y="470" type="curve" smooth="yes"/>
      <point x="581" y="370"/>
      <point x="525" y="313"/>
      <point x="439" y="284" type="curve"/>
      <point x="509" y="114" type="line"/>
      <point x="585" y="114" type="line"/>
      <point x="573" y="0" type="line"/>
      <point x="413" y="0" type="line"/>
      <point x="315" y="248" type="line"/>
      <point x="231" y="248" type="line"/>
      <point x="217" y="114" type="line"/>
      <point x="284" y="114" type="line"/>
      <point x="272" y="0" type="line"/>
      <point x="9" y="0" type="line"/>
    </contour>
    <contour>
      <point x="303" y="354" type="line" smooth="yes"/>
      <point x="411" y="354"/>
      <point x="442" y="395"/>
      <point x="442" y="458" type="curve" smooth="yes"/>
      <point x="442" y="518"/>
      <point x="414" y="536"/>
      <point x="324" y="536" type="curve" smooth="yes"/>
      <point x="261" y="536" type="line"/>
      <point x="242" y="354" type="line"/>
    </contour>
    <contour>
      <point x="311" y="685" type="line"/>
      <point x="355" y="685" type="line"/>
      <point x="499" y="791" type="line"/>
      <point x="475" y="844" type="line"/>
      <point x="347" y="782" type="line"/>
      <point x="221" y="844" type="line"/>
      <point x="189" y="792" type="line"/>
    </contour>
  </outline>
</glyph>
<glyph name="rcaron" format="1">
  <advance width="357"/>
  <unicode hex="0159"/>
  <outline>
    <contour>
      <point x="72" y="451" type="line"/>
      <point x="201" y="451" type="line"/>
      <point x="208" y="327" type="line"/>
      <point x="228" y="390"/>
      <point x="263" y="460"/>
      <point x="317" y="460" type="curve" smooth="yes"/>
      <point x="339" y="460"/>
      <point x="352" y="454"/>
      <point x="366" y="442" type="curve"/>
      <point x="346" y="309" type="line"/>
      <point x="324" y="321"/>
      <point x="310" y="324"/>
      <point x="294" y="324" type="curve" smooth="yes"/>
      <point x="253" y="324"/>
      <point x="221" y="302"/>
      <point x="210" y="254" type="curve"/>
      <point x="188" y="98" type="line"/>
      <point x="274" y="98" type="line"/>
      <point x="265" y="27" type="line"/>
      <point x="234" y="0" type="line"/>
      <point x="-7" y="0" type="line"/>
      <point x="2" y="71" type="line"/>
      <point x="33" y="98" type="line"/>
      <point x="63" y="98" type="line"/>
      <point x="94" y="353" type="line"/>
      <point x="32" y="353" type="line"/>
      <point x="41" y="424" type="line"/>
    </contour>
    <contour>
      <point x="207" y="507" type="line"/>
      <point x="251" y="507" type="line"/>
      <point x="397" y="633" type="line"/>
      <point x="367" y="684" type="line"/>
      <point x="244" y="613" type="line"/>
      <point x="125" y="683" type="line"/>
      <point x="87" y="634" type="line"/>
    </contour>
  </outline>
</glyph>
<glyph name="Scedilla" format="1">
  <advance width="538"/>
  <unicode hex="015E"/>
  <outline>
    <contour>
      <point x="500" y="204" type="curve" smooth="yes"/>
      <point x="500" y="80"/>
      <point x="423" y="6"/>
      <point x="291" y="-7" type="curve"/>
      <point x="286" y="-41" type="line"/>
      <point x="294" y="-41" type="line" smooth="yes"/>
      <point x="353" y="-41"/>
      <point x="373" y="-76"/>
      <point x="373" y="-114" type="curve" smooth="yes"/>
      <point x="373" y="-185"/>
      <point x="301" y="-209"/>
      <point x="235" y="-209" type="curve" smooth="yes"/>
      <point x="188" y="-209"/>
      <point x="144" y="-197"/>
      <point x="125" y="-179" type="curve"/>
      <point x="154" y="-109" type="line"/>
      <point x="168" y="-119"/>
      <point x="193" y="-132"/>
      <point x="229" y="-132" type="curve" smooth="yes"/>
      <point x="258" y="-132"/>
      <point x="266" y="-124"/>
      <point x="266" y="-109" type="curve" smooth="yes"/>
      <point x="266" y="-96"/>
      <point x="260" y="-86"/>
      <point x="231" y="-86" type="curve" smooth="yes"/>
      <point x="195" y="-86" type="line"/>
      <point x="206" y="-9" type="line"/>
      <point x="128" y="-4"/>
      <point x="54" y="18"/>
      <point x="15" y="58" type="curve"/>
      <point x="52" y="219" type="line"/>
      <point x="156" y="209" type="line"/>
      <point x="147" y="130" type="line"/>
      <point x="188" y="106"/>
      <point x="219" y="105"/>
      <point x="237" y="105" type="curve" smooth="yes"/>
      <point x="312" y="105"/>
      <point x="358" y="122"/>
      <point x="358" y="194" type="curve" smooth="yes"/>
      <point x="358" y="259"/>
      <point x="321" y="268"/>
      <point x="247" y="282" type="curve" smooth="yes"/>
      <point x="159" y="299"/>
      <point x="62" y="328"/>
      <point x="62" y="457" type="curve" smooth="yes"/>
      <point x="62" y="607"/>
      <point x="192" y="660"/>
      <point x="312" y="660" type="curve" smooth="yes"/>
      <point x="400" y="660"/>
      <point x="478" y="632"/>
      <point x="515" y="588" type="curve"/>
      <point x="506" y="447" type="line"/>
      <point x="400" y="437" type="line"/>
      <point x="399" y="513" type="line"/>
      <point x="368" y="536"/>
      <point x="336" y="542"/>
      <point x="304" y="542" type="curve" smooth="yes"/>
      <point x="248" y="542"/>
      <point x="202" y="523"/>
      <point x="202" y="474" type="curve" smooth="yes"/>
      <point x="202" y="422"/>
      <point x="252" y="408"/>
      <point x="308" y="396" type="curve" smooth="yes"/>
      <point x="393" y="378"/>
      <point x="500" y="351"/>
    </contour>
  </outline>
</glyph>
<glyph name="scedilla" format="1">
  <advance width="441"/>
  <unicode hex="015F"/>
  <outline>
    <contour>
      <point x="198" y="88" type="curve" smooth="yes"/>
      <point x="240" y="88"/>
      <point x="270" y="103"/>
      <point x="270" y="131" type="curve" smooth="yes"/>
      <point x="270" y="170"/>
      <point x="213" y="175"/>
      <point x="156" y="191" type="curve" smooth="yes"/>
      <point x="98" y="207"/>
      <point x="39" y="234"/>
      <point x="39" y="315" type="curve" smooth="yes"/>
      <point x="39" y="422"/>
      <point x="139" y="460"/>
      <point x="234" y="460" type="curve" smooth="yes"/>
      <point x="283" y="460"/>
      <point x="354" y="450"/>
      <point x="407" y="419" type="curve"/>
      <point x="406" y="304" type="line"/>
      <point x="307" y="293" type="line"/>
      <point x="305" y="349" type="line"/>
      <point x="282" y="357"/>
      <point x="255" y="362"/>
      <point x="234" y="362" type="curve" smooth="yes"/>
      <point x="207" y="362"/>
      <point x="168" y="351"/>
      <point x="168" y="322" type="curve" smooth="yes"/>
      <point x="168" y="294"/>
      <point x="205" y="289"/>
      <point x="263" y="274" type="curve" smooth="yes"/>
      <point x="323" y="258"/>
      <point x="400" y="234"/>
      <point x="400" y="139" type="curve" smooth="yes"/>
      <point x="400" y="46"/>
      <point x="326" y="0"/>
      <point x="234" y="-8" type="curve"/>
      <point x="229" y="-41" type="line"/>
      <point x="237" y="-41" type="line" smooth="yes"/>
      <point x="296" y="-41"/>
      <point x="316" y="-76"/>
      <point x="316" y="-114" type="curve" smooth="yes"/>
      <point x="316" y="-185"/>
      <point x="244" y="-209"/>
      <point x="178" y="-209" type="curve" smooth="yes"/>
      <point x="131" y="-209"/>
      <point x="87" y="-197"/>
      <point x="68" y="-179" type="curve"/>
      <point x="97" y="-109" type="line"/>
      <point x="111" y="-119"/>
      <point x="136" y="-132"/>
      <point x="172" y="-132" type="curve" smooth="yes"/>
      <point x="201" y="-132"/>
      <point x="209" y="-124"/>
      <point x="209" y="-109" type="curve" smooth="yes"/>
      <point x="209" y="-96"/>
      <point x="203" y="-86"/>
      <point x="174" y="-86" type="curve" smooth="yes"/>
      <point x="138" y="-86" type="line"/>
      <point x="150" y="-7" type="line"/>
      <point x="99" y="-1"/>
      <point x="41" y="11"/>
      <point x="1" y="34" type="curve"/>
      <point x="32" y="160" type="line"/>
      <point x="129" y="149" type="line"/>
      <point x="124" y="97" type="line"/>
      <point x="147" y="89"/>
      <point x="184" y="88"/>
    </contour>
  </outline>
</glyph>
<glyph name="Tcommaaccent" format="1">
  <advance width="626"/>
  <unicode hex="0162"/>
  <outline>
    <contour>
      <point x="333" y="-58" type="line"/>
      <point x="214" y="-58" type="line"/>
      <point x="195" y="-213" type="line"/>
      <point x="291" y="-213" type="line"/>
    </contour>
    <contour>
      <point x="626" y="430" type="line"/>
      <point x="630" y="650" type="line"/>
      <point x="75" y="650" type="line"/>
      <point x="33" y="430" type="line"/>
      <point x="143" y="420" type="line"/>
      <point x="175" y="536" type="line"/>
      <point x="276" y="536" type="line"/>
      <point x="232" y="114" type="line"/>
      <point x="134" y="114" type="line"/>
      <point x="122" y="0" type="line"/>
      <point x="451" y="0" type="line"/>
      <point x="463" y="114" type="line"/>
      <point x="360" y="114" type="line"/>
      <point x="404" y="536" type="line"/>
      <point x="506" y="536" type="line"/>
      <point x="514" y="420" type="line"/>
    </contour>
  </outline>
</glyph>
<glyph name="uring" format="1">
  <advance width="542"/>
  <unicode hex="016F"/>
  <outline>
    <contour>
      <point x="511" y="98" type="line"/>
      <point x="502" y="27" type="line"/>
      <point x="471" y="0" type="line"/>
      <point x="332" y="0" type="line"/>
      <point x="327" y="87" type="line"/>
      <point x="297" y="29"/>
      <point x="249" y="-9"/>
      <point x="182" y="-9" type="curve" smooth="yes"/>
      <point x="101" y="-9"/>
      <point x="37" y="40"/>
      <point x="50" y="147" type="curve" smooth="yes"/>
      <point x="75" y="353" type="line"/>
      <point x="17" y="353" type="line"/>
      <point x="26" y="426" type="line"/>
      <point x="56" y="451" type="line"/>
      <point x="210" y="451" type="line"/>
      <point x="179" y="197" type="line" smooth="yes"/>
      <point x="169" y="119"/>
      <point x="191" y="89"/>
      <point x="240" y="89" type="curve" smooth="yes"/>
      <point x="300" y="89"/>
      <point x="328" y="133"/>
      <point x="336" y="196" type="curve"/>
      <point x="336" y="195" type="line"/>
      <point x="367" y="451" type="line"/>
      <point x="491" y="451" type="line"/>
      <point x="448" y="98" type="line"/>
    </contour>
    <contour>
      <point x="293" y="514" type="curve" smooth="yes"/>
      <point x="371" y="514"/>
      <point x="407" y="561"/>
      <point x="407" y="617" type="curve" smooth="yes"/>
      <point x="407" y="666"/>
      <point x="380" y="698"/>
      <point x="314" y="698" type="curve" smooth="yes"/>
      <point x="238" y="698"/>
      <point x="200" y="655"/>
      <point x="200" y="596" type="curve" smooth="yes"/>
      <point x="200" y="544"/>
      <point x="230" y="514"/>
    </contour>
    <contour>
      <point x="299" y="574" type="curve" smooth="yes"/>
      <point x="282" y="574"/>
      <point x="279" y="582"/>
      <point x="279" y="599" type="curve" smooth="yes"/>
      <point x="279" y="626"/>
      <point x="287" y="638"/>
      <point x="307" y="638" type="curve" smooth="yes"/>
      <point x="326" y="638"/>
      <point x="329" y="627"/>
      <point x="329" y="613" type="curve" smooth="yes"/>
      <point x="329" y="584"/>
      <point x="317" y="574"/>
    </contour>
  </outline>
</glyph>
<glyph name="Ycircumflex" format="1">
  <advance width="621"/>
  <unicode hex="0176"/>
  <outline>
    <contour>
      <point x="639" y="536" type="line"/>
      <point x="585" y="536" type="line"/>
      <point x="374" y="254" type="line"/>
      <point x="360" y="114" type="line"/>
      <point x="461" y="114" type="line"/>
      <point x="449" y="0" type="line"/>
      <point x="123" y="0" type="line"/>
      <point x="135" y="114" type="line"/>
      <point x="231" y="114" type="line"/>
      <point x="245" y="256" type="line"/>
      <point x="87" y="536" type="line"/>
      <point x="32" y="536" type="line"/>
      <point x="44" y="650" type="line"/>
      <point x="302" y="650" type="line"/>
      <point x="290" y="536" type="line"/>
      <point x="238" y="536" type="line"/>
      <point x="326" y="372" type="line"/>
      <point x="332" y="372" type="line"/>
      <point x="452" y="536" type="line"/>
      <point x="393" y="536" type="line"/>
      <point x="405" y="650" type="line"/>
      <point x="651" y="650" type="line"/>
    </contour>
    <contour>
      <point x="393" y="844" type="line"/>
      <point x="349" y="844" type="line"/>
      <point x="204" y="737" type="line"/>
      <point x="228" y="685" type="line"/>
      <point x="357" y="745" type="line"/>
      <point x="482" y="685" type="line"/>
      <point x="515" y="737" type="line"/>
    </contour>
  </outline>
</glyph>
<glyph name="zacute" format="1">
  <advance width="451"/>
  <unicode hex="017A"/>
  <outline>
    <contour>
      <point x="420" y="600" type="line"/>
      <point x="361" y="700" type="line"/>
      <point x="187" y="557" type="line"/>
      <point x="216" y="508" type="line"/>
    </contour>
    <contour>
      <point x="388" y="0" type="line"/>
      <point x="432" y="158" type="line"/>
      <point x="334" y="168" type="line"/>
      <point x="305" y="98" type="line"/>
      <point x="162" y="98" type="line"/>
      <point x="434" y="383" type="line"/>
      <point x="419" y="451" type="line"/>
      <point x="58" y="451" type="line"/>
      <point x="27" y="293" type="line"/>
      <point x="117" y="283" type="line"/>
      <point x="143" y="353" type="line"/>
      <point x="270" y="353" type="line"/>
      <point x="-3" y="68" type="line"/>
      <point x="7" y="0" type="line"/>
    </contour>
  </outline>
</glyph>
<glyph name="zcaron" format="1">
  <advance width="451"/>
  <unicode hex="017E"/>
  <outline>
    <contour>
      <point x="230" y="507" type="line"/>
      <point x="274" y="507" type="line"/>
      <point x="420" y="633" type="line"/>
      <point x="390" y="684" type="line"/>
      <point x="267" y="613" type="line"/>
      <point x="148" y="683" type="line"/>
      <point x="110" y="634" type="line"/>
    </contour>
    <contour>
      <point x="388" y="0" type="line"/>
      <point x="432" y="158" type="line"/>
      <point x="334" y="168" type="line"/>
      <point x="305" y="98" type="line"/>
      <point x="162" y="98" type="line"/>
      <point x="434" y="383" type="line"/>
      <point x="419" y="451" type="line"/>
      <point x="58" y="451" type="line"/>
      <point x="27" y="293" type="line"/>
      <point x="117" y="283" type="line"/>
      <point x="143" y="353" type="line"/>
      <point x="270" y="353" type="line"/>
      <point x="-3" y="68" type="line"/>
      <point x="7" y="0" type="line"/>
    </contour>
  </outline>
</glyph>
<glyph name="uni018F" format="1">
  <advance width="674"/>
  <unicode hex="018F"/>
  <outline>
    <contour>
      <point x="163" y="437" type="line"/>
      <point x="186" y="516" type="line"/>
      <point x="235" y="532"/>
      <point x="283" y="540"/>
      <point x="325" y="540" type="curve" smooth="yes"/>
      <point x="424" y="540"/>
      <point x="505" y="495"/>
      <point x="513" y="368" type="curve"/>
      <point x="39" y="368" type="line"/>
      <point x="29" y="271" type="line"/>
      <point x="14" y="91"/>
      <point x="122" y="-10"/>
      <point x="299" y="-10" type="curve" smooth="yes"/>
      <point x="538" y="-10"/>
      <point x="658" y="173"/>
      <point x="658" y="366" type="curve" smooth="yes"/>
      <point x="658" y="517"/>
      <point x="568" y="660"/>
      <point x="334" y="660" type="curve" smooth="yes"/>
      <point x="247" y="660"/>
      <point x="181" y="643"/>
      <point x="103" y="621" type="curve"/>
      <point x="63" y="448" type="line"/>
    </contour>
    <contour>
      <point x="508" y="275" type="line"/>
      <point x="494" y="189"/>
      <point x="448" y="108"/>
      <point x="319" y="108" type="curve" smooth="yes"/>
      <point x="162" y="108"/>
      <point x="168" y="227"/>
      <point x="172" y="272" type="curve" smooth="yes"/>
      <point x="172" y="275" type="line"/>
    </contour>
  </outline>
</glyph>
<glyph name="florin" format="1">
  <advance width="356"/>
  <unicode hex="0192"/>
  <outline>
    <contour>
      <point x="29" y="289" type="line"/>
      <point x="93" y="289" type="line"/>
      <point x="108" y="381" type="line" smooth="yes"/>
      <point x="124" y="478"/>
      <point x="204" y="529"/>
      <point x="299" y="529" type="curve" smooth="yes"/>
      <point x="315" y="529"/>
      <point x="344" y="528"/>
      <point x="364" y="525" type="curve"/>
      <point x="354" y="439" type="line"/>
      <point x="335" y="442"/>
      <point x="319" y="444"/>
      <point x="305" y="444" type="curve" smooth="yes"/>
      <point x="263" y="444"/>
      <point x="240" y="428"/>
      <point x="233" y="379" type="curve"/>
      <point x="218" y="289" type="line"/>
      <point x="314" y="289" type="line"/>
      <point x="306" y="214" type="line"/>
      <point x="206" y="214" type="line"/>
      <point x="175" y="18" type="line" smooth="yes"/>
      <point x="165" y="-45"/>
      <point x="119" y="-112"/>
      <point x="-1" y="-112" type="curve" smooth="yes"/>
      <point x="-13" y="-112"/>
      <point x="-23" y="-111"/>
      <point x="-45" y="-108" type="curve"/>
      <point x="-36" y="-24" type="line"/>
      <point x="-17" y="-28"/>
      <point x="-15" y="-28"/>
      <point x="-4" y="-28" type="curve" smooth="yes"/>
      <point x="26" y="-28"/>
      <point x="42" y="-25"/>
      <point x="53" y="44" type="curve" smooth="yes"/>
      <point x="80" y="214" type="line"/>
      <point x="21" y="214" type="line"/>
    </contour>
  </outline>
</glyph>
<glyph name="uni01C7" format="1">
  <advance width="1000"/>
  <unicode hex="01C7"/>
  <outline>
    <contour>
      <point x="482" y="0" type="line"/>
      <point x="526" y="230" type="line"/>
      <point x="418" y="240" type="line"/>
      <point x="386" y="114" type="line"/>
      <point x="217" y="114" type="line"/>
      <point x="261" y="536" type="line"/>
      <point x="352" y="536" type="line"/>
      <point x="364" y="650" type="line"/>
      <point x="75" y="650" type="line"/>
      <point x="63" y="536" type="line"/>
      <point x="132" y="536" type="line"/>
      <point x="88" y="114" type="line"/>
      <point x="19" y="114" type="line"/>
      <point x="7" y="0" type="line"/>
    </contour>
    <contour>
      <point x="714" y="650" type="line"/>
      <point x="1010" y="650" type="line"/>
      <point x="998" y="536" type="line"/>
      <point x="941" y="536" type="line"/>
      <point x="904" y="185" type="line" smooth="yes"/>
      <point x="890" y="54"/>
      <point x="807" y="-10"/>
      <point x="694" y="-10" type="curve" smooth="yes"/>
      <point x="587" y="-10"/>
      <point x="540" y="47"/>
      <point x="520" y="113" type="curve"/>
      <point x="617" y="184" type="line"/>
      <point x="633" y="125"/>
      <point x="664" y="114"/>
      <point x="695" y="114" type="curve" smooth="yes"/>
      <point x="746" y="114"/>
      <point x="770" y="144"/>
      <point x="774" y="184" type="curve" smooth="yes"/>
      <point x="811" y="536" type="line"/>
      <point x="702" y="536" type="line"/>
    </contour>
  </outline>
</glyph>
<glyph name="uni01CA" format="1">
  <advance width="1186"/>
  <unicode hex="01CA"/>
  <outline>
    <contour>
      <point x="23" y="114" type="line"/>
      <point x="91" y="114" type="line"/>
      <point x="135" y="536" type="line"/>
      <point x="57" y="536" type="line"/>
      <point x="69" y="650" type="line"/>
      <point x="239" y="650" type="line"/>
      <point x="514" y="264" type="line"/>
      <point x="517" y="264" type="line"/>
      <point x="545" y="536" type="line"/>
      <point x="455" y="536" type="line"/>
      <point x="467" y="650" type="line"/>
      <point x="745" y="650" type="line"/>
      <point x="733" y="536" type="line"/>
      <point x="665" y="536" type="line"/>
      <point x="609" y="0" type="line"/>
      <point x="537" y="-1" type="line"/>
      <point x="245" y="412" type="line"/>
      <point x="242" y="412" type="line"/>
      <point x="211" y="114" type="line"/>
      <point x="297" y="114" type="line"/>
      <point x="285" y="0" type="line"/>
      <point x="11" y="0" type="line"/>
    </contour>
    <contour>
      <point x="900" y="650" type="line"/>
      <point x="1196" y="650" type="line"/>
      <point x="1184" y="536" type="line"/>
      <point x="1127" y="536" type="line"/>
      <point x="1090" y="185" type="line" smooth="yes"/>
      <point x="1076" y="54"/>
      <point x="993" y="-10"/>
      <point x="880" y="-10" type="curve" smooth="yes"/>
      <point x="773" y="-10"/>
      <point x="726" y="47"/>
      <point x="706" y="113" type="curve"/>
      <point x="803" y="184" type="line"/>
      <point x="819" y="125"/>
      <point x="850" y="114"/>
      <point x="881" y="114" type="curve" smooth="yes"/>
      <point x="932" y="114"/>
      <point x="956" y="144"/>
      <point x="960" y="184" type="curve" smooth="yes"/>
      <point x="997" y="536" type="line"/>
      <point x="888" y="536" type="line"/>
    </contour>
  </outline>
</glyph>
<glyph name="uni01CC" format="1">
  <advance width="795"/>
  <unicode hex="01CC"/>
  <outline>
    <contour>
      <point x="61" y="451" type="line"/>
      <point x="200" y="451" type="line"/>
      <point x="205" y="365" type="line"/>
      <point x="236" y="422"/>
      <point x="283" y="460"/>
      <point x="350" y="460" type="curve" smooth="yes"/>
      <point x="431" y="460"/>
      <point x="495" y="411"/>
      <point x="482" y="304" type="curve" smooth="yes"/>
      <point x="457" y="98" type="line"/>
      <point x="515" y="98" type="line"/>
      <point x="506" y="25" type="line"/>
      <point x="476" y="0" type="line"/>
      <point x="322" y="0" type="line"/>
      <point x="353" y="254" type="line" smooth="yes"/>
      <point x="363" y="332"/>
      <point x="341" y="362"/>
      <point x="292" y="362" type="curve" smooth="yes"/>
      <point x="236" y="362"/>
      <point x="207" y="324"/>
      <point x="197" y="267" type="curve"/>
      <point x="165" y="0" type="line"/>
      <point x="41" y="0" type="line"/>
      <point x="84" y="353" type="line"/>
      <point x="21" y="353" type="line"/>
      <point x="30" y="424" type="line"/>
    </contour>
    <contour>
      <point x="565" y="424" type="line"/>
      <point x="596" y="451" type="line"/>
      <point x="765" y="451" type="line"/>
      <point x="711" y="16" type="line" smooth="yes"/>
      <point x="694" y="-120"/>
      <point x="648" y="-222"/>
      <point x="553" y="-222" type="curve" smooth="yes"/>
      <point x="512" y="-222"/>
      <point x="479" y="-210"/>
      <point x="453" y="-192" type="curve"/>
      <point x="458" y="-109" type="line"/>
      <point x="525" y="-135"/>
      <point x="570" y="-128"/>
      <point x="588" y="16" type="curve" smooth="yes"/>
      <point x="629" y="353" type="line"/>
      <point x="556" y="353" type="line"/>
    </contour>
    <contour>
      <point x="651" y="531" type="line"/>
      <point x="771" y="531" type="line"/>
      <point x="785" y="665" type="line"/>
      <point x="665" y="665" type="line"/>
    </contour>
  </outline>
</glyph>
<glyph name="uni01F1" format="1">
  <advance width="1233"/>
  <unicode hex="01F1"/>
  <outline>
    <contour>
      <point x="363" y="650" type="line" smooth="yes"/>
      <point x="559" y="650"/>
      <point x="655" y="540"/>
      <point x="655" y="363" type="curve" smooth="yes"/>
      <point x="655" y="152"/>
      <point x="518" y="0"/>
      <point x="303" y="0" type="curve" smooth="yes"/>
      <point x="9" y="0" type="line"/>
      <point x="21" y="114" type="line"/>
      <point x="89" y="114" type="line"/>
      <point x="133" y="536" type="line"/>
      <point x="65" y="536" type="line"/>
      <point x="77" y="650" type="line"/>
    </contour>
    <contour>
      <point x="1172" y="0" type="line"/>
      <point x="1216" y="224" type="line"/>
      <point x="1105" y="234" type="line"/>
      <point x="1072" y="114" type="line"/>
      <point x="859" y="114" type="line"/>
      <point x="859" y="116" type="line"/>
      <point x="1227" y="589" type="line"/>
      <point x="1226" y="650" type="line"/>
      <point x="762" y="650" type="line"/>
      <point x="721" y="445" type="line"/>
      <point x="832" y="435" type="line"/>
      <point x="861" y="536" type="line"/>
      <point x="1031" y="536" type="line"/>
      <point x="1031" y="535" type="line"/>
      <point x="665" y="69" type="line"/>
      <point x="668" y="0" type="line"/>
    </contour>
    <contour>
      <point x="305" y="114" type="line" smooth="yes"/>
      <point x="441" y="114"/>
      <point x="517" y="196"/>
      <point x="517" y="350" type="curve" smooth="yes"/>
      <point x="517" y="479"/>
      <point x="464" y="536"/>
      <point x="349" y="536" type="curve" smooth="yes"/>
      <point x="261" y="536" type="line"/>
      <point x="217" y="114" type="line"/>
    </contour>
  </outline>
</glyph>
<glyph name="uni01F2" format="1">
  <advance width="1123"/>
  <unicode hex="01F2"/>
  <outline>
    <contour>
      <point x="363" y="650" type="line" smooth="yes"/>
      <point x="559" y="650"/>
      <point x="655" y="540"/>
      <point x="655" y="363" type="curve" smooth="yes"/>
      <point x="655" y="152"/>
      <point x="518" y="0"/>
      <point x="303" y="0" type="curve" smooth="yes"/>
      <point x="9" y="0" type="line"/>
      <point x="21" y="114" type="line"/>
      <point x="89" y="114" type="line"/>
      <point x="133" y="536" type="line"/>
      <point x="65" y="536" type="line"/>
      <point x="77" y="650" type="line"/>
    </contour>
    <contour>
      <point x="1061" y="0" type="line"/>
      <point x="1105" y="158" type="line"/>
      <point x="1007" y="168" type="line"/>
      <point x="978" y="98" type="line"/>
      <point x="835" y="98" type="line"/>
      <point x="1107" y="383" type="line"/>
      <point x="1092" y="451" type="line"/>
      <point x="731" y="451" type="line"/>
      <point x="700" y="293" type="line"/>
      <point x="790" y="283" type="line"/>
      <point x="816" y="353" type="line"/>
      <point x="943" y="353" type="line"/>
      <point x="670" y="68" type="line"/>
      <point x="680" y="0" type="line"/>
    </contour>
    <contour>
      <point x="305" y="114" type="line" smooth="yes"/>
      <point x="441" y="114"/>
      <point x="517" y="196"/>
      <point x="517" y="350" type="curve" smooth="yes"/>
      <point x="517" y="479"/>
      <point x="464" y="536"/>
      <point x="349" y="536" type="curve" smooth="yes"/>
      <point x="261" y="536" type="line"/>
      <point x="217" y="114" type="line"/>
    </contour>
  </outline>
</glyph>
<glyph name="Oslashacute" format="1">
  <advance width="682"/>
  <unicode hex="01FE"/>
  <outline>
    <contour>
      <point x="380" y="660" type="curve" smooth="yes"/>
      <point x="179" y="660"/>
      <point x="25" y="496"/>
      <point x="25" y="290" type="curve" smooth="yes"/>
      <point x="25" y="211"/>
      <point x="48" y="138"/>
      <point x="92" y="84" type="curve"/>
      <point x="25" y="0" type="line"/>
      <point x="138" y="0" type="line"/>
      <point x="160" y="27" type="line"/>
      <point x="201" y="3"/>
      <point x="250" y="-10"/>
      <point x="309" y="-10" type="curve" smooth="yes"/>
      <point x="518" y="-10"/>
      <point x="668" y="161"/>
      <point x="668" y="360" type="curve" smooth="yes"/>
      <point x="668" y="438"/>
      <point x="644" y="510"/>
      <point x="600" y="563" type="curve"/>
      <point x="671" y="650" type="line"/>
      <point x="547" y="650" type="line"/>
      <point x="526" y="624" type="line"/>
      <point x="485" y="647"/>
      <point x="436" y="660"/>
    </contour>
    <contour>
      <point x="329" y="108" type="curve" smooth="yes"/>
      <point x="294" y="108"/>
      <point x="266" y="115"/>
      <point x="243" y="129" type="curve"/>
      <point x="509" y="452" type="line"/>
      <point x="521" y="424"/>
      <point x="528" y="390"/>
      <point x="528" y="350" type="curve" smooth="yes"/>
      <point x="528" y="227"/>
      <point x="464" y="108"/>
    </contour>
    <contour>
      <point x="165" y="302" type="curve" smooth="yes"/>
      <point x="165" y="433"/>
      <point x="241" y="542"/>
      <point x="366" y="542" type="curve" smooth="yes"/>
      <point x="396" y="542"/>
      <point x="423" y="536"/>
      <point x="445" y="523" type="curve"/>
      <point x="184" y="199" type="line"/>
      <point x="171" y="230"/>
      <point x="165" y="265"/>
    </contour>
    <contour>
      <point x="562" y="716" type="line"/>
      <point x="536" y="833" type="line"/>
      <point x="326" y="745" type="line"/>
      <point x="339" y="688" type="line"/>
    </contour>
  </outline>
</glyph>
<glyph name="uni021B" format="1">
  <advance width="359"/>
  <unicode hex="021B"/>
  <outline>
    <contour>
      <point x="23" y="420" type="line"/>
      <point x="57" y="451" type="line"/>
      <point x="86" y="451" type="line"/>
      <point x="98" y="548" type="line"/>
      <point x="137" y="588" type="line"/>
      <point x="227" y="588" type="line"/>
      <point x="210" y="451" type="line"/>
      <point x="345" y="451" type="line"/>
      <point x="336" y="385" type="line"/>
      <point x="302" y="353" type="line"/>
      <point x="198" y="353" type="line"/>
      <point x="173" y="147" type="line" smooth="yes"/>
      <point x="168" y="104"/>
      <point x="179" y="88"/>
      <point x="203" y="88" type="curve" smooth="yes"/>
      <point x="224" y="88"/>
      <point x="246" y="100"/>
      <point x="263" y="169" type="curve"/>
      <point x="350" y="140" type="line"/>
      <point x="325" y="36"/>
      <point x="280" y="-10"/>
      <point x="190" y="-10" type="curve" smooth="yes"/>
      <point x="94" y="-10"/>
      <point x="36" y="42"/>
      <point x="47" y="135" type="curve" smooth="yes"/>
      <point x="74" y="353" type="line"/>
      <point x="14" y="353" type="line"/>
    </contour>
    <contour>
      <point x="255" y="-58" type="line"/>
      <point x="136" y="-58" type="line"/>
      <point x="117" y="-213" type="line"/>
      <point x="213" y="-213" type="line"/>
    </contour>
  </outline>
</glyph>
<glyph name="circumflex" format="1">
  <advance width="331"/>
  <unicode hex="02C6"/>
  <outline>
    <contour>
      <point x="292" y="684" type="line"/>
      <point x="248" y="684" type="line"/>
      <point x="100" y="555" type="line"/>
      <point x="132" y="507" type="line"/>
      <point x="255" y="577" type="line"/>
      <point x="374" y="508" type="line"/>
      <point x="414" y="555" type="line"/>
    </contour>
  </outline>
</glyph>
<glyph name="ogonek" format="1">
  <advance width="274"/>
  <unicode hex="02DB"/>
  <outline>
    <contour>
      <point x="214" y="-188" type="line"/>
      <point x="191" y="-199"/>
      <point x="161" y="-208"/>
      <point x="124" y="-208" type="curve" smooth="yes"/>
      <point x="64" y="-208"/>
      <point x="17" y="-184"/>
      <point x="17" y="-125" type="curve" smooth="yes"/>
      <point x="17" y="-63"/>
      <point x="69" y="-12"/>
      <point x="126" y="12" type="curve"/>
      <point x="195" y="8" type="line"/>
      <point x="136" y="-24"/>
      <point x="130" y="-59"/>
      <point x="130" y="-78" type="curve" smooth="yes"/>
      <point x="130" y="-110"/>
      <point x="146" y="-118"/>
      <point x="168" y="-118" type="curve" smooth="yes"/>
      <point x="183" y="-118"/>
      <point x="201" y="-114"/>
      <point x="214" y="-106" type="curve"/>
    </contour>
  </outline>
</glyph>
<glyph name="Sigma" format="1">
  <advance width="542"/>
  <unicode hex="03A3"/>
  <outline>
    <contour>
      <point x="5" y="0" type="line"/>
      <point x="489" y="0" type="line"/>
      <point x="501" y="114" type="line"/>
      <point x="172" y="114" type="line"/>
      <point x="341" y="299" type="line"/>
      <point x="346" y="339" type="line"/>
      <point x="216" y="536" type="line"/>
      <point x="545" y="536" type="line"/>
      <point x="557" y="650" type="line"/>
      <point x="73" y="650" type="line"/>
      <point x="61" y="536" type="line"/>
      <point x="207" y="314" type="line"/>
      <point x="17" y="114" type="line"/>
    </contour>
  </outline>
</glyph>
<glyph name="uni1E47" format="1">
  <advance width="541"/>
  <unicode hex="1E47"/>
  <outline>
    <contour>
      <point x="61" y="451" type="line"/>
      <point x="200" y="451" type="line"/>
      <point x="205" y="365" type="line"/>
      <point x="236" y="422"/>
      <point x="283" y="460"/>
      <point x="350" y="460" type="curve" smooth="yes"/>
      <point x="431" y="460"/>
      <point x="495" y="411"/>
      <point x="482" y="304" type="curve" smooth="yes"/>
      <point x="457" y="98" type="line"/>
      <point x="515" y="98" type="line"/>
      <point x="506" y="25" type="line"/>
      <point x="476" y="0" type="line"/>
      <point x="322" y="0" type="line"/>
      <point x="353" y="254" type="line" smooth="yes"/>
      <point x="363" y="332"/>
      <point x="341" y="362"/>
      <point x="292" y="362" type="curve" smooth="yes"/>
      <point x="236" y="362"/>
      <point x="207" y="324"/>
      <point x="197" y="267" type="curve"/>
      <point x="165" y="0" type="line"/>
      <point x="41" y="0" type="line"/>
      <point x="84" y="353" type="line"/>
      <point x="21" y="353" type="line"/>
      <point x="30" y="424" type="line"/>
    </contour>
    <contour>
      <point x="166" y="-197" type="line"/>
      <point x="293" y="-197" type="line"/>
      <point x="307" y="-63" type="line"/>
      <point x="180" y="-63" type="line"/>
    </contour>
  </outline>
</glyph>
<glyph name="uni1E63" format="1">
  <advance width="441"/>
  <unicode hex="1E63"/>
  <outline>
    <contour>
      <point x="198" y="88" type="curve"/>
      <point x="240" y="88"/>
      <point x="270" y="103"/>
      <point x="270" y="131" type="curve" smooth="yes"/>
      <point x="270" y="170"/>
      <point x="213" y="175"/>
      <point x="156" y="191" type="curve" smooth="yes"/>
      <point x="98" y="207"/>
      <point x="39" y="234"/>
      <point x="39" y="315" type="curve" smooth="yes"/>
      <point x="39" y="422"/>
      <point x="139" y="460"/>
      <point x="234" y="460" type="curve" smooth="yes"/>
      <point x="283" y="460"/>
      <point x="354" y="450"/>
      <point x="407" y="419" type="curve"/>
      <point x="406" y="304" type="line"/>
      <point x="307" y="293" type="line"/>
      <point x="305" y="349" type="line"/>
      <point x="282" y="357"/>
      <point x="255" y="362"/>
      <point x="234" y="362" type="curve"/>
      <point x="207" y="362"/>
      <point x="168" y="351"/>
      <point x="168" y="322" type="curve" smooth="yes"/>
      <point x="168" y="294"/>
      <point x="205" y="289"/>
      <point x="263" y="274" type="curve" smooth="yes"/>
      <point x="323" y="258"/>
      <point x="400" y="234"/>
      <point x="400" y="139" type="curve" smooth="yes"/>
      <point x="400" y="36"/>
      <point x="310" y="-10"/>
      <point x="204" y="-10" type="curve" smooth="yes"/>
      <point x="147" y="-10"/>
      <point x="57" y="3"/>
      <point x="1" y="34" type="curve"/>
      <point x="32" y="160" type="line"/>
      <point x="129" y="149" type="line"/>
      <point x="124" y="97" type="line"/>
      <point x="147" y="89"/>
      <point x="184" y="88"/>
    </contour>
    <contour>
      <point x="109" y="-197" type="line"/>
      <point x="236" y="-197" type="line"/>
      <point x="250" y="-63" type="line"/>
      <point x="123" y="-63" type="line"/>
    </contour>
  </outline>
</glyph>
<glyph name="Wgrave" format="1">
  <advance width="950"/>
  <unicode hex="1E80"/>
  <outline>
    <contour>
      <point x="965" y="536" type="line"/>
      <point x="914" y="536" type="line"/>
      <point x="687" y="0" type="line"/>
      <point x="596" y="0" type="line"/>
      <point x="493" y="420" type="line"/>
      <point x="488" y="420" type="line"/>
      <point x="304" y="0" type="line"/>
      <point x="211" y="0" type="line"/>
      <point x="85" y="536" type="line"/>
      <point x="31" y="536" type="line"/>
      <point x="43" y="650" type="line"/>
      <point x="291" y="650" type="line"/>
      <point x="279" y="536" type="line"/>
      <point x="222" y="536" type="line"/>
      <point x="282" y="222" type="line"/>
      <point x="288" y="222" type="line"/>
      <point x="432" y="536" type="line"/>
      <point x="383" y="536" type="line"/>
      <point x="395" y="650" type="line"/>
      <point x="644" y="650" type="line"/>
      <point x="632" y="536" type="line"/>
      <point x="587" y="536" type="line"/>
      <point x="664" y="216" type="line"/>
      <point x="670" y="216" type="line"/>
      <point x="785" y="536" type="line"/>
      <point x="719" y="536" type="line"/>
      <point x="731" y="650" type="line"/>
      <point x="977" y="650" type="line"/>
    </contour>
    <contour>
      <point x="618" y="688" type="line"/>
      <point x="631" y="745" type="line"/>
      <point x="421" y="833" type="line"/>
      <point x="395" y="716" type="line"/>
    </contour>
  </outline>
</glyph>
<glyph name="ygrave" format="1">
  <advance width="481"/>
  <unicode hex="1EF3"/>
  <outline>
    <contour>
      <point x="255" y="148" type="line"/>
      <point x="261" y="148" type="line"/>
      <point x="323" y="233"/>
      <point x="349" y="288"/>
      <point x="349" y="358" type="curve" smooth="yes"/>
      <point x="349" y="386"/>
      <point x="343" y="417"/>
      <point x="329" y="451" type="curve"/>
      <point x="468" y="451" type="line"/>
      <point x="482" y="376"/>
      <point x="473" y="288"/>
      <point x="398" y="189" type="curve" smooth="yes"/>
      <point x="373" y="156"/>
      <point x="326" y="102"/>
      <point x="280" y="52" type="curve"/>
      <point x="254" y="-115" type="line"/>
      <point x="317" y="-115" type="line"/>
      <point x="308" y="-186" type="line"/>
      <point x="277" y="-213" type="line"/>
      <point x="46" y="-213" type="line"/>
      <point x="55" y="-142" type="line"/>
      <point x="86" y="-115" type="line"/>
      <point x="130" y="-115" type="line"/>
      <point x="156" y="53" type="line"/>
      <point x="55" y="353" type="line"/>
      <point x="8" y="353" type="line"/>
      <point x="17" y="424" type="line"/>
      <point x="48" y="451" type="line"/>
      <point x="255" y="451" type="line"/>
      <point x="246" y="380" type="line"/>
      <point x="215" y="353" type="line"/>
      <point x="188" y="353" type="line"/>
    </contour>
    <contour>
      <point x="336" y="508" type="line"/>
      <point x="365" y="557" type="line"/>
      <point x="191" y="700" type="line"/>
      <point x="132" y="600" type="line"/>
    </contour>
  </outline>
</glyph>
<glyph name="emdash" format="1">
  <advance width="1008"/>
  <unicode hex="2014"/>
  <outline>
    <contour>
      <point x="43" y="278" type="line"/>
      <point x="964" y="278" type="line"/>
      <point x="955" y="193" type="line"/>
      <point x="34" y="193" type="line"/>
    </contour>
  </outline>
</glyph>
<glyph name="quotedblleft" format="1">
  <advance width="395"/>
  <unicode hex="201C"/>
  <outline>
    <contour>
      <point x="252" y="669" type="line"/>
      <point x="128" y="669" type="line"/>
      <point x="44" y="435" type="line"/>
      <point x="168" y="435" type="line"/>
    </contour>
    <contour>
      <point x="424" y="669" type="line"/>
      <point x="300" y="669" type="line"/>
      <point x="216" y="435" type="line"/>
      <point x="340" y="435" type="line"/>
    </contour>
  </outline>
</glyph>
<glyph name="quotedblright" format="1">
  <advance width="387"/>
  <unicode hex="201D"/>
  <outline>
    <contour>
      <point x="28" y="436" type="line"/>
      <point x="152" y="436" type="line"/>
      <point x="236" y="670" type="line"/>
      <point x="112" y="670" type="line"/>
    </contour>
    <contour>
      <point x="200" y="436" type="line"/>
      <point x="324" y="436" type="line"/>
      <point x="408" y="670" type="line"/>
      <point x="284" y="670" type="line"/>
    </contour>
  </outline>
</glyph>
<glyph name="bullet" format="1">
  <advance width="343"/>
  <unicode hex="2022"/>
  <outline>
    <contour>
      <point x="44" y="231" type="curve" smooth="yes"/>
      <point x="44" y="167"/>
      <point x="89" y="117"/>
      <point x="155" y="117" type="curve" smooth="yes"/>
      <point x="228" y="117"/>
      <point x="292" y="178"/>
      <point x="292" y="254" type="curve" smooth="yes"/>
      <point x="292" y="319"/>
      <point x="245" y="369"/>
      <point x="180" y="369" type="curve" smooth="yes"/>
      <point x="108" y="369"/>
      <point x="44" y="307"/>
    </contour>
  </outline>
</glyph>
<glyph name="ellipsis" format="1">
  <advance width="647"/>
  <unicode hex="2026"/>
  <outline>
    <contour>
      <point x="10" y="0" type="line"/>
      <point x="160" y="0" type="line"/>
      <point x="177" y="163" type="line"/>
      <point x="27" y="163" type="line"/>
    </contour>
    <contour>
      <point x="222" y="0" type="line"/>
      <point x="372" y="0" type="line"/>
      <point x="389" y="163" type="line"/>
      <point x="239" y="163" type="line"/>
    </contour>
    <contour>
      <point x="433" y="0" type="line"/>
      <point x="583" y="0" type="line"/>
      <point x="600" y="163" type="line"/>
      <point x="450" y="163" type="line"/>
    </contour>
  </outline>
</glyph>
<glyph name="guilsinglright" format="1">
  <advance width="294"/>
  <unicode hex="203A"/>
  <outline>
    <contour>
      <point x="108" y="25" type="line"/>
      <point x="269" y="271" type="line"/>
      <point x="159" y="511" type="line"/>
      <point x="54" y="511" type="line"/>
      <point x="144" y="271" type="line"/>
      <point x="3" y="25" type="line"/>
    </contour>
  </outline>
</glyph>
<glyph name="foursuperior" format="1">
  <advance width="361"/>
  <unicode hex="2074"/>
  <outline>
    <contour>
      <point x="200" y="415" type="line"/>
      <point x="298" y="415" type="line"/>
      <point x="307" y="505" type="line"/>
      <point x="358" y="505" type="line"/>
      <point x="373" y="574" type="line"/>
      <point x="314" y="574" type="line"/>
      <point x="336" y="779" type="line"/>
      <point x="170" y="779" type="line"/>
      <point x="46" y="578" type="line"/>
      <point x="48" y="505" type="line"/>
      <point x="209" y="505" type="line"/>
    </contour>
    <contour>
      <point x="206" y="704" type="line"/>
      <point x="230" y="704" type="line"/>
      <point x="216" y="574" type="line"/>
      <point x="128" y="574" type="line"/>
    </contour>
  </outline>
</glyph>
<glyph name="sixsuperior" format="1">
  <advance width="341"/>
  <unicode hex="2076"/>
  <outline>
    <contour>
      <point x="237" y="710" type="curve" smooth="yes"/>
      <point x="260" y="710"/>
      <point x="277" y="703"/>
      <point x="293" y="681" type="curve"/>
      <point x="352" y="738" type="line"/>
      <point x="326" y="769"/>
      <point x="281" y="785"/>
      <point x="233" y="785" type="curve" smooth="yes"/>
      <point x="106" y="785"/>
      <point x="57" y="672"/>
      <point x="57" y="568" type="curve" smooth="yes"/>
      <point x="57" y="469"/>
      <point x="101" y="409"/>
      <point x="190" y="409" type="curve" smooth="yes"/>
      <point x="277" y="409"/>
      <point x="344" y="467"/>
      <point x="344" y="552" type="curve" smooth="yes"/>
      <point x="344" y="600"/>
      <point x="322" y="654"/>
      <point x="249" y="654" type="curve" smooth="yes"/>
      <point x="204" y="654"/>
      <point x="177" y="633"/>
      <point x="163" y="609" type="curve"/>
      <point x="170" y="685"/>
      <point x="194" y="710"/>
    </contour>
    <contour>
      <point x="207" y="583" type="curve" smooth="yes"/>
      <point x="234" y="583"/>
      <point x="243" y="568"/>
      <point x="243" y="542" type="curve" smooth="yes"/>
      <point x="243" y="510"/>
      <point x="230" y="487"/>
      <point x="197" y="487" type="curve" smooth="yes"/>
      <point x="168" y="487"/>
      <point x="162" y="505"/>
      <point x="161" y="544" type="curve"/>
      <point x="166" y="571"/>
      <point x="184" y="583"/>
    </contour>
  </outline>
</glyph>
<glyph name="sevensuperior" format="1">
  <advance width="313"/>
  <unicode hex="2077"/>
  <outline>
    <contour>
      <point x="71" y="779" type="line"/>
      <point x="57" y="644" type="line"/>
      <point x="142" y="644" type="line"/>
      <point x="148" y="705" type="line"/>
      <point x="244" y="705" type="line"/>
      <point x="94" y="414" type="line"/>
      <point x="191" y="414" type="line"/>
      <point x="355" y="739" type="line"/>
      <point x="348" y="779" type="line"/>
    </contour>
  </outline>
</glyph>
<glyph name="eightsuperior" format="1">
  <advance width="344"/>
  <unicode hex="2078"/>
  <outline>
    <contour>
      <point x="181" y="409" type="curve" smooth="yes"/>
      <point x="274" y="409"/>
      <point x="345" y="448"/>
      <point x="345" y="525" type="curve" smooth="yes"/>
      <point x="345" y="571"/>
      <point x="315" y="598"/>
      <point x="281" y="618" type="curve"/>
      <point x="319" y="634"/>
      <point x="350" y="656"/>
      <point x="350" y="701" type="curve" smooth="yes"/>
      <point x="350" y="752"/>
      <point x="302" y="785"/>
      <point x="226" y="785" type="curve" smooth="yes"/>
      <point x="137" y="785"/>
      <point x="76" y="741"/>
      <point x="76" y="674" type="curve" smooth="yes"/>
      <point x="76" y="634"/>
      <point x="100" y="610"/>
      <point x="130" y="591" type="curve"/>
      <point x="88" y="574"/>
      <point x="50" y="551"/>
      <point x="50" y="497" type="curve" smooth="yes"/>
      <point x="50" y="439"/>
      <point x="103" y="409"/>
    </contour>
    <contour>
      <point x="184" y="688" type="curve" smooth="yes"/>
      <point x="184" y="700"/>
      <point x="191" y="714"/>
      <point x="219" y="714" type="curve" smooth="yes"/>
      <point x="231" y="714"/>
      <point x="249" y="710"/>
      <point x="249" y="684" type="curve" smooth="yes"/>
      <point x="249" y="667"/>
      <point x="243" y="653"/>
      <point x="234" y="643" type="curve"/>
      <point x="206" y="656"/>
      <point x="184" y="669"/>
    </contour>
    <contour>
      <point x="193" y="480" type="curve" smooth="yes"/>
      <point x="162" y="480"/>
      <point x="151" y="498"/>
      <point x="151" y="519" type="curve" smooth="yes"/>
      <point x="151" y="540"/>
      <point x="160" y="556"/>
      <point x="174" y="568" type="curve"/>
      <point x="207" y="551"/>
      <point x="237" y="537"/>
      <point x="237" y="512" type="curve" smooth="yes"/>
      <point x="237" y="498"/>
      <point x="226" y="480"/>
    </contour>
  </outline>
</glyph>
<glyph name="ninesuperior" format="1">
  <advance width="344"/>
  <unicode hex="2079"/>
  <outline>
    <contour>
      <point x="174" y="484" type="curve" smooth="yes"/>
      <point x="151" y="484"/>
      <point x="134" y="491"/>
      <point x="118" y="513" type="curve"/>
      <point x="59" y="456" type="line"/>
      <point x="85" y="425"/>
      <point x="130" y="409"/>
      <point x="178" y="409" type="curve" smooth="yes"/>
      <point x="305" y="409"/>
      <point x="354" y="522"/>
      <point x="354" y="626" type="curve" smooth="yes"/>
      <point x="354" y="725"/>
      <point x="306" y="785"/>
      <point x="217" y="785" type="curve" smooth="yes"/>
      <point x="130" y="785"/>
      <point x="66" y="729"/>
      <point x="66" y="644" type="curve" smooth="yes"/>
      <point x="66" y="596"/>
      <point x="89" y="540"/>
      <point x="162" y="540" type="curve" smooth="yes"/>
      <point x="207" y="540"/>
      <point x="233" y="560"/>
      <point x="248" y="584" type="curve"/>
      <point x="241" y="509"/>
      <point x="217" y="484"/>
    </contour>
    <contour>
      <point x="204" y="611" type="curve" smooth="yes"/>
      <point x="177" y="611"/>
      <point x="168" y="626"/>
      <point x="168" y="652" type="curve" smooth="yes"/>
      <point x="168" y="684"/>
      <point x="181" y="707"/>
      <point x="214" y="707" type="curve" smooth="yes"/>
      <point x="241" y="707"/>
      <point x="249" y="688"/>
      <point x="250" y="649" type="curve"/>
      <point x="244" y="623"/>
      <point x="227" y="611"/>
    </contour>
  </outline>
</glyph>
<glyph name="plussuperior" format="1">
  <advance width="267"/>
  <unicode hex="207A"/>
  <outline>
    <contour>
      <point x="51" y="567" type="line"/>
      <point x="132" y="567" type="line"/>
      <point x="124" y="485" type="line"/>
      <point x="190" y="485" type="line"/>
      <point x="198" y="567" type="line"/>
      <point x="278" y="567" type="line"/>
      <point x="284" y="628" type="line"/>
      <point x="205" y="628" type="line"/>
      <point x="214" y="711" type="line"/>
      <point x="148" y="711" type="line"/>
      <point x="139" y="628" type="line"/>
      <point x="57" y="628" type="line"/>
    </contour>
  </outline>
</glyph>
<glyph name="equalsuperior" format="1">
  <advance width="351"/>
  <unicode hex="207C"/>
  <outline>
    <contour>
      <point x="72" y="628" type="line"/>
      <point x="352" y="628" type="line"/>
      <point x="359" y="690" type="line"/>
      <point x="79" y="690" type="line"/>
    </contour>
    <contour>
      <point x="59" y="504" type="line"/>
      <point x="339" y="504" type="line"/>
      <point x="345" y="565" type="line"/>
      <point x="65" y="565" type="line"/>
    </contour>
  </outline>
</glyph>
<glyph name="parenleftsuperior" format="1">
  <advance width="221"/>
  <unicode hex="207D"/>
  <outline>
    <contour>
      <point x="180" y="817" type="curve"/>
      <point x="262" y="817" type="line"/>
      <point x="180" y="728"/>
      <point x="136" y="636"/>
      <point x="136" y="536" type="curve" smooth="yes"/>
      <point x="136" y="460"/>
      <point x="160" y="379"/>
      <point x="209" y="313" type="curve"/>
      <point x="126" y="313" type="line"/>
      <point x="79" y="383"/>
      <point x="57" y="461"/>
      <point x="57" y="534" type="curve" smooth="yes"/>
      <point x="57" y="632"/>
      <point x="96" y="726"/>
    </contour>
  </outline>
</glyph>
<glyph name="parenrightsuperior" format="1">
  <advance width="221"/>
  <unicode hex="207E"/>
  <outline>
    <contour>
      <point x="101" y="313" type="curve"/>
      <point x="19" y="313" type="line"/>
      <point x="101" y="402"/>
      <point x="145" y="494"/>
      <point x="145" y="594" type="curve" smooth="yes"/>
      <point x="145" y="670"/>
      <point x="121" y="751"/>
      <point x="72" y="817" type="curve"/>
      <point x="155" y="817" type="line"/>
      <point x="203" y="748"/>
      <point x="224" y="669"/>
      <point x="224" y="597" type="curve" smooth="yes"/>
      <point x="224" y="498"/>
      <point x="185" y="404"/>
    </contour>
  </outline>
</glyph>
<glyph name="n.superior" format="1">
  <advance width="384"/>
  <unicode hex="207F"/>
  <outline>
    <contour>
      <point x="83" y="709" type="line"/>
      <point x="179" y="709" type="line"/>
      <point x="183" y="654" type="line"/>
      <point x="203" y="690"/>
      <point x="234" y="715"/>
      <point x="279" y="715" type="curve" smooth="yes"/>
      <point x="333" y="715"/>
      <point x="377" y="684"/>
      <point x="368" y="617" type="curve" smooth="yes"/>
      <point x="352" y="488" type="line"/>
      <point x="389" y="488" type="line"/>
      <point x="382" y="433" type="line"/>
      <point x="361" y="415" type="line"/>
      <point x="255" y="415" type="line"/>
      <point x="275" y="578" type="line"/>
      <point x="282" y="624"/>
      <point x="268" y="643"/>
      <point x="237" y="643" type="curve" smooth="yes"/>
      <point x="201" y="643"/>
      <point x="184" y="621"/>
      <point x="177" y="586" type="curve"/>
      <point x="156" y="415" type="line"/>
      <point x="67" y="415" type="line"/>
      <point x="95" y="637" type="line"/>
      <point x="54" y="637" type="line"/>
      <point x="61" y="690" type="line"/>
    </contour>
  </outline>
</glyph>
<glyph name="oneinferior" format="1">
  <advance width="274"/>
  <unicode hex="2081"/>
  <outline>
    <contour>
      <point x="6" y="75" type="line"/>
      <point x="77" y="75" type="line"/>
      <point x="99" y="289" type="line"/>
      <point x="28" y="289" type="line"/>
      <point x="36" y="364" type="line"/>
      <point x="206" y="364" type="line"/>
      <point x="176" y="75" type="line"/>
      <point x="240" y="75" type="line"/>
      <point x="232" y="0" type="line"/>
      <point x="-2" y="0" type="line"/>
    </contour>
  </outline>
</glyph>
<glyph name="twoinferior" format="1">
  <advance width="360"/>
  <unicode hex="2082"/>
  <outline>
    <contour>
      <point x="104" y="239" type="line"/>
      <point x="118" y="284" type="line"/>
      <point x="133" y="292"/>
      <point x="151" y="295"/>
      <point x="164" y="295" type="curve" smooth="yes"/>
      <point x="192" y="295"/>
      <point x="209" y="281"/>
      <point x="209" y="262" type="curve" smooth="yes"/>
      <point x="209" y="211"/>
      <point x="91" y="133"/>
      <point x="2" y="70" type="curve"/>
      <point x="4" y="0" type="line"/>
      <point x="304" y="0" type="line"/>
      <point x="319" y="114" type="line"/>
      <point x="235" y="124" type="line"/>
      <point x="229" y="75" type="line"/>
      <point x="125" y="75" type="line"/>
      <point x="185" y="115"/>
      <point x="319" y="194"/>
      <point x="319" y="280" type="curve" smooth="yes"/>
      <point x="319" y="323"/>
      <point x="285" y="370"/>
      <point x="188" y="370" type="curve" smooth="yes"/>
      <point x="141" y="370"/>
      <point x="89" y="359"/>
      <point x="53" y="344" type="curve"/>
      <point x="28" y="245" type="line"/>
    </contour>
  </outline>
</glyph>
<glyph name="threeinferior" format="1">
  <advance width="343"/>
  <unicode hex="2083"/>
  <outline>
    <contour>
      <point x="106" y="243" type="line"/>
      <point x="119" y="284" type="line"/>
      <point x="134" y="292"/>
      <point x="147" y="294"/>
      <point x="159" y="294" type="curve" smooth="yes"/>
      <point x="187" y="294"/>
      <point x="197" y="284"/>
      <point x="197" y="263" type="curve" smooth="yes"/>
      <point x="197" y="223"/>
      <point x="163" y="219"/>
      <point x="126" y="217" type="curve"/>
      <point x="120" y="161" type="line"/>
      <point x="163" y="158"/>
      <point x="194" y="153"/>
      <point x="194" y="116" type="curve" smooth="yes"/>
      <point x="194" y="88"/>
      <point x="176" y="68"/>
      <point x="141" y="68" type="curve" smooth="yes"/>
      <point x="105" y="68"/>
      <point x="90" y="88"/>
      <point x="83" y="117" type="curve"/>
      <point x="8" y="92" type="line"/>
      <point x="14" y="20"/>
      <point x="73" y="-7"/>
      <point x="145" y="-7" type="curve" smooth="yes"/>
      <point x="239" y="-7"/>
      <point x="300" y="39"/>
      <point x="300" y="110" type="curve" smooth="yes"/>
      <point x="300" y="149"/>
      <point x="281" y="181"/>
      <point x="237" y="193" type="curve"/>
      <point x="237" y="195" type="line"/>
      <point x="283" y="216"/>
      <point x="306" y="246"/>
      <point x="306" y="283" type="curve" smooth="yes"/>
      <point x="306" y="332"/>
      <point x="265" y="369"/>
      <point x="185" y="369" type="curve" smooth="yes"/>
      <point x="145" y="369"/>
      <point x="90" y="360"/>
      <point x="53" y="344" type="curve"/>
      <point x="31" y="249" type="line"/>
    </contour>
  </outline>
</glyph>
<glyph name="fourinferior" format="1">
  <advance width="361"/>
  <unicode hex="2084"/>
  <outline>
    <contour>
      <point x="156" y="0" type="line"/>
      <point x="254" y="0" type="line"/>
      <point x="263" y="90" type="line"/>
      <point x="314" y="90" type="line"/>
      <point x="329" y="159" type="line"/>
      <point x="270" y="159" type="line"/>
      <point x="292" y="364" type="line"/>
      <point x="126" y="364" type="line"/>
      <point x="2" y="163" type="line"/>
      <point x="4" y="90" type="line"/>
      <point x="165" y="90" type="line"/>
    </contour>
    <contour>
      <point x="162" y="289" type="line"/>
      <point x="186" y="289" type="line"/>
      <point x="172" y="159" type="line"/>
      <point x="84" y="159" type="line"/>
    </contour>
  </outline>
</glyph>
<glyph name="fiveinferior" format="1">
  <advance width="334"/>
  <unicode hex="2085"/>
  <outline>
    <contour>
      <point x="298" y="126" type="curve" smooth="yes"/>
      <point x="298" y="210"/>
      <point x="228" y="232"/>
      <point x="149" y="232" type="curve" smooth="yes"/>
      <point x="131" y="232" type="line"/>
      <point x="137" y="289" type="line"/>
      <point x="202" y="289" type="line"/>
      <point x="204" y="248" type="line"/>
      <point x="287" y="256" type="line"/>
      <point x="289" y="364" type="line"/>
      <point x="54" y="364" type="line"/>
      <point x="35" y="184" type="line"/>
      <point x="62" y="158" type="line"/>
      <point x="81" y="159"/>
      <point x="102" y="161"/>
      <point x="120" y="161" type="curve" smooth="yes"/>
      <point x="160" y="161"/>
      <point x="192" y="151"/>
      <point x="192" y="114" type="curve" smooth="yes"/>
      <point x="192" y="85"/>
      <point x="172" y="68"/>
      <point x="138" y="68" type="curve" smooth="yes"/>
      <point x="102" y="68"/>
      <point x="83" y="86"/>
      <point x="75" y="117" type="curve"/>
      <point x="0" y="92" type="line"/>
      <point x="6" y="20"/>
      <point x="66" y="-7"/>
      <point x="136" y="-7" type="curve" smooth="yes"/>
      <point x="232" y="-7"/>
      <point x="298" y="44"/>
    </contour>
  </outline>
</glyph>
<glyph name="sixinferior" format="1">
  <advance width="342"/>
  <unicode hex="2086"/>
  <outline>
    <contour>
      <point x="194" y="295" type="curve" smooth="yes"/>
      <point x="217" y="295"/>
      <point x="234" y="288"/>
      <point x="250" y="266" type="curve"/>
      <point x="309" y="323" type="line"/>
      <point x="283" y="354"/>
      <point x="238" y="370"/>
      <point x="190" y="370" type="curve" smooth="yes"/>
      <point x="63" y="370"/>
      <point x="14" y="257"/>
      <point x="14" y="153" type="curve" smooth="yes"/>
      <point x="14" y="54"/>
      <point x="58" y="-6"/>
      <point x="147" y="-6" type="curve" smooth="yes"/>
      <point x="234" y="-6"/>
      <point x="301" y="52"/>
      <point x="301" y="137" type="curve" smooth="yes"/>
      <point x="301" y="185"/>
      <point x="279" y="239"/>
      <point x="206" y="239" type="curve" smooth="yes"/>
      <point x="161" y="239"/>
      <point x="134" y="218"/>
      <point x="120" y="194" type="curve"/>
      <point x="127" y="270"/>
      <point x="151" y="295"/>
    </contour>
    <contour>
      <point x="164" y="168" type="curve" smooth="yes"/>
      <point x="191" y="168"/>
      <point x="200" y="153"/>
      <point x="200" y="127" type="curve" smooth="yes"/>
      <point x="200" y="95"/>
      <point x="187" y="72"/>
      <point x="154" y="72" type="curve" smooth="yes"/>
      <point x="125" y="72"/>
      <point x="119" y="90"/>
      <point x="118" y="129" type="curve"/>
      <point x="123" y="156"/>
      <point x="141" y="168"/>
    </contour>
  </outline>
</glyph>
<glyph name="nineinferior" format="1">
  <advance width="343"/>
  <unicode hex="2089"/>
  <outline>
    <contour>
      <point x="130" y="69" type="curve" smooth="yes"/>
      <point x="107" y="69"/>
      <point x="90" y="76"/>
      <point x="74" y="98" type="curve"/>
      <point x="15" y="41" type="line"/>
      <point x="41" y="10"/>
      <point x="86" y="-6"/>
      <point x="134" y="-6" type="curve" smooth="yes"/>
      <point x="261" y="-6"/>
      <point x="310" y="107"/>
      <point x="310" y="211" type="curve" smooth="yes"/>
      <point x="310" y="310"/>
      <point x="262" y="370"/>
      <point x="173" y="370" type="curve" smooth="yes"/>
      <point x="86" y="370"/>
      <point x="22" y="314"/>
      <point x="22" y="229" type="curve" smooth="yes"/>
      <point x="22" y="181"/>
      <point x="45" y="125"/>
      <point x="118" y="125" type="curve" smooth="yes"/>
      <point x="163" y="125"/>
      <point x="189" y="145"/>
      <point x="204" y="169" type="curve"/>
      <point x="197" y="94"/>
      <point x="173" y="69"/>
    </contour>
    <contour>
      <point x="160" y="196" type="curve" smooth="yes"/>
      <point x="133" y="196"/>
      <point x="124" y="211"/>
      <point x="124" y="237" type="curve" smooth="yes"/>
      <point x="124" y="269"/>
      <point x="137" y="292"/>
      <point x="170" y="292" type="curve" smooth="yes"/>
      <point x="197" y="292"/>
      <point x="205" y="273"/>
      <point x="206" y="234" type="curve"/>
      <point x="200" y="208"/>
      <point x="183" y="196"/>
    </contour>
  </outline>
</glyph>
<glyph name="minus.inferior" format="1">
  <advance width="298"/>
  <unicode hex="208B"/>
  <outline>
    <contour>
      <point x="22" y="152" type="line"/>
      <point x="249" y="152" type="line"/>
      <point x="255" y="213" type="line"/>
      <point x="28" y="213" type="line"/>
    </contour>
  </outline>
</glyph>
<glyph name="equal.inferior" format="1">
  <advance width="352"/>
  <unicode hex="208C"/>
  <outline>
    <contour>
      <point x="29" y="213" type="line"/>
      <point x="309" y="213" type="line"/>
      <point x="316" y="275" type="line"/>
      <point x="36" y="275" type="line"/>
    </contour>
    <contour>
      <point x="16" y="89" type="line"/>
      <point x="296" y="89" type="line"/>
      <point x="302" y="150" type="line"/>
      <point x="22" y="150" type="line"/>
    </contour>
  </outline>
</glyph>
<glyph name="parenleft.inferior" format="1">
  <advance width="220"/>
  <unicode hex="208D"/>
  <outline>
    <contour>
      <point x="136" y="402" type="curve"/>
      <point x="218" y="402" type="line"/>
      <point x="136" y="313"/>
      <point x="92" y="221"/>
      <point x="92" y="121" type="curve" smooth="yes"/>
      <point x="92" y="45"/>
      <point x="116" y="-36"/>
      <point x="165" y="-102" type="curve"/>
      <point x="82" y="-102" type="line"/>
      <point x="35" y="-32"/>
      <point x="13" y="46"/>
      <point x="13" y="119" type="curve" smooth="yes"/>
      <point x="13" y="217"/>
      <point x="52" y="311"/>
    </contour>
  </outline>
</glyph>
<glyph name="parenright.inferior" format="1">
  <advance width="221"/>
  <unicode hex="208E"/>
  <outline>
    <contour>
      <point x="58" y="-103" type="curve"/>
      <point x="-24" y="-103" type="line"/>
      <point x="58" y="-14"/>
      <point x="102" y="78"/>
      <point x="102" y="178" type="curve" smooth="yes"/>
      <point x="102" y="254"/>
      <point x="78" y="335"/>
      <point x="29" y="401" type="curve"/>
      <point x="112" y="401" type="line"/>
      <point x="160" y="332"/>
      <point x="181" y="253"/>
      <point x="181" y="181" type="curve" smooth="yes"/>
      <point x="181" y="82"/>
      <point x="142" y="-12"/>
    </contour>
  </outline>
</glyph>
<glyph name="o.inferior" format="1">
  <advance width="337"/>
  <unicode hex="2092"/>
  <outline>
    <contour>
      <point x="4" y="127" type="curve" smooth="yes"/>
      <point x="4" y="216"/>
      <point x="56" y="300"/>
      <point x="170" y="300" type="curve" smooth="yes"/>
      <point x="263" y="300"/>
      <point x="306" y="245"/>
      <point x="306" y="163" type="curve" smooth="yes"/>
      <point x="306" y="60"/>
      <point x="238" y="-7"/>
      <point x="137" y="-7" type="curve" smooth="yes"/>
      <point x="55" y="-7"/>
      <point x="4" y="38"/>
    </contour>
    <contour>
      <point x="102" y="136" type="curve" smooth="yes"/>
      <point x="102" y="92"/>
      <point x="110" y="66"/>
      <point x="146" y="66" type="curve" smooth="yes"/>
      <point x="194" y="66"/>
      <point x="210" y="109"/>
      <point x="210" y="160" type="curve" smooth="yes"/>
      <point x="210" y="211"/>
      <point x="194" y="228"/>
      <point x="161" y="228" type="curve" smooth="yes"/>
      <point x="120" y="228"/>
      <point x="102" y="203"/>
    </contour>
  </outline>
</glyph>
<glyph name="x.inferior" format="1">
  <advance width="366"/>
  <unicode hex="2093"/>
  <outline>
    <contour>
      <point x="329" y="20" type="line"/>
      <point x="307" y="0" type="line"/>
      <point x="146" y="0" type="line"/>
      <point x="152" y="54" type="line"/>
      <point x="174" y="73" type="line"/>
      <point x="183" y="73" type="line"/>
      <point x="150" y="112" type="line"/>
      <point x="100" y="79"/>
      <point x="97" y="39"/>
      <point x="109" y="0" type="curve"/>
      <point x="9" y="0" type="line"/>
      <point x="-15" y="61"/>
      <point x="45" y="94"/>
      <point x="118" y="143" type="curve"/>
      <point x="43" y="222" type="line"/>
      <point x="9" y="222" type="line"/>
      <point x="16" y="275" type="line"/>
      <point x="38" y="294" type="line"/>
      <point x="193" y="294" type="line"/>
      <point x="186" y="241" type="line"/>
      <point x="164" y="222" type="line"/>
      <point x="153" y="222" type="line"/>
      <point x="182" y="187" type="line"/>
      <point x="224" y="225"/>
      <point x="232" y="255"/>
      <point x="222" y="294" type="curve"/>
      <point x="323" y="294" type="line"/>
      <point x="345" y="231"/>
      <point x="262" y="188"/>
      <point x="217" y="157" type="curve"/>
      <point x="293" y="73" type="line"/>
      <point x="335" y="73" type="line"/>
    </contour>
  </outline>
</glyph>
<glyph name="m.inferior" format="1">
  <advance width="558"/>
  <unicode hex="2098"/>
  <outline>
    <contour>
      <point x="39" y="294" type="line"/>
      <point x="135" y="294" type="line"/>
      <point x="139" y="239" type="line"/>
      <point x="159" y="274"/>
      <point x="190" y="300"/>
      <point x="237" y="300" type="curve" smooth="yes"/>
      <point x="280" y="300"/>
      <point x="311" y="278"/>
      <point x="318" y="236" type="curve"/>
      <point x="338" y="274"/>
      <point x="370" y="300"/>
      <point x="418" y="300" type="curve" smooth="yes"/>
      <point x="469" y="300"/>
      <point x="507" y="270"/>
      <point x="498" y="202" type="curve" smooth="yes"/>
      <point x="482" y="73" type="line"/>
      <point x="519" y="73" type="line"/>
      <point x="512" y="18" type="line"/>
      <point x="491" y="0" type="line"/>
      <point x="384" y="0" type="line"/>
      <point x="405" y="163" type="line" smooth="yes"/>
      <point x="411" y="209"/>
      <point x="400" y="228"/>
      <point x="368" y="228" type="curve" smooth="yes"/>
      <point x="334" y="228"/>
      <point x="320" y="206"/>
      <point x="313" y="167" type="curve"/>
      <point x="293" y="0" type="line"/>
      <point x="204" y="0" type="line"/>
      <point x="224" y="163" type="line" smooth="yes"/>
      <point x="230" y="208"/>
      <point x="222" y="228"/>
      <point x="188" y="228" type="curve" smooth="yes"/>
      <point x="150" y="228"/>
      <point x="138" y="203"/>
      <point x="133" y="163" type="curve"/>
      <point x="132" y="164" type="line"/>
      <point x="112" y="0" type="line"/>
      <point x="23" y="0" type="line"/>
      <point x="51" y="222" type="line"/>
      <point x="10" y="222" type="line"/>
      <point x="17" y="275" type="line"/>
    </contour>
    <contour>
      <point x="168" y="368" type="move" name="top"/>
    </contour>
  </outline>
</glyph>
<glyph name="colonsign" format="1">
  <advance width="671"/>
  <unicode hex="20A1"/>
  <outline>
    <contour>
      <point x="592" y="689" type="line"/>
      <point x="679" y="689" type="line"/>
      <point x="418" y="118" type="line"/>
      <point x="436" y="122"/>
      <point x="451" y="128"/>
      <point x="462" y="135" type="curve"/>
      <point x="486" y="232" type="line"/>
      <point x="592" y="222" type="line"/>
      <point x="563" y="69" type="line"/>
      <point x="525" y="32"/>
      <point x="439" y="3"/>
      <point x="361" y="-6" type="curve"/>
      <point x="332" y="-71" type="line"/>
      <point x="245" y="-71" type="line"/>
      <point x="273" y="-8" type="line"/>
      <point x="262" y="-7"/>
      <point x="251" y="-5"/>
      <point x="241" y="-3" type="curve"/>
      <point x="210" y="-71" type="line"/>
      <point x="123" y="-71" type="line"/>
      <point x="167" y="26" type="line"/>
      <point x="86" y="74"/>
      <point x="37" y="166"/>
      <point x="37" y="290" type="curve" smooth="yes"/>
      <point x="37" y="488"/>
      <point x="164" y="660"/>
      <point x="364" y="660" type="curve" smooth="yes"/>
      <point x="396" y="660"/>
      <point x="424" y="655"/>
      <point x="450" y="647" type="curve"/>
      <point x="469" y="689" type="line"/>
      <point x="557" y="689" type="line"/>
      <point x="521" y="609" type="line"/>
      <point x="530" y="602"/>
      <point x="537" y="593"/>
      <point x="544" y="585" type="curve"/>
    </contour>
    <contour>
      <point x="369" y="542" type="curve" smooth="yes"/>
      <point x="245" y="542"/>
      <point x="178" y="446"/>
      <point x="178" y="302" type="curve" smooth="yes"/>
      <point x="178" y="229"/>
      <point x="195" y="180"/>
      <point x="224" y="150" type="curve"/>
      <point x="401" y="539" type="line"/>
      <point x="391" y="541"/>
      <point x="380" y="542"/>
    </contour>
    <contour>
      <point x="473" y="504" type="curve"/>
      <point x="294" y="112" type="line"/>
      <point x="304" y="110"/>
      <point x="315" y="109"/>
      <point x="326" y="108" type="curve"/>
      <point x="493" y="472" type="line"/>
      <point x="488" y="484"/>
      <point x="482" y="495"/>
    </contour>
  </outline>
</glyph>
<glyph name="franc" format="1">
  <advance width="736"/>
  <unicode hex="20A3"/>
  <outline>
    <contour>
      <point x="23" y="114" type="line"/>
      <point x="91" y="114" type="line"/>
      <point x="135" y="536" type="line"/>
      <point x="66" y="536" type="line"/>
      <point x="78" y="650" type="line"/>
      <point x="562" y="650" type="line"/>
      <point x="562" y="449" type="line"/>
      <point x="452" y="439" type="line"/>
      <point x="442" y="536" type="line"/>
      <point x="267" y="536" type="line"/>
      <point x="252" y="394" type="line"/>
      <point x="535" y="394" type="line"/>
      <point x="542" y="271" type="line"/>
      <point x="562" y="334"/>
      <point x="597" y="404"/>
      <point x="651" y="404" type="curve" smooth="yes"/>
      <point x="673" y="404"/>
      <point x="686" y="398"/>
      <point x="700" y="386" type="curve"/>
      <point x="680" y="253" type="line"/>
      <point x="658" y="265"/>
      <point x="644" y="268"/>
      <point x="628" y="268" type="curve" smooth="yes"/>
      <point x="588" y="268"/>
      <point x="556" y="246"/>
      <point x="544" y="199" type="curve"/>
      <point x="530" y="98" type="line"/>
      <point x="616" y="98" type="line"/>
      <point x="607" y="27" type="line"/>
      <point x="576" y="0" type="line"/>
      <point x="335" y="0" type="line"/>
      <point x="344" y="71" type="line"/>
      <point x="375" y="98" type="line"/>
      <point x="404" y="98" type="line"/>
      <point x="426" y="281" type="line"/>
      <point x="240" y="281" type="line"/>
      <point x="223" y="114" type="line"/>
      <point x="317" y="114" type="line"/>
      <point x="305" y="0" type="line"/>
      <point x="11" y="0" type="line"/>
    </contour>
  </outline>
</glyph>
<glyph name="lira" format="1">
  <advance width="564"/>
  <unicode hex="20A4"/>
  <outline>
    <contour>
      <point x="40" y="287" type="line"/>
      <point x="111" y="287" type="line"/>
      <point x="117" y="339" type="line"/>
      <point x="46" y="339" type="line"/>
      <point x="54" y="417" type="line"/>
      <point x="125" y="417" type="line"/>
      <point x="142" y="578"/>
      <point x="242" y="660"/>
      <point x="364" y="660" type="curve" smooth="yes"/>
      <point x="417" y="660"/>
      <point x="493" y="645"/>
      <point x="531" y="602" type="curve"/>
      <point x="531" y="451" type="line"/>
      <point x="423" y="441" type="line"/>
      <point x="418" y="527" type="line"/>
      <point x="399" y="538"/>
      <point x="370" y="542"/>
      <point x="350" y="542" type="curve" smooth="yes"/>
      <point x="296" y="542"/>
      <point x="266" y="510"/>
      <point x="256" y="418" type="curve"/>
      <point x="256" y="417" type="line"/>
      <point x="433" y="417" type="line"/>
      <point x="425" y="339" type="line"/>
      <point x="248" y="339" type="line"/>
      <point x="242" y="287" type="line"/>
      <point x="419" y="287" type="line"/>
      <point x="411" y="209" type="line"/>
      <point x="229" y="209" type="line"/>
      <point x="219" y="173"/>
      <point x="199" y="140"/>
      <point x="157" y="114" type="curve"/>
      <point x="322" y="114" type="line" smooth="yes"/>
      <point x="392" y="114"/>
      <point x="432" y="135"/>
      <point x="468" y="173" type="curve"/>
      <point x="519" y="104" type="line"/>
      <point x="501" y="68"/>
      <point x="434" y="0"/>
      <point x="337" y="0" type="curve" smooth="yes"/>
      <point x="15" y="0" type="line"/>
      <point x="27" y="111" type="line"/>
      <point x="71" y="135"/>
      <point x="90" y="167"/>
      <point x="100" y="209" type="curve"/>
      <point x="32" y="209" type="line"/>
    </contour>
  </outline>
</glyph>
<glyph name="mill" format="1">
  <advance width="836"/>
  <unicode hex="20A5"/>
  <outline>
    <contour>
      <point x="77" y="451" type="line"/>
      <point x="216" y="451" type="line"/>
      <point x="220" y="364" type="line"/>
      <point x="251" y="421"/>
      <point x="298" y="460"/>
      <point x="366" y="460" type="curve" smooth="yes"/>
      <point x="424" y="460"/>
      <point x="468" y="434"/>
      <point x="484" y="380" type="curve"/>
      <point x="583" y="565" type="line"/>
      <point x="670" y="565" type="line"/>
      <point x="613" y="458" type="line"/>
      <point x="620" y="459"/>
      <point x="628" y="460"/>
      <point x="636" y="460" type="curve" smooth="yes"/>
      <point x="717" y="460"/>
      <point x="771" y="411"/>
      <point x="758" y="304" type="curve" smooth="yes"/>
      <point x="733" y="98" type="line"/>
      <point x="791" y="98" type="line"/>
      <point x="782" y="25" type="line"/>
      <point x="752" y="0" type="line"/>
      <point x="598" y="0" type="line"/>
      <point x="629" y="254" type="line" smooth="yes"/>
      <point x="639" y="332"/>
      <point x="620" y="362"/>
      <point x="571" y="362" type="curve" smooth="yes"/>
      <point x="567" y="362"/>
      <point x="564" y="362"/>
      <point x="561" y="361" type="curve"/>
      <point x="475" y="202" type="line"/>
      <point x="451" y="0" type="line"/>
      <point x="367" y="0" type="line"/>
      <point x="298" y="-130" type="line"/>
      <point x="211" y="-130" type="line"/>
      <point x="342" y="115" type="line"/>
      <point x="359" y="254" type="line" smooth="yes"/>
      <point x="369" y="332"/>
      <point x="350" y="362"/>
      <point x="301" y="362" type="curve" smooth="yes"/>
      <point x="241" y="362"/>
      <point x="220" y="318"/>
      <point x="212" y="255" type="curve" smooth="yes"/>
      <point x="181" y="0" type="line"/>
      <point x="57" y="0" type="line"/>
      <point x="100" y="353" type="line"/>
      <point x="37" y="353" type="line"/>
      <point x="46" y="424" type="line"/>
    </contour>
  </outline>
</glyph>
